<?xml version="1.0" encoding="UTF-8" standalone="no"?>
<!-- Generator: Adobe Illustrator 15.0.0, SVG Export Plug-In  -->

<svg
   xmlns:dc="http://purl.org/dc/elements/1.1/"
   xmlns:cc="http://creativecommons.org/ns#"
   xmlns:rdf="http://www.w3.org/1999/02/22-rdf-syntax-ns#"
   xmlns:svg="http://www.w3.org/2000/svg"
   xmlns="http://www.w3.org/2000/svg"
   xmlns:sodipodi="http://sodipodi.sourceforge.net/DTD/sodipodi-0.dtd"
   xmlns:inkscape="http://www.inkscape.org/namespaces/inkscape"
   version="1.1"
   x="0px"
   y="0px"
   width="24.533333"
   height="24.533333"
   viewBox="-1.1 -0.362 23 23"
   overflow="visible"
   enable-background="new -1.1 -0.362 23 23"
   xml:space="preserve"
   id="svg2"
   inkscape:version="0.92.1 r15371"
   sodipodi:docname="epi_nocase_selected.svg"
   style="overflow:visible"><metadata
     id="metadata10"><rdf:RDF><cc:Work
         rdf:about=""><dc:format>image/svg+xml</dc:format><dc:type
           rdf:resource="http://purl.org/dc/dcmitype/StillImage" /><dc:title></dc:title></cc:Work></rdf:RDF></metadata><sodipodi:namedview
     pagecolor="#ffffff"
     bordercolor="#666666"
     borderopacity="1"
     objecttolerance="10"
     gridtolerance="10"
     guidetolerance="10"
     inkscape:pageopacity="0"
     inkscape:pageshadow="2"
     inkscape:window-width="1680"
     inkscape:window-height="988"
     id="namedview8"
     showgrid="false"
     inkscape:zoom="11.399215"
     inkscape:cx="-26.376346"
     inkscape:cy="7.2309793"
     inkscape:window-x="-8"
     inkscape:window-y="-8"
     inkscape:window-maximized="1"
     inkscape:current-layer="svg2" /><defs
     id="defs4" /><path
     stroke-miterlimit="10"
     d="M 10.267731,21.847934 C 4.410341,21.818028 -0.33483873,16.953449 -0.30742488,11.003349 -0.28001102,5.0532494 4.5097692,0.2373523 10.36716,0.26725881 16.225571,0.29717126 20.971759,5.1617563 20.944346,11.111856 c -0.0274,5.949073 -4.816189,10.765999 -10.676615,10.736078 z"
     id="path6"
     inkscape:connector-curvature="0"
     style="display:inline;fill:#ffff00;fill-opacity:1;stroke:#000000;stroke-width:0.50990099;stroke-miterlimit:10"
     inkscape:label="border" /><g
     transform="matrix(0.02629852,0.02629852,-0.02325832,0.02325832,9.7059294,1.0263494)"
     id="g4"
     style="display:inline;fill:#b3b3b3"><path
       d="m 394,154.175 c -5.331,-5.33 -11.806,-7.994 -19.417,-7.994 H 255.811 V 27.406 c 0,-7.611 -2.666,-14.084 -7.994,-19.414 C 242.488,2.666 236.02,0 228.398,0 h -54.812 c -7.612,0 -14.084,2.663 -19.414,7.993 -5.33,5.33 -7.994,11.803 -7.994,19.414 V 146.182 H 27.407 c -7.611,0 -14.084,2.664 -19.414,7.994 C 2.663,159.506 0,165.973 0,173.589 v 54.819 c 0,7.618 2.662,14.086 7.992,19.411 5.33,5.332 11.803,7.994 19.414,7.994 H 146.177 V 374.59 c 0,7.611 2.664,14.089 7.994,19.417 5.33,5.325 11.802,7.987 19.414,7.987 h 54.816 c 7.617,0 14.086,-2.662 19.417,-7.987 5.332,-5.331 7.994,-11.806 7.994,-19.417 V 255.813 h 118.77 c 7.618,0 14.089,-2.662 19.417,-7.994 5.329,-5.325 7.994,-11.793 7.994,-19.411 v -54.819 c -0.002,-7.616 -2.661,-14.087 -7.993,-19.414 z"
       id="path2"
       inkscape:connector-curvature="0"
       style="display:inline;fill:#b3b3b3"
       inkscape:label="cross" /></g></svg>