<?xml version="1.0" encoding="UTF-8" standalone="no"?>
<!-- Generator: Adobe Illustrator 15.0.0, SVG Export Plug-In  -->

<svg
   xmlns:dc="http://purl.org/dc/elements/1.1/"
   xmlns:cc="http://creativecommons.org/ns#"
   xmlns:rdf="http://www.w3.org/1999/02/22-rdf-syntax-ns#"
   xmlns:svg="http://www.w3.org/2000/svg"
   xmlns="http://www.w3.org/2000/svg"
   xmlns:sodipodi="http://sodipodi.sourceforge.net/DTD/sodipodi-0.dtd"
   xmlns:inkscape="http://www.inkscape.org/namespaces/inkscape"
   version="1.1"
   x="0px"
   y="0px"
   width="24.533333"
   height="24.533333"
   viewBox="-1.1 -0.362 23 23"
   overflow="visible"
   enable-background="new -1.1 -0.362 23 23"
   xml:space="preserve"
   id="svg2"
   inkscape:version="0.92.1 r15371"
   sodipodi:docname="epi_none_selected.svg"
   style="overflow:visible"><metadata
     id="metadata10"><rdf:RDF><cc:Work
         rdf:about=""><dc:format>image/svg+xml</dc:format><dc:type
           rdf:resource="http://purl.org/dc/dcmitype/StillImage" /><dc:title></dc:title></cc:Work></rdf:RDF></metadata><sodipodi:namedview
     pagecolor="#ffffff"
     bordercolor="#666666"
     borderopacity="1"
     objecttolerance="10"
     gridtolerance="10"
     guidetolerance="10"
     inkscape:pageopacity="0"
     inkscape:pageshadow="2"
     inkscape:window-width="1680"
     inkscape:window-height="988"
     id="namedview8"
     showgrid="false"
     inkscape:zoom="10.26087"
     inkscape:cx="-22.662147"
     inkscape:cy="11.5"
     inkscape:window-x="-8"
     inkscape:window-y="-8"
     inkscape:window-maximized="1"
     inkscape:current-layer="svg2" /><defs
     id="defs4" /><path
     stroke-miterlimit="10"
     d="M 10.267731,21.847934 C 4.410341,21.818028 -0.33483873,16.953449 -0.30742488,11.003349 -0.28001102,5.0532494 4.5097692,0.2373523 10.36716,0.26725881 16.225571,0.29717126 20.971759,5.1617563 20.944346,11.111856 c -0.0274,5.949073 -4.816189,10.765999 -10.676615,10.736078 z"
     id="path6"
     inkscape:connector-curvature="0"
     style="display:inline;fill:#ffff00;fill-opacity:1;stroke:#000000;stroke-width:0.50990099;stroke-miterlimit:10"
     inkscape:label="path6" /><path
     style="display:inline;fill:#ff0000;fill-rule:evenodd;stroke:none;stroke-width:1.53074753"
     id="Shape-0-6"
     d="M 11.601225,17.628377 H 9.0038571 v -1.882238 h 2.5973679 z m 2.727241,-7.246618 -1.168818,0.847007 c -1.03895,0.658783 -1.558423,1.223454 -1.558423,2.635134 H 9.0038571 v -0.470561 c 0,-1.035229 0.5194753,-1.976349 1.5584219,-2.635134 l 1.558419,-1.2234532 c 0.519477,-0.2823357 0.779215,-0.7528966 0.779215,-1.3175684 0,-1.0352303 -1.168818,-1.882239 -2.597371,-1.882239 -1.4285533,0 -2.5973695,0.8470087 -2.5973695,1.882239 H 5.1078029 c 0,-2.0704625 2.3376322,-3.7644766 5.1947391,-3.7644766 2.857106,0 5.19474,1.6940141 5.19474,3.7644766 0,0.847009 -0.519473,1.5999056 -1.168816,2.1645756 z"
     inkscape:connector-curvature="0"
     sodipodi:nodetypes="cccccsccccsccssccss" /></svg>