<?xml version="1.0" encoding="UTF-8" standalone="no"?>
<!-- Generator: Adobe Illustrator 15.0.0, SVG Export Plug-In  -->

<svg
   xmlns:dc="http://purl.org/dc/elements/1.1/"
   xmlns:cc="http://creativecommons.org/ns#"
   xmlns:rdf="http://www.w3.org/1999/02/22-rdf-syntax-ns#"
   xmlns:svg="http://www.w3.org/2000/svg"
   xmlns="http://www.w3.org/2000/svg"
   xmlns:sodipodi="http://sodipodi.sourceforge.net/DTD/sodipodi-0.dtd"
   xmlns:inkscape="http://www.inkscape.org/namespaces/inkscape"
   version="1.1"
   x="0px"
   y="0px"
   width="24.533333"
   height="24.533333"
   viewBox="-1.1 -0.362 23 23"
   overflow="visible"
   enable-background="new -1.1 -0.362 23 23"
   xml:space="preserve"
   id="svg2"
   inkscape:version="0.92.1 r15371"
   sodipodi:docname="epi_none.svg"
   style="overflow:visible"><metadata
     id="metadata10"><rdf:RDF><cc:Work
         rdf:about=""><dc:format>image/svg+xml</dc:format><dc:type
           rdf:resource="http://purl.org/dc/dcmitype/StillImage" /><dc:title></dc:title></cc:Work></rdf:RDF></metadata><sodipodi:namedview
     pagecolor="#ffffff"
     bordercolor="#666666"
     borderopacity="1"
     objecttolerance="10"
     gridtolerance="10"
     guidetolerance="10"
     inkscape:pageopacity="0"
     inkscape:pageshadow="2"
     inkscape:window-width="1680"
     inkscape:window-height="988"
     id="namedview8"
     showgrid="false"
     inkscape:zoom="10.26087"
     inkscape:cx="-4.6324869"
     inkscape:cy="11.5"
     inkscape:window-x="-8"
     inkscape:window-y="-8"
     inkscape:window-maximized="1"
     inkscape:current-layer="svg2" /><defs
     id="defs4" /><path
     stroke-miterlimit="10"
     d="M 10.267731,21.847934 C 4.410341,21.818028 -0.33483873,16.953449 -0.30742488,11.003349 -0.28001102,5.0532494 4.5097692,0.2373523 10.36716,0.26725881 16.225571,0.29717126 20.971759,5.1617563 20.944346,11.111856 c -0.0274,5.949073 -4.816189,10.765999 -10.676615,10.736078 z"
     id="path6"
     inkscape:connector-curvature="0"
     style="display:inline;fill:#ffffff;fill-opacity:1;stroke:#000000;stroke-width:0.50990099;stroke-miterlimit:10"
     inkscape:label="path6" /><path
     style="display:inline;fill:#ff0000;fill-rule:evenodd;stroke:none;stroke-width:1.53074753"
     id="Shape-0-6"
     d="M 11.601225,17.628377 H 9.0038571 v -1.882238 h 2.5973679 z m 2.727241,-7.246618 -1.168818,0.847007 c -1.03895,0.658783 -1.558423,1.223454 -1.558423,2.635134 H 9.0038571 v -0.470561 c 0,-1.035229 0.5194753,-1.976349 1.5584219,-2.635134 l 1.558419,-1.2234532 c 0.519477,-0.2823357 0.779215,-0.7528966 0.779215,-1.3175684 0,-1.0352303 -1.168818,-1.882239 -2.597371,-1.882239 -1.4285533,0 -2.5973695,0.8470087 -2.5973695,1.882239 H 5.1078029 c 0,-2.0704625 2.3376322,-3.7644766 5.1947391,-3.7644766 2.857106,0 5.19474,1.6940141 5.19474,3.7644766 0,0.847009 -0.519473,1.5999056 -1.168816,2.1645756 z"
     inkscape:connector-curvature="0"
     sodipodi:nodetypes="cccccsccccsccssccss" /><path
     style="opacity:0.01000001;fill:#ffffff;fill-opacity:1;stroke:#000000;stroke-width:0.06581087;stroke-miterlimit:4;stroke-dasharray:none;stroke-opacity:1"
     d="M 7.9649379,22.472179 C 4.2230357,21.836808 0.76695544,18.957995 -0.66588223,15.28296 -1.1663208,13.999403 -1.4515922,12.141052 -1.3588312,10.768866 -1.0210065,5.7715143 2.290662,1.7969523 7.2544552,0.4314658 c 1.2676399,-0.34871406 4.3030278,-0.34871406 5.5706688,0 2.66108,0.732035 4.905511,2.2242414 6.392766,4.2502233 3.354389,4.5694424 2.894932,10.6269079 -1.10832,14.6120319 -1.660594,1.653074 -3.912254,2.826631 -6.11886,3.189129 -0.999761,0.16424 -3.0273176,0.158864 -4.0257721,-0.01069 z M 11.08028,16.363302 V 15.430896 H 9.8446979 8.6091133 v 0.932406 0.932407 H 9.8446979 11.08028 Z m 0.0699,-3.299032 c 0.18383,-0.837566 0.348979,-1.041126 1.620898,-1.9979 0.536505,-0.403573 1.105303,-0.890355 1.263996,-1.0817398 1.67364,-2.0183859 0.0015,-4.6728862 -3.282089,-5.2101771 C 8.1122486,4.3423472 5.2625006,5.8564808 5.0041763,7.8289217 l -0.071027,0.5423285 1.2201928,-0.00478 1.220193,-0.00478 0.2601224,-0.556209 c 0.8468033,-1.8106826 4.4871165,-1.399905 4.4871165,0.5063319 0,0.6872914 -0.07868,0.7897681 -1.410297,1.8367979 -0.690779,0.543148 -1.3561505,1.101923 -1.4786071,1.241723 -0.3595413,0.410466 -0.6227522,1.189658 -0.6227522,1.843562 v 0.608681 l 1.1935358,-0.03829 1.1935365,-0.0383 z"
     id="path4521"
     inkscape:connector-curvature="0" /></svg>