<?xml version="1.0" encoding="UTF-8" standalone="no"?>
<svg
   xmlns:dc="http://purl.org/dc/elements/1.1/"
   xmlns:cc="http://creativecommons.org/ns#"
   xmlns:rdf="http://www.w3.org/1999/02/22-rdf-syntax-ns#"
   xmlns:svg="http://www.w3.org/2000/svg"
   xmlns="http://www.w3.org/2000/svg"
   xmlns:sodipodi="http://sodipodi.sourceforge.net/DTD/sodipodi-0.dtd"
   xmlns:inkscape="http://www.inkscape.org/namespaces/inkscape"
   height="23px"
   version="1.1"
   viewBox="0 0 18 23"
   width="18px"
   id="svg4187"
   inkscape:version="0.91 r13725"
   sodipodi:docname="marker_site_other_selected.svg"
   inkscape:export-filename="/home/marc/sigte/projectes_marc/mosquito/test.png"
   inkscape:export-xdpi="90"
   inkscape:export-ydpi="90">
  <metadata
     id="metadata4201">
    <rdf:RDF>
      <cc:Work
         rdf:about="">
        <dc:format>image/svg+xml</dc:format>
        <dc:type
           rdf:resource="http://purl.org/dc/dcmitype/StillImage" />
        <dc:title />
      </cc:Work>
    </rdf:RDF>
  </metadata>
  <sodipodi:namedview
     pagecolor="#ffffff"
     bordercolor="#666666"
     borderopacity="1"
     objecttolerance="10"
     gridtolerance="10"
     guidetolerance="10"
     inkscape:pageopacity="0"
     inkscape:pageshadow="2"
     inkscape:window-width="1680"
     inkscape:window-height="988"
     id="namedview4199"
     showgrid="false"
     inkscape:zoom="17.341851"
     inkscape:cx="-18.199221"
     inkscape:cy="10.161842"
     inkscape:window-x="-8"
     inkscape:window-y="-8"
     inkscape:window-maximized="1"
     inkscape:current-layer="svg4187" />
  <desc
     id="desc4191" />
  <defs
     id="defs4193" />
  <path
     style="fill:#ffff00;fill-opacity:1;stroke:#000000;stroke-width:0.4;stroke-miterlimit:4;stroke-dasharray:none;stroke-opacity:1"
     d="M 8.6736437,21.801374 C 8.5069361,21.644026 8.0391451,21.14553 7.6341085,20.693605 5.0841141,17.848411 3.0947453,15.185188 1.7442557,12.808699 0.78164961,11.114778 0.53266149,10.289549 0.52918432,8.781554 0.52606578,7.4279897 0.73381024,6.5802077 1.3560031,5.4074594 1.8773538,4.424783 2.5491189,3.6409393 3.4852329,2.9229839 4.726814,1.9707493 6.1563627,1.3808943 7.7711152,1.1545589 c 0.875126,-0.122664 2.3008418,-0.072358 3.1685208,0.1118003 3.247072,0.6891664 5.730026,2.9808975 6.461853,5.9641998 0.182482,0.7438915 0.198248,2.2029724 0.03191,2.953415 -0.299613,1.351747 -1.097464,2.875027 -2.742953,5.236927 -1.827028,2.622478 -5.2356775,6.666558 -5.6190669,6.666558 -0.052048,0 -0.2310307,-0.128738 -0.3977354,-0.286085 z"
     id="path4149"
     inkscape:connector-curvature="0"
     sodipodi:nodetypes="sssssssssssss" />
  <path
     style="fill:#ffffff;fill-opacity:1;stroke:#000000;stroke-width:0.5;stroke-miterlimit:4;stroke-dasharray:none;stroke-opacity:1"
     d="M 8.6049992,21.395136 C 7.8112604,20.5816 6.5048658,19.077742 5.4645144,17.77996 3.9592385,15.902212 2.6491919,13.983831 1.762957,12.359547 0.92231082,10.818818 0.74702588,10.134099 0.78868333,8.5537249 0.81907763,7.4006456 0.90352506,6.9667919 1.2564725,6.1504297 1.8767864,4.7156529 2.7896536,3.6394599 4.145568,2.7444313 5.0750027,2.1309188 6.1716161,1.6844391 7.3259661,1.449551 c 0.7153787,-0.1455659 2.649731,-0.1432477 3.3932949,0.00407 3.034698,0.6012321 5.398889,2.592335 6.307971,5.3125242 0.231545,0.6928367 0.316465,1.4322641 0.274832,2.3930548 -0.0482,1.112417 -0.257612,1.825652 -0.906373,3.087055 -0.97636,1.898359 -3.126915,4.886982 -5.558715,7.724939 -0.759796,0.886696 -1.5605618,1.739931 -1.7059707,1.817751 -0.071833,0.03844 -0.192186,-0.05166 -0.5260061,-0.393806 z"
     id="path4134"
     inkscape:connector-curvature="0" />
</svg>
