<?xml version="1.0" encoding="UTF-8" standalone="no"?>
<svg
   xmlns:dc="http://purl.org/dc/elements/1.1/"
   xmlns:cc="http://creativecommons.org/ns#"
   xmlns:rdf="http://www.w3.org/1999/02/22-rdf-syntax-ns#"
   xmlns:svg="http://www.w3.org/2000/svg"
   xmlns="http://www.w3.org/2000/svg"
   xmlns:sodipodi="http://sodipodi.sourceforge.net/DTD/sodipodi-0.dtd"
   xmlns:inkscape="http://www.inkscape.org/namespaces/inkscape"
   height="23"
   version="1.1"
   viewBox="0 0 40 23"
   width="40"
   id="svg4187"
   inkscape:version="0.92.3 (2405546, 2018-03-11)"
   sodipodi:docname="marker_koreicus_all.svg"
   inkscape:export-filename="/home/marc/sigte/projectes_marc/mosquito/test.png"
   inkscape:export-xdpi="90"
   inkscape:export-ydpi="90">
  <metadata
     id="metadata4201">
    <rdf:RDF>
      <cc:Work
         rdf:about="">
        <dc:format>image/svg+xml</dc:format>
        <dc:type
           rdf:resource="http://purl.org/dc/dcmitype/StillImage" />
        <dc:title />
      </cc:Work>
    </rdf:RDF>
  </metadata>
  <sodipodi:namedview
     pagecolor="#ffffff"
     bordercolor="#666666"
     borderopacity="1"
     objecttolerance="10"
     gridtolerance="10"
     guidetolerance="10"
     inkscape:pageopacity="0"
     inkscape:pageshadow="2"
     inkscape:window-width="1533"
     inkscape:window-height="845"
     id="namedview4199"
     showgrid="false"
     inkscape:zoom="17.341851"
     inkscape:cx="20.549316"
     inkscape:cy="13.10223"
     inkscape:window-x="67"
     inkscape:window-y="27"
     inkscape:window-maximized="1"
     inkscape:current-layer="svg4187" />
  <desc
     id="desc4191" />
  <defs
     id="defs4193" />
  <g
     transform="translate(0.110907,0.3518775)"
     id="Page-1"
     style="fill:#000080;fill-opacity:1;fill-rule:evenodd;stroke:none;stroke-width:1">
    <g
       id="Icons-Communication"
       transform="translate(-211,-82)"
       style="fill:#000080;fill-opacity:1">
      <g
         id="live-help"
         transform="translate(211,82.5)"
         style="fill:#000080;fill-opacity:1">
        <path
           d="M 16,0 H 2 C 0.9,0 0,0.9 0,2 v 14 c 0,1.1 0.9,2 2,2 h 4 l 3,3 3,-3 h 4 c 1.1,0 2,-0.9 2,-2 V 2 C 18,0.9 17.1,0 16,0 Z"
           id="Shape"
           inkscape:connector-curvature="0"
           sodipodi:nodetypes="csssscccssscc"
           style="fill:#000080;fill-opacity:1" />
      </g>
    </g>
  </g>
  <g
     style="fill:#2472b6;fill-opacity:1;fill-rule:evenodd;stroke:none;stroke-width:1"
     id="Icons-Communication-6"
     transform="matrix(0.9108143,0,0,0.91204869,-191.2518,-73.727732)">
    <g
       id="live-help-8"
       transform="translate(211,82.5)"
       style="fill:#2472b6;fill-opacity:1">
      <path
         d="M 16,0 H 2 C 0.9,0 0,0.9 0,2 v 14 c 0,1.1 0.9,2 2,2 h 4 l 3,3 3,-3 h 4 c 1.1,0 2,-0.9 2,-2 V 2 C 18,0.9 17.1,0 16,0 Z"
         id="Shape-7"
         inkscape:connector-curvature="0"
         sodipodi:nodetypes="csssscccssscc"
         style="fill:#2472b6;fill-opacity:1" />
    </g>
  </g>
  <path
     inkscape:connector-curvature="0"
     d="M 14.089386,9.5837609 10.298213,8.8568116 c -0.02309,-0.00406 -0.04444,-0.00581 -0.06695,-0.00929 L 11.676976,7.393623 c 0.05367,-0.054579 0.08426,-0.1283193 0.08426,-0.2055432 V 5.5663791 l 1.647131,-1.6571192 c 0.112541,-0.1132229 0.112541,-0.2972828 0,-0.4105057 -0.11254,-0.1132229 -0.295491,-0.1132229 -0.408031,0 l -1.731389,1.7418913 c -0.05425,0.054579 -0.08484,0.1283193 -0.08484,0.2055431 V 7.0678893 L 10.029845,8.2291502 V 7.1880798 c 0,-0.3768291 -0.242395,-0.6967565 -0.577131,-0.816947 V 4.8655582 c 0,-0.1596734 -0.129854,-0.2903152 -0.288565,-0.2903152 -0.158711,0 -0.288565,0.1306418 -0.288565,0.2903152 V 6.3711328 C 8.54085,6.4913233 8.298455,6.8112507 8.298455,7.1880798 V 8.2291502 L 7.144193,7.0678893 V 5.4461886 c 0,-0.077224 -0.03059,-0.1509639 -0.08426,-0.2055431 L 5.3285396,3.4987542 c -0.1125406,-0.1132229 -0.295491,-0.1132229 -0.4080316,0 -0.1125405,0.1132229 -0.1125405,0.2972828 0,0.4105057 l 1.646554,1.6571192 v 1.6217007 c 0,0.077224 0.03059,0.1509639 0.08426,0.2055432 l 1.445713,1.4544792 c -0.02309,0.00348 -0.04444,0.00465 -0.06752,0.00929 L 4.2383393,9.5837609 C 3.615038,9.7033709 3.104854,10.0622 3.104277,10.381547 3.1037,10.700894 3.608112,11.089336 4.2239111,11.243784 l 0.068678,0.01684 c 0.4397738,0.110319 1.0601895,0.09348 1.5905728,-0.02148 L 4.3428,12.788846 c -0.1125405,0.113223 -0.1125405,0.297283 0,0.410506 0.056559,0.0569 0.1304316,0.08535 0.2043044,0.08535 0.073873,0 0.1477455,-0.02845 0.2043043,-0.08477 L 7.144193,10.792057 v 0.963847 l -2.2704326,3.997641 c -0.079067,0.13877 -0.031165,0.316443 0.1073464,0.39657 0.045016,0.02555 0.094649,0.03774 0.1431284,0.03774 0.1004208,0 0.1973788,-0.05284 0.251052,-0.146318 L 7.683811,11.977124 c 0.02424,-0.04355 0.03751,-0.09348 0.03751,-0.143997 v -1.362739 l 0.394757,-0.182899 c 0.06233,-0.02903 0.122929,-0.06155 0.182374,-0.09522 0,0 0,2.003756 0,2.802123 0,0.798366 0.389563,1.451576 0.865695,1.451576 0.476133,0 0.865697,-0.65321 0.865697,-1.451576 0,-0.798367 0,-2.802123 0,-2.802123 0.06002,0.03368 0.120043,0.06619 0.182373,0.09522 l 0.394758,0.182899 v 1.362739 c 0,0.05052 0.0127,0.100449 0.03751,0.143997 l 2.308523,4.064413 c 0.05367,0.09348 0.151208,0.146318 0.251052,0.146318 0.04906,0 0.09811,-0.01219 0.143129,-0.03774 0.138511,-0.08013 0.186413,-0.257219 0.107923,-0.39657 l -2.27101,-3.99764 v -0.963847 l 2.392785,2.407294 c 0.05656,0.0569 0.130431,0.08535 0.204304,0.08535 0.07387,0 0.147746,-0.02845 0.204304,-0.08477 0.112541,-0.113223 0.112541,-0.297283 0,-0.410506 l -1.540362,-1.549704 c 0.530383,0.114965 1.150799,0.132384 1.590573,0.02148 l 0.06868,-0.01684 c 0.615797,-0.155028 1.119632,-0.54347 1.119632,-0.862817 -5.77e-4,-0.319347 -0.510761,-0.6781761 -1.134639,-0.7977861 z"
     id="path4-9"
     style="fill:#ffff00" />
  <path
     style="fill:#ffffff;fill-opacity:1;stroke:#000000;stroke-width:0.02883198;stroke-miterlimit:4;stroke-dasharray:none;stroke-opacity:1"
     d="M 4.9166778,16.056717 C 4.8773358,16.009317 4.8580048,15.92136 4.8737198,15.861266 4.8894348,15.801176 5.411473,14.8563 6.033805,13.761549 l 1.131513,-1.990454 v -0.509394 -0.509393 l -1.2624702,1.261491 c -1.1408558,1.139972 -1.2768632,1.257879 -1.4118889,1.22399 -0.096509,-0.02422 -0.1626813,-0.09034 -0.1868713,-0.186723 -0.033458,-0.133307 0.050553,-0.237382 0.7877918,-0.975939 l 0.8252438,-0.826719 -0.6346441,0.03348 C 4.578988,11.318998 4.1908633,11.255458 3.763143,11.033138 3.352237,10.819559 3.12884,10.580636 3.12884,10.35475 3.12884,10.186161 3.547206,9.8232862 3.860301,9.7203093 4.013013,9.6700823 5.017888,9.4600135 6.093356,9.2534889 7.168825,9.0469649 8.062797,8.8639466 8.079962,8.8467818 8.097132,8.8296168 7.76861,8.4723056 7.349925,8.0527565 L 6.588678,7.2899399 V 6.4280803 5.5662208 L 5.7237185,4.6947402 C 4.8757435,3.8403723 4.7695602,3.6844243 4.9279557,3.5260287 5.091565,3.3624195 5.2451202,3.4696327 6.169978,4.3932161 L 7.107654,5.3296002 V 6.1962455 7.0628907 L 7.713126,7.6663019 8.318597,8.269713 V 7.6451543 c 0,-0.7223803 0.0823,-0.9671808 0.385223,-1.1459126 L 8.895237,6.3863029 V 5.6097442 c 0,-0.828391 0.04282,-0.9996328 0.249983,-0.9996328 0.242939,0 0.268971,0.091676 0.269357,0.9485723 l 3.46e-4,0.8101788 0.171423,0.097539 c 0.326198,0.1856048 0.40403,0.4027391 0.404271,1.1278201 1.16e-4,0.3567958 0.02218,0.6487197 0.04902,0.6487197 0.02684,0 0.299304,-0.2701357 0.605471,-0.6003016 L 11.201795,7.0423381 V 6.1905758 5.3388135 l 0.934761,-0.9409909 c 0.926323,-0.9324975 1.078011,-1.0387204 1.244937,-0.8717942 0.16349,0.1634896 0.0589,0.3173372 -0.795762,1.1705787 l -0.86496,0.8635175 v 0.8562573 0.8562573 l -0.747139,0.7855736 c -0.410927,0.4320655 -0.741509,0.791205 -0.734626,0.7980876 0.0069,0.00688 0.904155,0.184385 1.99394,0.3944497 1.089784,0.2100641 2.112416,0.4317077 2.272516,0.4925403 0.381861,0.1450964 0.675147,0.4283866 0.675147,0.6521376 0,0.317049 -0.56936,0.713828 -1.226585,0.854786 -0.182139,0.03906 -0.550971,0.05151 -0.931604,0.03143 l -0.630094,-0.03324 0.817502,0.818963 c 0.535742,0.5367 0.817502,0.860999 0.817502,0.940925 0,0.167074 -0.142253,0.271629 -0.311703,0.229099 -0.07986,-0.02004 -0.643572,-0.556458 -1.309638,-1.246214 -0.643187,-0.666064 -1.190226,-1.211024 -1.215644,-1.211024 -0.02542,0 -0.04621,0.214367 -0.04621,0.476372 v 0.476372 l 1.15328,2.031436 c 0.634303,1.117291 1.153279,2.080416 1.153279,2.140278 0,0.146319 -0.137212,0.251359 -0.298227,0.228301 -0.106825,-0.0153 -0.356638,-0.414872 -1.327652,-2.123577 l -1.196068,-2.104735 -0.0018,-0.723725 -0.0018,-0.723725 -0.261031,-0.126819 c -0.143557,-0.06975 -0.286276,-0.126814 -0.317143,-0.126814 -0.03502,0 -0.05612,0.592407 -0.05612,1.575293 0,1.820453 -0.03862,2.05206 -0.402906,2.416348 -0.384491,0.38449 -0.807629,0.247143 -1.089341,-0.353591 -0.150513,-0.320955 -0.151258,-0.329658 -0.169552,-1.980211 -0.01038,-0.936677 -0.04107,-1.657839 -0.07054,-1.657839 -0.02869,0 -0.169626,0.05707 -0.313193,0.126818 l -0.26103,0.126819 v 0.736805 0.736805 l -1.072243,1.889831 c -1.3286198,2.341691 -1.3162057,2.322311 -1.4875591,2.322311 -0.074955,0 -0.1684698,-0.03879 -0.2078115,-0.08619 z"
     id="path4142"
     inkscape:connector-curvature="0" />
  <g
     transform="translate(21.158258,0.35187741)"
     id="Page-1-3"
     style="fill:#000080;fill-opacity:1;fill-rule:evenodd;stroke:none;stroke-width:1">
    <g
       id="Icons-Communication-67"
       transform="translate(-211,-82)"
       style="fill:#000080;fill-opacity:1">
      <g
         id="live-help-5"
         transform="translate(211,82.5)"
         style="fill:#000080;fill-opacity:1">
        <path
           d="M 16,0 H 2 C 0.9,0 0,0.9 0,2 v 14 c 0,1.1 0.9,2 2,2 h 4 l 3,3 3,-3 h 4 c 1.1,0 2,-0.9 2,-2 V 2 C 18,0.9 17.1,0 16,0 Z"
           id="Shape-3"
           inkscape:connector-curvature="0"
           sodipodi:nodetypes="csssscccssscc"
           style="fill:#000080;fill-opacity:1" />
      </g>
    </g>
  </g>
  <g
     style="fill:#2472b6;fill-opacity:1;fill-rule:evenodd;stroke:none;stroke-width:1"
     id="Icons-Communication-6-5"
     transform="matrix(0.9108143,0,0,0.91204869,-170.20444,-73.727733)">
    <g
       id="live-help-8-6"
       transform="translate(211,82.5)"
       style="fill:#2472b6;fill-opacity:1">
      <path
         d="M 16,0 H 2 C 0.9,0 0,0.9 0,2 v 14 c 0,1.1 0.9,2 2,2 h 4 l 3,3 3,-3 h 4 c 1.1,0 2,-0.9 2,-2 V 2 C 18,0.9 17.1,0 16,0 Z"
         id="Shape-7-2"
         inkscape:connector-curvature="0"
         sodipodi:nodetypes="csssscccssscc"
         style="fill:#2472b6;fill-opacity:1" />
    </g>
  </g>
</svg>
