<?xml version="1.0" encoding="UTF-8" standalone="no"?>
<svg
   xmlns:dc="http://purl.org/dc/elements/1.1/"
   xmlns:cc="http://creativecommons.org/ns#"
   xmlns:rdf="http://www.w3.org/1999/02/22-rdf-syntax-ns#"
   xmlns:svg="http://www.w3.org/2000/svg"
   xmlns="http://www.w3.org/2000/svg"
   xmlns:sodipodi="http://sodipodi.sourceforge.net/DTD/sodipodi-0.dtd"
   xmlns:inkscape="http://www.inkscape.org/namespaces/inkscape"
   height="23px"
   version="1.1"
   viewBox="0 0 18 23"
   width="18px"
   id="svg4187"
   inkscape:version="0.92.3 (2405546, 2018-03-11)"
   sodipodi:docname="marker_jap_kor.svg"
   inkscape:export-filename="/home/marc/sigte/projectes_marc/mosquito/test.png"
   inkscape:export-xdpi="90"
   inkscape:export-ydpi="90">
  <metadata
     id="metadata4201">
    <rdf:RDF>
      <cc:Work
         rdf:about="">
        <dc:format>image/svg+xml</dc:format>
        <dc:type
           rdf:resource="http://purl.org/dc/dcmitype/StillImage" />
        <dc:title />
      </cc:Work>
    </rdf:RDF>
  </metadata>
  <sodipodi:namedview
     pagecolor="#ffffff"
     bordercolor="#666666"
     borderopacity="1"
     objecttolerance="10"
     gridtolerance="10"
     guidetolerance="10"
     inkscape:pageopacity="0"
     inkscape:pageshadow="2"
     inkscape:window-width="1533"
     inkscape:window-height="845"
     id="namedview4199"
     showgrid="false"
     inkscape:zoom="17.341851"
     inkscape:cx="-9.2085536"
     inkscape:cy="13.481144"
     inkscape:window-x="67"
     inkscape:window-y="27"
     inkscape:window-maximized="1"
     inkscape:current-layer="svg4187"
     inkscape:measure-start="0,0"
     inkscape:measure-end="0,0" />
  <desc
     id="desc4191" />
  <defs
     id="defs4193" />
  <g
     fill="none"
     fill-rule="evenodd"
     id="Page-1"
     stroke="none"
     stroke-width="1"
     style="fill:#6c5353;fill-opacity:1">
    <g
       fill="#000000"
       id="Icons-Communication"
       transform="translate(-211.000000, -82.000000)"
       style="fill:#6c5353;fill-opacity:1">
      <g
         id="live-help"
         transform="translate(211.000000, 82.500000)"
         style="fill:#6c5353;fill-opacity:1">
        <path
           d="M 16,0 2,0 C 0.9,0 0,0.9 0,2 l 0,14 c 0,1.1 0.9,2 2,2 l 4,0 3,3 3,-3 4,0 c 1.1,0 2,-0.9 2,-2 L 18,2 C 18,0.9 17.1,0 16,0 Z"
           id="Shape"
           inkscape:connector-curvature="0"
           sodipodi:nodetypes="csssscccssscc"
           style="fill:#6c5353;fill-opacity:1" />
      </g>
    </g>
  </g>
  <g
     transform="matrix(0.9108143,0,0,0.91204869,0.81911635,0.70838256)"
     style="fill:#f9b233;fill-rule:evenodd;stroke:none;stroke-width:1;fill-opacity:1"
     id="Page-1-0">
    <g
       style="fill:#f9b233;fill-opacity:1"
       id="Icons-Communication-6"
       transform="translate(-211,-82)">
      <g
         id="live-help-8"
         transform="translate(211,82.5)"
         style="fill:#f9b233;fill-opacity:1">
        <path
           d="M 1.3035862,0.06322466 C 0.20358616,0.06322466 0,0.9 0,2 v 14 c 0,1.1 0.9,2 2,2 H 6 L 9,21 9.087724,-0.08225372 C 5.693746,0.04080661 5.008842,-0.07632626 1.3035862,0.06322466 Z"
           id="Shape-7"
           inkscape:connector-curvature="0"
           sodipodi:nodetypes="cssscccc"
           style="fill:#f9b233;fill-opacity:1" />
      </g>
    </g>
  </g>
  <path
     d="m 16.163103,1.2220709 c 1.021427,0 1.210471,0.7631798 1.210471,1.7664334 V 15.757185 c 0,1.003254 -0.835713,1.824098 -1.85714,1.824098 h -3.71428 L 9.0164451,20.317429 8.9349875,1.0893875 c 3.1515455,0.112237 3.7875265,0.00541 7.2281155,0.1326834 z"
     id="Shape-7-3"
     inkscape:connector-curvature="0"
     sodipodi:nodetypes="cssscccc"
     style="fill:#2472b6;fill-opacity:1;fill-rule:evenodd;stroke:none;stroke-width:0.92027223" />
  <path
     style="fill:#ffffff;fill-opacity:1;stroke-width:25;stroke-miterlimit:4;stroke-dasharray:none"
     d="m 4.6998689,15.128938 c -0.03934,-0.0474 -0.05847,-0.136117 -0.04252,-0.197141 0.01596,-0.06102 0.537996,-1.008107 1.160085,-2.104628 l 1.13107,-1.993676 V 10.32901 9.8245282 l -1.254672,1.2536988 c -1.239693,1.238733 -1.390524,1.353308 -1.559329,1.184504 -0.160531,-0.160532 -0.05758,-0.315817 0.737384,-1.112194 l 0.806581,-0.808017 h -0.820997 c -0.798525,0 -0.831256,-0.0049 -1.195813,-0.17839 -0.437473,-0.2082098 -0.749631,-0.5023848 -0.749631,-0.7064438 0,-0.198356 0.388865,-0.552322 0.731461,-0.665814 0.152712,-0.05059 1.158296,-0.261368 2.234632,-0.468398 1.076336,-0.207029 1.970308,-0.389751 1.986606,-0.406048 0.0163,-0.0163 -0.312929,-0.3729 -0.731615,-0.792449 l -0.761246,-0.762816 v -0.86186 -0.86186 l -0.86496,-0.87148 c -0.847975,-0.854368 -0.954158,-1.010316 -0.795762,-1.168712 0.163609,-0.163609 0.317164,-0.0564 1.242022,0.867188 l 0.937676,0.936384 v 0.866645 0.866645 l 0.605471,0.603412 0.605472,0.603411 v -0.624559 c 0,-0.719074 0.07837,-0.954633 0.383274,-1.15203 l 0.191938,-0.124262 7.14e-4,-0.810179 c 7.49e-4,-0.84999 0.02779,-0.948572 0.260202,-0.948572 0.23249,0 0.25947,0.09849 0.259852,0.948572 l 3.46e-4,0.810179 0.171423,0.09754 c 0.327864,0.186553 0.404031,0.401561 0.404272,1.141206 l 2.34e-4,0.662105 0.6054721,-0.603411 0.605471,-0.603411 v -0.862038 -0.862039 l 0.934761,-0.940991 c 0.926323,-0.932497 1.078012,-1.03872 1.244938,-0.871794 0.16349,0.16349 0.0589,0.317337 -0.795763,1.170579 l -0.86496,0.863517 v 0.885924 0.885924 l -0.752852,0.765776 -0.752851,0.765777 0.680771,0.127787 c 2.34786,0.440714 3.543873,0.69534 3.742804,0.796827 0.336883,0.171865 0.541967,0.400862 0.541967,0.60516 0,0.235537 -0.35234,0.5658958 -0.789703,0.7404378 -0.29164,0.116387 -0.435878,0.13378 -1.120149,0.135076 l -0.785406,0.0015 0.77099,0.814171 c 0.463348,0.489298 0.770989,0.860379 0.770989,0.929978 0,0.157846 -0.143931,0.265119 -0.301987,0.225074 -0.07177,-0.01819 -0.675418,-0.580465 -1.341437,-1.249513 L 10.95615,9.8457952 10.93928,10.31798 l -0.01687,0.472186 1.155734,2.034705 c 0.635654,1.119087 1.155735,2.08558 1.155735,2.147762 0,0.150261 -0.135568,0.255795 -0.298691,0.232518 -0.107437,-0.01533 -0.35509,-0.411106 -1.328806,-2.123577 l -1.196759,-2.104736 -6.39e-4,-0.723725 -6.4e-4,-0.7237248 -0.261031,-0.126818 c -0.143567,-0.06976 -0.2862851,-0.126832 -0.3171521,-0.126832 -0.03502,0 -0.05612,0.592407 -0.05612,1.5752928 0,1.820454 -0.03862,2.052061 -0.402907,2.416349 -0.394479,0.394478 -0.821869,0.250388 -1.103099,-0.371896 -0.132982,-0.294251 -0.137989,-0.357742 -0.155112,-1.966819 -0.0134,-1.2590058 -0.0344,-1.6560928 -0.0865,-1.6353328 -0.03784,0.01508 -0.179084,0.072 -0.313874,0.1265 l -0.245072,0.09908 v 0.7426428 0.742642 l -1.133797,2.004552 c -0.623588,1.102503 -1.172534,2.049961 -1.21988,2.105463 -0.105437,0.123599 -0.317325,0.131135 -0.413938,0.01472 z"
     id="path4142"
     inkscape:connector-curvature="0" />
</svg>
