<?xml version="1.0" encoding="UTF-8" standalone="no"?>
<svg
   xmlns:dc="http://purl.org/dc/elements/1.1/"
   xmlns:cc="http://creativecommons.org/ns#"
   xmlns:rdf="http://www.w3.org/1999/02/22-rdf-syntax-ns#"
   xmlns:svg="http://www.w3.org/2000/svg"
   xmlns="http://www.w3.org/2000/svg"
   xmlns:sodipodi="http://sodipodi.sourceforge.net/DTD/sodipodi-0.dtd"
   xmlns:inkscape="http://www.inkscape.org/namespaces/inkscape"
   height="23px"
   version="1.1"
   viewBox="0 0 18 23"
   width="18px"
   id="svg4187"
   inkscape:version="0.92.3 (2405546, 2018-03-11)"
   sodipodi:docname="marker_albo_cret.svg"
   inkscape:export-filename="/home/marc/sigte/projectes_marc/mosquito/test.png"
   inkscape:export-xdpi="90"
   inkscape:export-ydpi="90">
  <metadata
     id="metadata4201">
    <rdf:RDF>
      <cc:Work
         rdf:about="">
        <dc:format>image/svg+xml</dc:format>
        <dc:type
           rdf:resource="http://purl.org/dc/dcmitype/StillImage" />
        <dc:title />
      </cc:Work>
    </rdf:RDF>
  </metadata>
  <sodipodi:namedview
     pagecolor="#ffffff"
     bordercolor="#666666"
     borderopacity="1"
     objecttolerance="10"
     gridtolerance="10"
     guidetolerance="10"
     inkscape:pageopacity="0"
     inkscape:pageshadow="2"
     inkscape:window-width="1533"
     inkscape:window-height="845"
     id="namedview4199"
     showgrid="false"
     inkscape:zoom="17.341851"
     inkscape:cx="-9.2085536"
     inkscape:cy="13.481144"
     inkscape:window-x="67"
     inkscape:window-y="27"
     inkscape:window-maximized="1"
     inkscape:current-layer="svg4187"
     inkscape:measure-start="0,0"
     inkscape:measure-end="0,0" />
  <desc
     id="desc4191" />
  <defs
     id="defs4193" />
  <g
     fill="none"
     fill-rule="evenodd"
     id="Page-1"
     stroke="none"
     stroke-width="1"
     style="fill:#6c5353;fill-opacity:1">
    <g
       fill="#000000"
       id="Icons-Communication"
       transform="translate(-211.000000, -82.000000)"
       style="fill:#6c5353;fill-opacity:1">
      <g
         id="live-help"
         transform="translate(211.000000, 82.500000)"
         style="fill:#6c5353;fill-opacity:1">
        <path
           d="M 16,0 2,0 C 0.9,0 0,0.9 0,2 l 0,14 c 0,1.1 0.9,2 2,2 l 4,0 3,3 3,-3 4,0 c 1.1,0 2,-0.9 2,-2 L 18,2 C 18,0.9 17.1,0 16,0 Z"
           id="Shape"
           inkscape:connector-curvature="0"
           sodipodi:nodetypes="csssscccssscc"
           style="fill:#6c5353;fill-opacity:1" />
      </g>
    </g>
  </g>
  <g
     transform="matrix(0.9108143,0,0,0.91204869,0.81911635,0.70838256)"
     style="fill:#e10f21;fill-rule:evenodd;stroke:none;stroke-width:1;fill-opacity:1"
     id="Page-1-0">
    <g
       style="fill:#e10f21;fill-opacity:1"
       id="Icons-Communication-6"
       transform="translate(-211,-82)">
      <g
         id="live-help-8"
         transform="translate(211,82.5)"
         style="fill:#e10f21;fill-opacity:1">
        <path
           d="M 1.3035862,0.06322466 C 0.20358616,0.06322466 0,0.9 0,2 v 14 c 0,1.1 0.9,2 2,2 H 6 L 9,21 9.087724,-0.08225372 C 5.693746,0.04080661 5.008842,-0.07632626 1.3035862,0.06322466 Z"
           id="Shape-7"
           inkscape:connector-curvature="0"
           sodipodi:nodetypes="cssscccc"
           style="fill:#e10f21;fill-opacity:1" />
      </g>
    </g>
  </g>
  <path
     d="m 16.163103,1.2220709 c 1.021427,0 1.210471,0.7631798 1.210471,1.7664334 V 15.757185 c 0,1.003254 -0.835713,1.824098 -1.85714,1.824098 h -3.71428 L 9.0164451,20.317429 8.9349875,1.0893875 c 3.1515455,0.112237 3.7875265,0.00541 7.2281155,0.1326834 z"
     id="Shape-7-3"
     inkscape:connector-curvature="0"
     sodipodi:nodetypes="cssscccc"
     style="fill:#c6c6c6;fill-opacity:1;fill-rule:evenodd;stroke:none;stroke-width:0.92027223" />
  <path
     style="fill:#ffffff;fill-opacity:1;stroke:#000000;stroke-width:0.02883198;stroke-miterlimit:4;stroke-dasharray:none;stroke-opacity:1"
     d="m 4.6604436,15.184925 c -0.039342,-0.0474 -0.058673,-0.135357 -0.042958,-0.195451 0.015715,-0.06009 0.5377532,-1.004966 1.1600852,-2.099717 L 6.9090834,10.899303 V 10.389909 9.8805155 L 5.6466136,11.142007 c -1.1408558,1.139972 -1.2768632,1.257879 -1.4118889,1.22399 -0.096509,-0.02422 -0.1626813,-0.09034 -0.1868713,-0.186723 -0.033458,-0.133307 0.050553,-0.237382 0.7877918,-0.975939 l 0.8252438,-0.826719 -0.6346441,0.03348 c -0.7034911,0.03711 -1.0916158,-0.02643 -1.5193358,-0.24875 -0.410907,-0.213579 -0.634304,-0.4525025 -0.634304,-0.6783885 0,-0.168589 0.418367,-0.531464 0.731462,-0.63444 0.152712,-0.05023 1.1575867,-0.260296 2.233055,-0.466821 C 6.9125906,8.1751725 7.8065632,7.9921545 7.823728,7.9749895 7.840893,7.9578195 7.5123759,7.6005135 7.0936903,7.1809645 L 6.3324439,6.4181475 v -0.861859 -0.86186 L 5.4674843,3.8229475 C 4.6195093,2.9685795 4.513326,2.8126315 4.6717215,2.6542365 c 0.1636093,-0.163609 0.3171645,-0.0564 1.2420222,0.867187 l 0.9376759,0.936384 v 0.866646 0.866645 l 0.6054717,0.603411 0.6054717,0.603411 v -0.624558 c 0,-0.722381 0.082295,-0.967181 0.3852227,-1.145913 l 0.191417,-0.112939 v -0.776559 c 0,-0.828391 0.042824,-0.999632 0.2499837,-0.999632 0.2429389,0 0.2689713,0.09168 0.2693565,0.948572 l 3.46e-4,0.810179 0.1714235,0.09754 c 0.3261976,0.185605 0.4040301,0.402739 0.4042711,1.12782 1.153e-4,0.356796 0.022178,0.64872 0.04902,0.64872 0.026842,0 0.2993035,-0.270136 0.6054705,-0.600302 l 0.556687,-0.600302 v -0.851763 -0.851762 l 0.934761,-0.940991 c 0.926323,-0.932498 1.078012,-1.038721 1.244938,-0.871794 0.16349,0.163489 0.0589,0.317337 -0.795763,1.170578 l -0.86496,0.863518 v 0.856257 0.856257 l -0.747139,0.785574 c -0.410927,0.432066 -0.7415089,0.791205 -0.7346259,0.798088 0.0069,0.0069 0.9041549,0.184385 1.9939399,0.394449 1.089785,0.210064 2.112417,0.431708 2.272517,0.492541 0.381861,0.145096 0.675147,0.428386 0.675147,0.652137 0,0.317049 -0.56936,0.7138285 -1.226585,0.8547865 -0.182139,0.03906 -0.550971,0.05151 -0.931605,0.03143 l -0.630094,-0.03324 0.817503,0.818963 c 0.535742,0.5367 0.817502,0.860999 0.817502,0.940925 0,0.167074 -0.142253,0.271629 -0.311703,0.229099 -0.07986,-0.02004 -0.643573,-0.556458 -1.309639,-1.246214 -0.643187,-0.666064 -1.190226,-1.2110245 -1.215644,-1.2110245 -0.02542,0 -0.04621,0.2143675 -0.04621,0.4763725 v 0.476372 l 1.15328,2.031436 c 0.634303,1.117291 1.15328,2.080416 1.15328,2.140278 0,0.146319 -0.137212,0.251359 -0.298227,0.228301 -0.106826,-0.0153 -0.356639,-0.414872 -1.327653,-2.123577 l -1.196068,-2.104735 -0.0018,-0.723725 -0.0018,-0.7237255 -0.261031,-0.126819 c -0.1435569,-0.06975 -0.2862754,-0.126814 -0.3171423,-0.126814 -0.035016,0 -0.056121,0.592407 -0.056121,1.5752935 0,1.820453 -0.038619,2.05206 -0.4029068,2.416348 C 8.9472213,13.707856 8.5240836,13.570509 8.2423707,12.969775 8.0918594,12.64882 8.0911143,12.640117 8.0728202,10.989564 8.0624382,10.052887 8.0317542,9.3317245 8.0022832,9.3317245 c -0.028689,0 -0.1696262,0.05707 -0.313193,0.126819 l -0.2610305,0.126818 v 0.7368055 0.736805 l -1.0722451,1.889831 c -1.3286198,2.341691 -1.3162057,2.322311 -1.4875591,2.322311 -0.074955,0 -0.1684698,-0.03879 -0.2078115,-0.08619 z"
     id="path4142"
     inkscape:connector-curvature="0" />
</svg>
