<?xml version="1.0" encoding="UTF-8" standalone="no"?>
<svg
   xmlns:dc="http://purl.org/dc/elements/1.1/"
   xmlns:cc="http://creativecommons.org/ns#"
   xmlns:rdf="http://www.w3.org/1999/02/22-rdf-syntax-ns#"
   xmlns:svg="http://www.w3.org/2000/svg"
   xmlns="http://www.w3.org/2000/svg"
   xmlns:sodipodi="http://sodipodi.sourceforge.net/DTD/sodipodi-0.dtd"
   xmlns:inkscape="http://www.inkscape.org/namespaces/inkscape"
   height="23px"
   version="1.1"
   viewBox="0 0 18 23"
   width="18px"
   id="svg4187"
   inkscape:version="0.91 r13725"
   sodipodi:docname="marker_site_dry_selected.svg"
   inkscape:export-filename="/home/marc/sigte/projectes_marc/mosquito/test.png"
   inkscape:export-xdpi="90"
   inkscape:export-ydpi="90">
  <metadata
     id="metadata4201">
    <rdf:RDF>
      <cc:Work
         rdf:about="">
        <dc:format>image/svg+xml</dc:format>
        <dc:type
           rdf:resource="http://purl.org/dc/dcmitype/StillImage" />
        <dc:title />
      </cc:Work>
    </rdf:RDF>
  </metadata>
  <sodipodi:namedview
     pagecolor="#ffffff"
     bordercolor="#666666"
     borderopacity="1"
     objecttolerance="10"
     gridtolerance="10"
     guidetolerance="10"
     inkscape:pageopacity="0"
     inkscape:pageshadow="2"
     inkscape:window-width="1680"
     inkscape:window-height="988"
     id="namedview4199"
     showgrid="false"
     inkscape:zoom="17.341851"
     inkscape:cx="-6.2622302"
     inkscape:cy="10.161842"
     inkscape:window-x="-8"
     inkscape:window-y="-8"
     inkscape:window-maximized="1"
     inkscape:current-layer="svg4187" />
  <desc
     id="desc4191" />
  <defs
     id="defs4193" />
  <path
     style="fill:#ffff00;fill-opacity:1;stroke:#000000;stroke-width:0.51831621;stroke-miterlimit:4;stroke-dasharray:none;stroke-opacity:1"
     d="M 8.7881369,22.399782 C 8.5251742,22.140962 7.2954669,20.730806 6.4652772,19.736062 4.4691803,17.344318 2.5164527,14.523365 1.4403995,12.477027 0.52633504,10.738739 0.35964731,10.11873 0.35964731,8.4570793 0.35964731,7.5970685 0.38549842,7.217091 0.46850092,6.85724 0.84657801,5.218069 1.6309668,3.8708673 2.8878908,2.7018939 4.1412133,1.5362716 5.6104181,0.79493758 7.371281,0.4396564 8.1165485,0.28928843 10.025433,0.28681697 10.76899,0.4352444 c 2.817589,0.56249516 5.068857,2.1867614 6.268204,4.5224455 0.990941,1.929822 1.129347,4.0877395 0.394908,6.1571571 -0.528122,1.488088 -2.49195,4.615419 -4.614657,7.348702 -1.31863,1.697918 -3.2824041,3.982091 -3.530339,4.106328 -0.1871906,0.09379 -0.2539679,0.07104 -0.4989691,-0.170107 z m 1.7646361,-9.687616 c 0.854824,-0.272026 1.305572,-0.531518 1.91507,-1.102483 0.620128,-0.580926 0.89644,-0.977493 1.15175,-1.6530046 C 14.068398,8.7692094 13.954371,7.4912829 13.293567,6.3027846 13.157317,6.0577279 12.890928,5.7519113 12.467933,5.3549447 11.924267,4.8447308 11.767936,4.7345799 11.259889,4.5037495 10.471245,4.1454302 9.9814087,4.0411202 9.0701361,4.0374418 8.208442,4.0339312 7.7816755,4.1222112 7.0315112,4.4590076 6.0170726,4.91445 5.2909411,5.5863819 4.8049157,6.5194084 4.4507162,7.1993679 4.3280191,7.697895 4.3280191,8.4570793 c 0,0.733115 0.117723,1.2339371 0.4404108,1.8736097 0.640141,1.268968 1.8589304,2.18337 3.3165084,2.488227 0.6843886,0.143145 1.8395906,0.09317 2.4678347,-0.106749 z"
     id="path5609"
     inkscape:connector-curvature="0" />
</svg>
