<?xml version="1.0" encoding="UTF-8" standalone="no"?>
<svg
   xmlns:dc="http://purl.org/dc/elements/1.1/"
   xmlns:cc="http://creativecommons.org/ns#"
   xmlns:rdf="http://www.w3.org/1999/02/22-rdf-syntax-ns#"
   xmlns:svg="http://www.w3.org/2000/svg"
   xmlns="http://www.w3.org/2000/svg"
   xmlns:sodipodi="http://sodipodi.sourceforge.net/DTD/sodipodi-0.dtd"
   xmlns:inkscape="http://www.inkscape.org/namespaces/inkscape"
   height="23px"
   version="1.1"
   viewBox="0 0 18 23"
   width="18px"
   id="svg4187"
   inkscape:version="0.92.3 (2405546, 2018-03-11)"
   sodipodi:docname="marker_mix_2_selected.svg"
   inkscape:export-filename="/home/marc/sigte/projectes_marc/mosquito/test.png"
   inkscape:export-xdpi="90"
   inkscape:export-ydpi="90">
  <metadata
     id="metadata4201">
    <rdf:RDF>
      <cc:Work
         rdf:about="">
        <dc:format>image/svg+xml</dc:format>
        <dc:type
           rdf:resource="http://purl.org/dc/dcmitype/StillImage" />
        <dc:title />
      </cc:Work>
    </rdf:RDF>
  </metadata>
  <sodipodi:namedview
     pagecolor="#ffffff"
     bordercolor="#666666"
     borderopacity="1"
     objecttolerance="10"
     gridtolerance="10"
     guidetolerance="10"
     inkscape:pageopacity="0"
     inkscape:pageshadow="2"
     inkscape:window-width="1533"
     inkscape:window-height="845"
     id="namedview4199"
     showgrid="false"
     inkscape:zoom="17.341851"
     inkscape:cx="-18.261797"
     inkscape:cy="13.481144"
     inkscape:window-x="67"
     inkscape:window-y="27"
     inkscape:window-maximized="1"
     inkscape:current-layer="svg4187"
     inkscape:measure-start="0,0"
     inkscape:measure-end="0,0" />
  <desc
     id="desc4191" />
  <defs
     id="defs4193" />
  <g
     fill="none"
     fill-rule="evenodd"
     id="Page-1"
     stroke="none"
     stroke-width="1"
     style="fill:#6c5353;fill-opacity:1">
    <g
       fill="#000000"
       id="Icons-Communication"
       transform="translate(-211.000000, -82.000000)"
       style="fill:#6c5353;fill-opacity:1">
      <g
         id="live-help"
         transform="translate(211.000000, 82.500000)"
         style="fill:#6c5353;fill-opacity:1">
        <path
           d="M 16,0 2,0 C 0.9,0 0,0.9 0,2 l 0,14 c 0,1.1 0.9,2 2,2 l 4,0 3,3 3,-3 4,0 c 1.1,0 2,-0.9 2,-2 L 18,2 C 18,0.9 17.1,0 16,0 Z"
           id="Shape"
           inkscape:connector-curvature="0"
           sodipodi:nodetypes="csssscccssscc"
           style="fill:#6c5353;fill-opacity:1" />
      </g>
    </g>
  </g>
  <g
     transform="matrix(0.9108143,0,0,0.91204869,0.81911635,0.70838256)"
     style="fill:#ffff00;fill-rule:evenodd;stroke:none;stroke-width:1;fill-opacity:1"
     id="Page-1-0">
    <g
       style="fill:#ffff00;fill-opacity:1"
       id="Icons-Communication-6"
       transform="translate(-211,-82)">
      <g
         id="live-help-8"
         transform="translate(211,82.5)"
         style="fill:#ffff00;fill-opacity:1">
        <path
           d="M 1.3035862,0.06322466 C 0.20358616,0.06322466 0,0.9 0,2 v 14 c 0,1.1 0.9,2 2,2 H 6 L 9,21 9.087724,-0.08225372 C 5.693746,0.04080661 5.008842,-0.07632626 1.3035862,0.06322466 Z"
           id="Shape-7"
           inkscape:connector-curvature="0"
           sodipodi:nodetypes="cssscccc"
           style="fill:#ffff00;fill-opacity:1" />
      </g>
    </g>
  </g>
  <path
     d="m 16.163103,1.2220709 c 1.021427,0 1.210471,0.7631798 1.210471,1.7664334 V 15.757185 c 0,1.003254 -0.835713,1.824098 -1.85714,1.824098 h -3.71428 L 9.0164451,20.317429 8.9349875,1.0893875 c 3.1515455,0.112237 3.7875265,0.00541 7.2281155,0.1326834 z"
     id="Shape-7-3"
     inkscape:connector-curvature="0"
     sodipodi:nodetypes="cssscccc"
     style="fill:#2472b6;fill-opacity:1;fill-rule:evenodd;stroke:none;stroke-width:0.92027223" />
  <path
     style="fill:#ffffff;fill-opacity:1;stroke:#000000;stroke-width:0.02883198;stroke-miterlimit:4;stroke-dasharray:none;stroke-opacity:1"
     d="m 4.6998686,15.184925 c -0.039342,-0.0474 -0.058673,-0.135357 -0.042958,-0.195451 0.015715,-0.06009 0.5377532,-1.004966 1.1600852,-2.099717 L 6.9485084,10.899303 V 10.389909 9.8805159 L 5.6860386,11.142007 c -1.1408558,1.139972 -1.2768632,1.257879 -1.4118889,1.22399 -0.096509,-0.02422 -0.1626813,-0.09034 -0.1868713,-0.186723 -0.033458,-0.133307 0.050553,-0.237382 0.7877918,-0.975939 L 5.700314,10.376616 5.0656699,10.410096 C 4.3621788,10.447209 3.9740541,10.383664 3.5463343,10.161346 3.1354274,9.9477669 2.9120306,9.7088439 2.9120306,9.4829579 c 0,-0.168589 0.4183666,-0.531464 0.7314611,-0.634441 0.1527122,-0.05023 1.1575871,-0.260296 2.2330554,-0.46682 C 6.9520156,8.1751727 7.8459882,7.9921544 7.863153,7.9749896 7.8803178,7.9578248 7.5518009,7.6005134 7.1331153,7.1809643 L 6.3718689,6.4181477 V 5.5562881 4.6944286 L 5.5069093,3.822948 C 4.6589343,2.9685801 4.552751,2.8126321 4.7111465,2.6542365 4.8747558,2.4906273 5.028311,2.5978404 5.9531687,3.5214239 L 6.8908446,4.457808 V 5.3244533 6.1910985 L 7.4963163,6.7945097 8.101788,7.3979208 V 6.7733621 c 0,-0.7223803 0.082295,-0.9671808 0.3852227,-1.1459126 L 8.6784277,5.5145107 V 4.737952 c 0,-0.828391 0.042824,-0.9996328 0.2499837,-0.9996328 0.2429389,0 0.2689713,0.091676 0.2693565,0.9485723 l 3.46e-4,0.8101788 0.1714235,0.097539 c 0.3261979,0.1856048 0.4040299,0.4027391 0.4042709,1.1278201 1.16e-4,0.3567958 0.02218,0.6487197 0.04902,0.6487197 0.02684,0 0.2993037,-0.2701357 0.6054707,-0.6003016 L 10.984986,6.1705459 V 5.3187836 4.4670213 L 11.919747,3.5260304 C 12.84607,2.5935329 12.997758,2.48731 13.164684,2.6542362 c 0.16349,0.1634896 0.0589,0.3173372 -0.795762,1.1705787 l -0.86496,0.8635175 V 5.5445897 6.400847 l -0.747139,0.7855736 c -0.410927,0.4320655 -0.741509,0.791205 -0.734626,0.7980876 0.0069,0.00688 0.904155,0.184385 1.99394,0.3944497 1.089784,0.210064 2.112416,0.431708 2.272516,0.49254 0.381861,0.145097 0.675147,0.428386 0.675147,0.652138 0,0.317049 -0.56936,0.7138281 -1.226585,0.8547861 -0.182139,0.03906 -0.550971,0.05151 -0.931604,0.03143 l -0.630094,-0.03324 0.817502,0.818963 c 0.535742,0.5367 0.817502,0.860999 0.817502,0.940925 0,0.167074 -0.142253,0.271629 -0.311703,0.229099 -0.07986,-0.02004 -0.643572,-0.556458 -1.309638,-1.246214 -0.643187,-0.666064 -1.190226,-1.2110241 -1.215644,-1.2110241 -0.02542,0 -0.04621,0.2143671 -0.04621,0.4763721 v 0.476372 l 1.15328,2.031436 c 0.634303,1.117291 1.153279,2.080416 1.153279,2.140278 0,0.146319 -0.137212,0.251359 -0.298227,0.228301 -0.106825,-0.0153 -0.356638,-0.414872 -1.327652,-2.123577 l -1.196068,-2.104735 -0.0018,-0.723725 -0.0018,-0.7237251 -0.261031,-0.126819 c -0.143557,-0.06975 -0.2862757,-0.126815 -0.3171427,-0.126815 -0.03502,0 -0.05612,0.592408 -0.05612,1.5752941 0,1.820453 -0.03862,2.05206 -0.4029064,2.416348 C 8.9866463,13.707856 8.5635086,13.570509 8.2817957,12.969775 8.1312844,12.64882 8.1305393,12.640117 8.1122452,10.989564 8.1018632,10.052887 8.0711792,9.3317239 8.0417082,9.3317239 c -0.028689,0 -0.1696262,0.05707 -0.313193,0.126819 l -0.2610309,0.126819 v 0.7368051 0.736805 l -1.0722451,1.889831 c -1.3286198,2.341691 -1.3162057,2.322311 -1.4875591,2.322311 -0.074955,0 -0.1684698,-0.03879 -0.2078115,-0.08619 z"
     id="path4142"
     inkscape:connector-curvature="0" />
</svg>
