<?xml version="1.0" encoding="UTF-8" standalone="no"?>
<svg
   xmlns:dc="http://purl.org/dc/elements/1.1/"
   xmlns:cc="http://creativecommons.org/ns#"
   xmlns:rdf="http://www.w3.org/1999/02/22-rdf-syntax-ns#"
   xmlns:svg="http://www.w3.org/2000/svg"
   xmlns="http://www.w3.org/2000/svg"
   xmlns:sodipodi="http://sodipodi.sourceforge.net/DTD/sodipodi-0.dtd"
   xmlns:inkscape="http://www.inkscape.org/namespaces/inkscape"
   height="23"
   version="1.1"
   viewBox="0 0 40 23"
   width="40"
   id="svg4187"
   inkscape:version="0.92.1 r15371"
   sodipodi:docname="marker_albopictus_all.svg"
   inkscape:export-filename="/home/marc/sigte/projectes_marc/mosquito/test.png"
   inkscape:export-xdpi="90"
   inkscape:export-ydpi="90">
  <metadata
     id="metadata4201">
    <rdf:RDF>
      <cc:Work
         rdf:about="">
        <dc:format>image/svg+xml</dc:format>
        <dc:type
           rdf:resource="http://purl.org/dc/dcmitype/StillImage" />
        <dc:title></dc:title>
      </cc:Work>
    </rdf:RDF>
  </metadata>
  <sodipodi:namedview
     pagecolor="#ffffff"
     bordercolor="#666666"
     borderopacity="1"
     objecttolerance="10"
     gridtolerance="10"
     guidetolerance="10"
     inkscape:pageopacity="0"
     inkscape:pageshadow="2"
     inkscape:window-width="1680"
     inkscape:window-height="988"
     id="namedview4199"
     showgrid="false"
     inkscape:zoom="17.341851"
     inkscape:cx="17.012876"
     inkscape:cy="13.10223"
     inkscape:window-x="-8"
     inkscape:window-y="-8"
     inkscape:window-maximized="1"
     inkscape:current-layer="svg4187" />
  <desc
     id="desc4191" />
  <defs
     id="defs4193" />
  <g
     transform="matrix(0.94305492,0,0,1.0043357,0.151104,0.04101204)"
     id="Page-1"
     style="fill:#800000;fill-rule:evenodd;stroke:none;stroke-width:1">
    <g
       id="Icons-Communication"
       transform="translate(-211,-82)"
       style="fill:#800000">
      <g
         id="live-help"
         transform="translate(211,82.5)"
         style="fill:#800000">
        <path
           d="M 16,0 H 2 C 0.9,0 0,0.9 0,2 v 14 c 0,1.1 0.9,2 2,2 h 4 l 3,3 3,-3 h 4 c 1.1,0 2,-0.9 2,-2 V 2 C 18,0.9 17.1,0 16,0 Z"
           id="Shape"
           inkscape:connector-curvature="0"
           sodipodi:nodetypes="csssscccssscc"
           style="fill:#800000;fill-opacity:1" />
      </g>
    </g>
  </g>
  <g
     transform="matrix(0.8589479,0,0,0.91600305,0.923576,0.75246585)"
     style="fill:#ff0000;fill-rule:evenodd;stroke:none;stroke-width:1"
     id="Page-1-0">
    <g
       style="fill:#ff0000"
       id="Icons-Communication-6"
       transform="translate(-211,-82)">
      <g
         id="live-help-8"
         transform="translate(211,82.5)"
         style="fill:#ff0000">
        <path
           d="M 16,0 H 2 C 0.9,0 0,0.9 0,2 v 14 c 0,1.1 0.9,2 2,2 h 4 l 3,3 3,-3 h 4 c 1.1,0 2,-0.9 2,-2 V 2 C 18,0.9 17.1,0 16,0 Z"
           id="Shape-7"
           inkscape:connector-curvature="0"
           sodipodi:nodetypes="csssscccssscc"
           style="fill:#ff0000;fill-opacity:1" />
      </g>
    </g>
  </g>
  <path
     inkscape:connector-curvature="0"
     d="M 13.333578,9.3129226 9.758293,8.582821 c -0.02178,-0.00405 -0.04191,-0.00583 -0.06313,-0.00932 l 1.363386,-1.4602024 c 0.05061,-0.054816 0.07946,-0.1288757 0.07946,-0.2064344 V 5.2781221 l 1.553335,-1.6643042 c 0.106132,-0.1137137 0.106132,-0.2985712 0,-0.4122849 -0.106132,-0.1137146 -0.278665,-0.1137146 -0.384796,0 l -1.6328,1.7494433 c -0.05117,0.054816 -0.08001,0.1288755 -0.08001,0.2064342 V 6.7861424 L 9.50521,7.9524382 V 6.906854 c 0,-0.3784629 -0.228591,-0.6997775 -0.544266,-0.8204891 V 4.5742628 c 0,-0.1603654 -0.122459,-0.2915743 -0.272133,-0.2915743 -0.149673,0 -0.272132,0.1312089 -0.272132,0.2915743 V 6.0863649 C 8.101004,6.2070765 7.872412,6.5283911 7.872412,6.906854 V 7.9524382 L 6.78388,6.7861424 V 5.1574105 c 0,-0.077558 -0.02885,-0.1516184 -0.07946,-0.2064342 L 5.071617,3.201533 c -0.106132,-0.1137146 -0.278665,-0.1137146 -0.384797,0 -0.106131,0.1137137 -0.106131,0.2985712 0,0.4122849 L 6.239612,5.2781221 V 6.906854 c 0,0.077558 0.02885,0.1516184 0.07946,0.2064344 l 1.363386,1.4607855 c -0.02177,0.00349 -0.04191,0.0047 -0.06368,0.00932 l -3.575286,0.72952 C 3.455685,9.4330424 2.974554,9.7934277 2.974009,10.11416 c -5.44e-4,0.32073 0.475144,0.710857 1.055877,0.865975 l 0.06477,0.01691 c 0.41473,0.110797 0.999817,0.09388 1.499998,-0.02157 l -1.452647,1.556419 c -0.106131,0.113714 -0.106131,0.298572 0,0.412286 0.05334,0.05714 0.123005,0.08572 0.192671,0.08572 0.06967,0 0.139332,-0.02858 0.19267,-0.08514 L 6.78388,10.52644 v 0.968026 L 4.642736,15.50944 c -0.07457,0.139371 -0.02939,0.317815 0.101234,0.39829 0.04245,0.02566 0.08926,0.0379 0.134978,0.0379 0.0947,0 0.186138,-0.05307 0.236755,-0.146952 l 2.177066,-4.082026 c 0.02286,-0.04374 0.03538,-0.09388 0.03538,-0.14462 v -1.368648 l 0.372277,-0.183692 c 0.05878,-0.029156 0.115928,-0.061818 0.171988,-0.095639 0,0 0,2.012444 0,2.814272 0,0.801828 0.36738,1.45787 0.816399,1.45787 0.44902,0 0.816399,-0.656042 0.816399,-1.45787 0,-0.801828 0,-2.814272 0,-2.814272 0.0566,0.03382 0.113208,0.066482 0.171988,0.095639 l 0.372278,0.183692 v 1.368648 c 0,0.05074 0.01198,0.100883 0.03538,0.14462 l 2.177064,4.082035 c 0.05061,0.09388 0.142597,0.146953 0.236756,0.146953 0.04627,0 0.09252,-0.01224 0.134979,-0.03791 0.130623,-0.08048 0.175797,-0.258335 0.101776,-0.39829 L 10.59374,11.494484 v -0.968025 l 2.256528,2.41773 c 0.05334,0.05714 0.123003,0.08572 0.192669,0.08572 0.06967,0 0.139334,-0.02858 0.19267,-0.08514 0.106132,-0.113714 0.106132,-0.298572 0,-0.412286 L 11.782961,10.97606 c 0.500181,0.115464 1.085267,0.132957 1.499998,0.02158 l 0.06477,-0.01691 c 0.58073,-0.155701 1.055876,-0.545827 1.055876,-0.866559 C 14.40306,9.7934345 13.921929,9.4330482 13.333578,9.3129196 Z"
     id="path4-9"
     style="fill:#ffff00;stroke-width:0.97321308" />
  <path
     style="fill:#ffffff;fill-opacity:1;stroke-width:24.33032799;stroke-miterlimit:4;stroke-dasharray:none"
     d="m 4.68321,15.813944 c -0.0371,-0.04761 -0.05515,-0.136707 -0.04009,-0.197996 0.01505,-0.06129 0.50736,-1.012477 1.094025,-2.113753 l 1.066661,-2.002319 v -0.50667 -0.50667 l -1.183224,1.259135 c -1.1691,1.244103 -1.311342,1.359176 -1.470534,1.18964 -0.15139,-0.161228 -0.05429,-0.317187 0.695394,-1.117017 l 0.76065,-0.81152 H 4.831843 c -0.753053,0 -0.783921,-0.0049 -1.127717,-0.179163 C 3.291565,10.618497 2.997182,10.323048 2.997182,10.118104 2.997182,9.9188871 3.363903,9.5633858 3.68699,9.4494019 3.831005,9.3985949 4.779327,9.1868998 5.79437,8.9789731 6.809414,8.7710464 7.65248,8.5875326 7.667849,8.5711635 7.683219,8.5547955 7.37274,8.1966479 6.977896,7.7752797 L 6.259998,7.0091558 V 6.1435594 5.2779631 L 5.444294,4.402704 C 4.644607,3.5446317 4.54447,3.388008 4.693845,3.228925 4.848138,3.0646069 4.992949,3.172289 5.865141,4.0998723 l 0.88428,0.9404443 V 5.9107194 6.7811221 L 7.320413,7.3871496 7.891407,7.9931768 V 7.3659102 c 0,-0.722192 0.0739,-0.958772 0.361448,-1.1570248 L 8.433863,6.0840849 8.434537,5.2703933 c 7.07e-4,-0.8536759 0.02621,-0.9526852 0.245384,-0.9526852 0.219251,0 0.244694,0.098913 0.245055,0.9526852 l 3.26e-4,0.8136916 0.161661,0.097962 c 0.309194,0.187362 0.381023,0.403302 0.38125,1.146154 L 9.468435,7.993177 10.039428,7.3871496 10.610421,6.7811222 V 5.9153459 5.0495698 l 0.881531,-0.9450706 c 0.873573,-0.9365405 1.016623,-1.0432244 1.174044,-0.8755742 0.15418,0.1641985 0.05555,0.3187131 -0.750448,1.1756537 l -0.815704,0.8672618 v 0.889765 0.889765 l -0.709981,0.7690965 -0.70998,0.7690965 0.642004,0.128341 c 2.214161,0.4426249 3.342066,0.6983548 3.529669,0.8002824 0.3177,0.1726105 0.511105,0.4026004 0.511105,0.6077851 0,0.236559 -0.332276,0.568349 -0.744734,0.743648 -0.275032,0.116892 -0.411056,0.13436 -1.056362,0.135662 l -0.74068,0.0015 0.727086,0.817701 c 0.436963,0.491419 0.727084,0.864109 0.727084,0.934009 0,0.158531 -0.135734,0.26627 -0.284789,0.226051 -0.06769,-0.01827 -0.636956,-0.582982 -1.265049,-1.254931 l -1.141986,-1.221723 -0.0159,0.474231 -0.01591,0.474234 1.089921,2.043526 c 0.599456,1.123939 1.08992,2.094623 1.08992,2.157074 0,0.150911 -0.127847,0.256904 -0.281682,0.233525 -0.101318,-0.0154 -0.334868,-0.412888 -1.253136,-2.132783 L 10.067835,11.643835 10.067232,10.916972 10.066628,10.19011 9.820462,10.062742 C 9.685068,9.992648 9.550477,9.9353318 9.521366,9.9353318 c -0.03302,0 -0.05292,0.5949772 -0.05292,1.5821232 0,1.828347 -0.03642,2.060958 -0.379965,2.426824 C 8.716459,14.340502 8.313406,14.195788 8.048191,13.570804 7.922782,13.275279 7.91806,13.211512 7.901912,11.595459 7.889282,10.330994 7.869472,9.9321855 7.820342,9.9530346 7.784662,9.9681866 7.651456,10.02536 7.524341,10.080084 l -0.231117,0.09952 v 0.745862 0.745862 l -1.069232,2.013243 c -0.588078,1.107282 -1.105764,2.058849 -1.150414,2.11459 -0.09943,0.124136 -0.299255,0.131704 -0.390367,0.01478 z"
     id="path4142"
     inkscape:connector-curvature="0" />
  <g
     transform="translate(21.467763,0.12122184)"
     id="Page-1-6"
     style="fill:#800000;fill-rule:evenodd;stroke:none;stroke-width:1">
    <g
       id="Icons-Communication-7"
       transform="translate(-211,-82)"
       style="fill:#800000">
      <g
         id="live-help-5"
         transform="translate(211,82.5)"
         style="fill:#800000">
        <path
           d="M 16,0 H 2 C 0.9,0 0,0.9 0,2 v 14 c 0,1.1 0.9,2 2,2 h 4 l 3,3 3,-3 h 4 c 1.1,0 2,-0.9 2,-2 V 2 C 18,0.9 17.1,0 16,0 Z"
           id="Shape-1"
           inkscape:connector-curvature="0"
           sodipodi:nodetypes="csssscccssscc"
           style="fill:#800000;fill-opacity:1" />
      </g>
    </g>
  </g>
  <g
     transform="matrix(0.9108143,0,0,0.91204869,22.286879,0.82960484)"
     style="fill:#ff0000;fill-rule:evenodd;stroke:none;stroke-width:1"
     id="Page-1-0-5">
    <g
       style="fill:#ff0000"
       id="Icons-Communication-6-9"
       transform="translate(-211,-82)">
      <g
         id="live-help-8-2"
         transform="translate(211,82.5)"
         style="fill:#ff0000">
        <path
           d="M 16,0 H 2 C 0.9,0 0,0.9 0,2 v 14 c 0,1.1 0.9,2 2,2 h 4 l 3,3 3,-3 h 4 c 1.1,0 2,-0.9 2,-2 V 2 C 18,0.9 17.1,0 16,0 Z"
           id="Shape-7-5"
           inkscape:connector-curvature="0"
           sodipodi:nodetypes="csssscccssscc"
           style="fill:#ff0000;fill-opacity:1" />
      </g>
    </g>
  </g>
</svg>
