<?xml version="1.0" encoding="UTF-8" standalone="no"?>
<svg
   xmlns:dc="http://purl.org/dc/elements/1.1/"
   xmlns:cc="http://creativecommons.org/ns#"
   xmlns:rdf="http://www.w3.org/1999/02/22-rdf-syntax-ns#"
   xmlns:svg="http://www.w3.org/2000/svg"
   xmlns="http://www.w3.org/2000/svg"
   xmlns:sodipodi="http://sodipodi.sourceforge.net/DTD/sodipodi-0.dtd"
   xmlns:inkscape="http://www.inkscape.org/namespaces/inkscape"
   height="23px"
   version="1.1"
   viewBox="0 0 18 23"
   width="18px"
   id="svg4187"
   inkscape:version="0.92.3 (2405546, 2018-03-11)"
   sodipodi:docname="marker_albo_cret_2_selected.svg"
   inkscape:export-filename="/home/marc/sigte/projectes_marc/mosquito/test.png"
   inkscape:export-xdpi="90"
   inkscape:export-ydpi="90">
  <metadata
     id="metadata4201">
    <rdf:RDF>
      <cc:Work
         rdf:about="">
        <dc:format>image/svg+xml</dc:format>
        <dc:type
           rdf:resource="http://purl.org/dc/dcmitype/StillImage" />
        <dc:title />
      </cc:Work>
    </rdf:RDF>
  </metadata>
  <sodipodi:namedview
     pagecolor="#ffffff"
     bordercolor="#666666"
     borderopacity="1"
     objecttolerance="10"
     gridtolerance="10"
     guidetolerance="10"
     inkscape:pageopacity="0"
     inkscape:pageshadow="2"
     inkscape:window-width="1533"
     inkscape:window-height="845"
     id="namedview4199"
     showgrid="false"
     inkscape:zoom="17.341851"
     inkscape:cx="-18.261797"
     inkscape:cy="13.481144"
     inkscape:window-x="67"
     inkscape:window-y="27"
     inkscape:window-maximized="1"
     inkscape:current-layer="svg4187"
     inkscape:measure-start="0,0"
     inkscape:measure-end="0,0" />
  <desc
     id="desc4191" />
  <defs
     id="defs4193" />
  <g
     fill="none"
     fill-rule="evenodd"
     id="Page-1"
     stroke="none"
     stroke-width="1"
     style="fill:#6c5353;fill-opacity:1">
    <g
       fill="#000000"
       id="Icons-Communication"
       transform="translate(-211.000000, -82.000000)"
       style="fill:#6c5353;fill-opacity:1">
      <g
         id="live-help"
         transform="translate(211.000000, 82.500000)"
         style="fill:#6c5353;fill-opacity:1">
        <path
           d="M 16,0 2,0 C 0.9,0 0,0.9 0,2 l 0,14 c 0,1.1 0.9,2 2,2 l 4,0 3,3 3,-3 4,0 c 1.1,0 2,-0.9 2,-2 L 18,2 C 18,0.9 17.1,0 16,0 Z"
           id="Shape"
           inkscape:connector-curvature="0"
           sodipodi:nodetypes="csssscccssscc"
           style="fill:#6c5353;fill-opacity:1" />
      </g>
    </g>
  </g>
  <g
     transform="matrix(0.9108143,0,0,0.91204869,0.81911635,0.70838256)"
     style="fill:#ffff00;fill-rule:evenodd;stroke:none;stroke-width:1;fill-opacity:1"
     id="Page-1-0">
    <g
       style="fill:#ffff00;fill-opacity:1"
       id="Icons-Communication-6"
       transform="translate(-211,-82)">
      <g
         id="live-help-8"
         transform="translate(211,82.5)"
         style="fill:#ffff00;fill-opacity:1">
        <path
           d="M 1.3035862,0.06322466 C 0.20358616,0.06322466 0,0.9 0,2 v 14 c 0,1.1 0.9,2 2,2 H 6 L 9,21 9.087724,-0.08225372 C 5.693746,0.04080661 5.008842,-0.07632626 1.3035862,0.06322466 Z"
           id="Shape-7"
           inkscape:connector-curvature="0"
           sodipodi:nodetypes="cssscccc"
           style="fill:#ffff00;fill-opacity:1" />
      </g>
    </g>
  </g>
  <path
     d="m 16.163103,1.2220709 c 1.021427,0 1.210471,0.7631798 1.210471,1.7664334 V 15.757185 c 0,1.003254 -0.835713,1.824098 -1.85714,1.824098 h -3.71428 L 9.0164451,20.317429 8.9349875,1.0893875 c 3.1515455,0.112237 3.7875265,0.00541 7.2281155,0.1326834 z"
     id="Shape-7-3"
     inkscape:connector-curvature="0"
     sodipodi:nodetypes="cssscccc"
     style="fill:#c6c6c6;fill-opacity:1;fill-rule:evenodd;stroke:none;stroke-width:0.92027223" />
  <path
     style="fill:#ffffff;fill-opacity:1;stroke:#000000;stroke-width:0.02883198;stroke-miterlimit:4;stroke-dasharray:none;stroke-opacity:1"
     d="m 4.6998684,15.184925 c -0.03934,-0.0474 -0.05867,-0.135357 -0.04296,-0.195451 0.01572,-0.06009 0.537753,-1.004966 1.160085,-2.099717 l 1.131513,-1.990455 V 10.389908 9.8805152 l -1.26247,1.2614908 c -1.140856,1.139972 -1.276863,1.257879 -1.411889,1.22399 -0.09651,-0.02422 -0.162681,-0.09034 -0.186871,-0.186723 -0.03346,-0.133307 0.05055,-0.237382 0.787792,-0.975939 l 0.825244,-0.826719 -0.634644,0.03348 c -0.703492,0.03711 -1.091616,-0.02643 -1.519336,-0.24875 -0.410907,-0.2135788 -0.634304,-0.4525018 -0.634304,-0.6783878 0,-0.168589 0.418367,-0.531463 0.731461,-0.63444 0.152713,-0.05023 1.157587,-0.260296 2.233056,-0.466821 1.075468,-0.206524 1.969441,-0.389542 1.986606,-0.406707 0.01716,-0.01716 -0.311352,-0.374476 -0.730038,-0.794025 L 6.3718674,6.4181472 V 5.5562881 4.6944286 L 5.5069074,3.822948 C 4.6589324,2.96858 4.5527494,2.812632 4.7111444,2.6542364 c 0.163609,-0.1636092 0.317165,-0.056396 1.242022,0.8671874 l 0.937676,0.9363842 v 0.8666453 0.8666449 l 0.605472,0.603411 0.605472,0.603412 v -0.624559 c 0,-0.72238 0.0823,-0.967181 0.385222,-1.145913 L 8.6784254,5.5145107 V 4.737952 c 0,-0.828391 0.04282,-0.9996328 0.249984,-0.9996328 0.242939,0 0.268971,0.091676 0.269357,0.9485723 l 3.46e-4,0.8101788 0.171423,0.097539 c 0.3261976,0.185605 0.4040301,0.402739 0.4042711,1.12782 1.153e-4,0.356796 0.022178,0.64872 0.04902,0.64872 0.026842,0 0.2993035,-0.270136 0.6054705,-0.600302 l 0.556687,-0.600301 V 5.3187836 4.4670213 l 0.934761,-0.940991 c 0.926323,-0.9324975 1.078012,-1.0387204 1.244938,-0.8717942 0.16349,0.1634896 0.0589,0.3173372 -0.795763,1.1705788 l -0.86496,0.8635175 v 0.8562573 0.8562575 l -0.747139,0.785573 c -0.410927,0.432066 -0.741509,0.791205 -0.734626,0.798088 0.0069,0.0069 0.904155,0.184385 1.99394,0.39445 1.089785,0.210064 2.112417,0.431707 2.272517,0.49254 0.381861,0.145096 0.675147,0.428386 0.675147,0.652137 0,0.317049 -0.56936,0.7138278 -1.226585,0.8547858 -0.182139,0.03906 -0.550971,0.05151 -0.931605,0.03143 l -0.630094,-0.03324 0.817503,0.818963 c 0.535742,0.5367 0.817502,0.860999 0.817502,0.940925 0,0.167074 -0.142253,0.271629 -0.311703,0.229099 -0.07986,-0.02004 -0.643573,-0.556458 -1.309639,-1.246214 -0.643187,-0.666064 -1.190226,-1.2110238 -1.215644,-1.2110238 -0.02542,0 -0.04621,0.2143668 -0.04621,0.4763718 v 0.476372 l 1.15328,2.031437 c 0.634303,1.117291 1.15328,2.080416 1.15328,2.140278 0,0.146319 -0.137212,0.251359 -0.298227,0.228301 -0.106826,-0.0153 -0.356639,-0.414872 -1.327653,-2.123577 l -1.196068,-2.104736 -0.0018,-0.723725 -0.0018,-0.7237248 -0.261031,-0.126818 c -0.143557,-0.06975 -0.2862754,-0.126815 -0.3171423,-0.126815 -0.035016,0 -0.056121,0.592407 -0.056121,1.5752928 0,1.820454 -0.038619,2.052061 -0.4029063,2.416349 -0.384491,0.38449 -0.807629,0.247143 -1.089342,-0.353591 -0.150511,-0.320955 -0.151256,-0.329658 -0.16955,-1.980212 -0.01038,-0.936677 -0.04107,-1.6578388 -0.07054,-1.6578388 -0.02869,0 -0.169626,0.05707 -0.313193,0.126819 l -0.26103,0.126818 v 0.7368048 0.736805 l -1.072245,1.889832 c -1.32862,2.341691 -1.316206,2.322311 -1.487559,2.322311 -0.07495,0 -0.16847,-0.03879 -0.207812,-0.08619 z"
     id="path4142"
     inkscape:connector-curvature="0" />
</svg>
