<?xml version="1.0" encoding="UTF-8" standalone="no"?>
<svg
   xmlns:dc="http://purl.org/dc/elements/1.1/"
   xmlns:cc="http://creativecommons.org/ns#"
   xmlns:rdf="http://www.w3.org/1999/02/22-rdf-syntax-ns#"
   xmlns:svg="http://www.w3.org/2000/svg"
   xmlns="http://www.w3.org/2000/svg"
   xmlns:sodipodi="http://sodipodi.sourceforge.net/DTD/sodipodi-0.dtd"
   xmlns:inkscape="http://www.inkscape.org/namespaces/inkscape"
   height="23"
   version="1.1"
   viewBox="0 0 40 23"
   width="40"
   id="svg4187"
   inkscape:version="0.92.1 r15371"
   sodipodi:docname="marker_aegypti_all.svg"
   inkscape:export-filename="/home/marc/sigte/projectes_marc/mosquito/test.png"
   inkscape:export-xdpi="90"
   inkscape:export-ydpi="90">
  <metadata
     id="metadata4201">
    <rdf:RDF>
      <cc:Work
         rdf:about="">
        <dc:format>image/svg+xml</dc:format>
        <dc:type
           rdf:resource="http://purl.org/dc/dcmitype/StillImage" />
        <dc:title></dc:title>
      </cc:Work>
    </rdf:RDF>
  </metadata>
  <sodipodi:namedview
     pagecolor="#ffffff"
     bordercolor="#666666"
     borderopacity="1"
     objecttolerance="10"
     gridtolerance="10"
     guidetolerance="10"
     inkscape:pageopacity="0"
     inkscape:pageshadow="2"
     inkscape:window-width="1680"
     inkscape:window-height="988"
     id="namedview4199"
     showgrid="false"
     inkscape:zoom="17.341851"
     inkscape:cx="17.012876"
     inkscape:cy="13.10223"
     inkscape:window-x="-8"
     inkscape:window-y="-8"
     inkscape:window-maximized="1"
     inkscape:current-layer="svg4187" />
  <desc
     id="desc4191" />
  <defs
     id="defs4193" />
  <g
     id="Page-1"
     style="fill:#004b00;fill-opacity:1;fill-rule:evenodd;stroke:none;stroke-width:1">
    <g
       id="Icons-Communication"
       transform="translate(-211,-82)"
       style="fill:#004b00;fill-opacity:1">
      <g
         id="live-help"
         transform="translate(211,82.5)"
         style="fill:#004b00;fill-opacity:1">
        <path
           d="M 16,0 H 2 C 0.9,0 0,0.9 0,2 v 14 c 0,1.1 0.9,2 2,2 h 4 l 3,3 3,-3 h 4 c 1.1,0 2,-0.9 2,-2 V 2 C 18,0.9 17.1,0 16,0 Z"
           id="Shape"
           inkscape:connector-curvature="0"
           sodipodi:nodetypes="csssscccssscc"
           style="fill:#004b00;fill-opacity:1" />
      </g>
    </g>
  </g>
  <g
     transform="matrix(0.9108143,0,0,0.91204869,0.81911635,0.70838256)"
     style="fill:#008000;fill-rule:evenodd;stroke:none;stroke-width:1"
     id="Page-1-0">
    <g
       style="fill:#008000"
       id="Icons-Communication-6"
       transform="translate(-211,-82)">
      <g
         id="live-help-8"
         transform="translate(211,82.5)"
         style="fill:#008000">
        <path
           d="M 16,0 H 2 C 0.9,0 0,0.9 0,2 v 14 c 0,1.1 0.9,2 2,2 h 4 l 3,3 3,-3 h 4 c 1.1,0 2,-0.9 2,-2 V 2 C 18,0.9 17.1,0 16,0 Z"
           id="Shape-7"
           inkscape:connector-curvature="0"
           sodipodi:nodetypes="csssscccssscc"
           style="fill:#008000;fill-opacity:1" />
      </g>
    </g>
  </g>
  <path
     inkscape:connector-curvature="0"
     d="M 13.978479,9.2318831 10.187306,8.5049338 c -0.02309,-0.00406 -0.04444,-0.00581 -0.06695,-0.00929 l 1.445713,-1.4538986 c 0.05367,-0.054579 0.08426,-0.1283193 0.08426,-0.2055432 V 5.2145013 L 13.29746,3.5573821 c 0.112541,-0.1132229 0.112541,-0.2972828 0,-0.4105057 -0.11254,-0.1132229 -0.295491,-0.1132229 -0.408031,0 L 11.15804,4.8887677 C 11.10379,4.9433467 11.0732,5.017087 11.0732,5.0943108 V 6.7160115 L 9.9189383,7.8772724 V 6.836202 c 0,-0.3768291 -0.242395,-0.6967565 -0.5771309,-0.816947 V 4.5136804 c 0,-0.1596734 -0.1298545,-0.2903152 -0.2885655,-0.2903152 -0.158711,0 -0.2885654,0.1306418 -0.2885654,0.2903152 V 6.019255 C 8.4299426,6.1394455 8.1875476,6.4593729 8.1875476,6.836202 V 7.8772724 L 7.0332858,6.7160115 V 5.0943108 c 0,-0.077224 -0.030588,-0.1509639 -0.084261,-0.2055431 L 5.2176321,3.1468764 c -0.1125406,-0.1132229 -0.295491,-0.1132229 -0.4080316,0 -0.1125405,0.1132229 -0.1125405,0.2972828 0,0.4105057 L 6.4561549,5.2145013 V 6.836202 c 0,0.077224 0.030588,0.1509639 0.084261,0.2055432 l 1.4457128,1.4544792 c -0.023085,0.00348 -0.044439,0.00465 -0.067524,0.00929 L 4.1274318,9.2318831 c -0.6233013,0.11961 -1.133485,0.4784395 -1.1340622,0.7977859 -5.771e-4,0.319347 0.5038353,0.707789 1.119634,0.862237 l 0.068678,0.01684 c 0.4397738,0.110319 1.0601895,0.09348 1.5905728,-0.02148 l -1.5403619,1.549702 c -0.1125405,0.113223 -0.1125405,0.297283 0,0.410506 0.056559,0.0569 0.1304316,0.08535 0.2043044,0.08535 0.073873,0 0.1477455,-0.02845 0.2043043,-0.08477 l 2.3927846,-2.407875 v 0.963847 l -2.2704329,3.997641 c -0.079067,0.13877 -0.031165,0.316443 0.1073464,0.39657 0.045016,0.02555 0.094649,0.03774 0.1431284,0.03774 0.1004208,0 0.1973788,-0.05284 0.251052,-0.146318 l 2.3085235,-4.064413 c 0.02424,-0.04355 0.037514,-0.09348 0.037514,-0.143997 V 10.11851 L 8.0051747,9.9356113 c 0.06233,-0.029032 0.1229289,-0.061547 0.1823734,-0.095223 0,0 0,2.0037557 0,2.8021227 0,0.798366 0.3895633,1.451576 0.8656963,1.451576 0.476133,0 0.8656964,-0.65321 0.8656964,-1.451576 0,-0.798367 0,-2.8021227 0,-2.8021227 0.060022,0.033676 0.1200432,0.066192 0.1823732,0.095223 l 0.394758,0.1828987 v 1.362739 c 0,0.05052 0.0127,0.100449 0.03751,0.143997 l 2.308523,4.064413 c 0.05367,0.09348 0.151208,0.146318 0.251052,0.146318 0.04906,0 0.09811,-0.01219 0.143129,-0.03774 0.138511,-0.08013 0.186413,-0.257219 0.107923,-0.39657 l -2.27101,-3.99764 V 10.44018 l 2.392785,2.407294 c 0.05656,0.0569 0.130431,0.08535 0.204304,0.08535 0.07387,0 0.147746,-0.02845 0.204304,-0.08477 0.112541,-0.113223 0.112541,-0.297283 0,-0.410506 L 12.33423,10.887844 c 0.530383,0.114965 1.150799,0.132384 1.590573,0.02148 l 0.06868,-0.01684 c 0.615797,-0.155028 1.119632,-0.54347 1.119632,-0.862817 -5.77e-4,-0.3193464 -0.510761,-0.6781759 -1.134639,-0.7977859 z"
     id="path4-9"
     style="fill:#ffff00" />
  <path
     style="fill:#ffffff;fill-opacity:1;stroke:#000000;stroke-width:0.02883198;stroke-miterlimit:4;stroke-dasharray:none;stroke-opacity:1"
     d="m 4.8057703,15.704839 c -0.039342,-0.0474 -0.058673,-0.135357 -0.042958,-0.195451 0.015715,-0.06009 0.5377532,-1.004966 1.1600852,-2.099717 L 7.0544101,11.419217 V 10.909823 10.40043 L 5.7919403,11.661921 C 4.6510845,12.801893 4.5150771,12.9198 4.3800514,12.885911 4.2835424,12.861688 4.2173701,12.795569 4.1931801,12.699188 4.159722,12.565881 4.2437327,12.461806 4.9809719,11.723249 L 5.8062157,10.89653 5.1715716,10.93001 C 4.4680805,10.967123 4.0799558,10.903578 3.652236,10.68126 3.2413291,10.467681 3.0179323,10.228758 3.0179323,10.002872 c 0,-0.1685889 0.4183666,-0.5314636 0.7314611,-0.6344405 C 3.9021056,9.3182044 4.9069805,9.1081357 5.9824488,8.9016111 7.0579173,8.6950871 7.9518899,8.5120688 7.9690547,8.494904 7.9862195,8.4777392 7.6577026,8.1204278 7.239017,7.7008787 L 6.4777706,6.9380621 V 6.0762025 5.214343 L 5.612811,4.3428624 C 4.764836,3.4884945 4.6586527,3.3325465 4.8170482,3.1741509 4.9806575,3.0105417 5.1342127,3.1177548 6.0590704,4.0413383 L 6.9967463,4.9777224 V 5.8443677 6.7110129 L 7.602218,7.3144241 8.2076897,7.9178352 V 7.2932765 c 0,-0.7223803 0.082295,-0.9671808 0.3852227,-1.1459126 L 8.7843294,6.0344251 V 5.2578664 c 0,-0.828391 0.042824,-0.9996328 0.2499837,-0.9996328 0.2429389,0 0.2689713,0.091676 0.2693565,0.9485723 l 3.46e-4,0.8101788 0.1714235,0.097539 c 0.3261976,0.1856048 0.4040301,0.4027391 0.4042711,1.1278201 1.153e-4,0.3567958 0.022178,0.6487197 0.04902,0.6487197 0.026842,0 0.2993038,-0.2701357 0.6054708,-0.6003016 L 11.090888,6.6904603 V 5.838698 4.9869357 l 0.934761,-0.9409909 c 0.926323,-0.9324975 1.078011,-1.0387204 1.244937,-0.8717942 0.16349,0.1634896 0.0589,0.3173372 -0.795762,1.1705787 l -0.86496,0.8635175 V 6.0645041 6.9207614 L 10.862725,7.706335 c -0.410927,0.4320655 -0.741509,0.791205 -0.734626,0.7980876 0.0069,0.00688 0.904155,0.184385 1.99394,0.3944497 1.089784,0.2100641 2.112416,0.4317077 2.272516,0.4925403 0.381861,0.1450964 0.675147,0.4283862 0.675147,0.6521374 0,0.317049 -0.56936,0.713828 -1.226585,0.854786 -0.182139,0.03906 -0.550971,0.05151 -0.931604,0.03143 l -0.630094,-0.03324 0.817502,0.818963 c 0.535742,0.5367 0.817502,0.860999 0.817502,0.940925 0,0.167074 -0.142253,0.271629 -0.311703,0.229099 -0.07986,-0.02004 -0.643572,-0.556458 -1.309638,-1.246214 -0.643187,-0.666064 -1.190226,-1.211024 -1.215644,-1.211024 -0.02542,0 -0.04621,0.214367 -0.04621,0.476372 v 0.476372 l 1.15328,2.031436 c 0.634303,1.117291 1.153279,2.080416 1.153279,2.140278 0,0.146319 -0.137212,0.251359 -0.298227,0.228301 -0.106825,-0.0153 -0.356638,-0.414872 -1.327652,-2.123577 L 10.51784,11.552722 10.51604,10.828997 10.51424,10.105272 10.253209,9.9784532 C 10.109652,9.9087071 9.9669333,9.8516388 9.9360664,9.8516388 c -0.035016,0 -0.056121,0.5924072 -0.056121,1.5752932 0,1.820453 -0.038619,2.05206 -0.4029068,2.416348 C 9.092548,14.22777 8.6694103,14.090423 8.3876974,13.489689 8.2371861,13.168734 8.236441,13.160031 8.2181469,11.509478 8.2077652,10.572801 8.1770813,9.8516388 8.1476095,9.8516388 c -0.028689,0 -0.1696262,0.057068 -0.313193,0.1268187 L 7.573386,10.105276 v 0.736805 0.736805 l -1.0722451,1.889831 c -1.3286198,2.341691 -1.3162057,2.322311 -1.4875591,2.322311 -0.074955,0 -0.1684698,-0.03879 -0.2078115,-0.08619 z"
     id="path4142"
     inkscape:connector-curvature="0" />
  <g
     transform="translate(21.570746,0.03647837)"
     id="Page-1-1"
     style="fill:#004b00;fill-opacity:1;fill-rule:evenodd;stroke:none;stroke-width:1">
    <g
       id="Icons-Communication-7"
       transform="translate(-211,-82)"
       style="fill:#004b00;fill-opacity:1">
      <g
         id="live-help-4"
         transform="translate(211,82.5)"
         style="fill:#004b00;fill-opacity:1">
        <path
           d="M 16,0 H 2 C 0.9,0 0,0.9 0,2 v 14 c 0,1.1 0.9,2 2,2 h 4 l 3,3 3,-3 h 4 c 1.1,0 2,-0.9 2,-2 V 2 C 18,0.9 17.1,0 16,0 Z"
           id="Shape-1"
           inkscape:connector-curvature="0"
           sodipodi:nodetypes="csssscccssscc"
           style="fill:#004b00;fill-opacity:1" />
      </g>
    </g>
  </g>
  <g
     transform="matrix(0.9108143,0,0,0.91204869,22.389862,0.74486037)"
     style="fill:#008000;fill-rule:evenodd;stroke:none;stroke-width:1"
     id="Page-1-0-2">
    <g
       style="fill:#008000"
       id="Icons-Communication-6-0"
       transform="translate(-211,-82)">
      <g
         id="live-help-8-4"
         transform="translate(211,82.5)"
         style="fill:#008000">
        <path
           d="M 16,0 H 2 C 0.9,0 0,0.9 0,2 v 14 c 0,1.1 0.9,2 2,2 h 4 l 3,3 3,-3 h 4 c 1.1,0 2,-0.9 2,-2 V 2 C 18,0.9 17.1,0 16,0 Z"
           id="Shape-7-6"
           inkscape:connector-curvature="0"
           sodipodi:nodetypes="csssscccssscc"
           style="fill:#008000;fill-opacity:1" />
      </g>
    </g>
  </g>
</svg>
