<?xml version="1.0" encoding="UTF-8" standalone="no"?>
<svg
   xmlns:dc="http://purl.org/dc/elements/1.1/"
   xmlns:cc="http://creativecommons.org/ns#"
   xmlns:rdf="http://www.w3.org/1999/02/22-rdf-syntax-ns#"
   xmlns:svg="http://www.w3.org/2000/svg"
   xmlns="http://www.w3.org/2000/svg"
   xmlns:sodipodi="http://sodipodi.sourceforge.net/DTD/sodipodi-0.dtd"
   xmlns:inkscape="http://www.inkscape.org/namespaces/inkscape"
   height="23px"
   version="1.1"
   viewBox="0 0 18 23"
   width="18px"
   id="svg4187"
   inkscape:version="0.91 r13725"
   sodipodi:docname="marker_noseparece.svg"
   inkscape:export-filename="/home/marc/sigte/projectes_marc/mosquito/test.png"
   inkscape:export-xdpi="90"
   inkscape:export-ydpi="90">
  <metadata
     id="metadata4201">
    <rdf:RDF>
      <cc:Work
         rdf:about="">
        <dc:format>image/svg+xml</dc:format>
        <dc:type
           rdf:resource="http://purl.org/dc/dcmitype/StillImage" />
        <dc:title />
      </cc:Work>
    </rdf:RDF>
  </metadata>
  <sodipodi:namedview
     pagecolor="#ffffff"
     bordercolor="#666666"
     borderopacity="1"
     objecttolerance="10"
     gridtolerance="10"
     guidetolerance="10"
     inkscape:pageopacity="0"
     inkscape:pageshadow="2"
     inkscape:window-width="1680"
     inkscape:window-height="988"
     id="namedview4199"
     showgrid="false"
     inkscape:zoom="17.341851"
     inkscape:cx="5.2091632"
     inkscape:cy="13.10223"
     inkscape:window-x="-8"
     inkscape:window-y="-8"
     inkscape:window-maximized="1"
     inkscape:current-layer="svg4187" />
  <desc
     id="desc4191" />
  <defs
     id="defs4193" />
  <g
     fill="none"
     fill-rule="evenodd"
     id="Page-1"
     stroke="none"
     stroke-width="1"
     style="fill:#000080;fill-opacity:1">
    <g
       fill="#000000"
       id="Icons-Communication"
       transform="translate(-211.000000, -82.000000)"
       style="fill:#000080;fill-opacity:1">
      <g
         id="live-help"
         transform="translate(211.000000, 82.500000)"
         style="fill:#000080;fill-opacity:1">
        <path
           d="M 16,0 2,0 C 0.9,0 0,0.9 0,2 l 0,14 c 0,1.1 0.9,2 2,2 l 4,0 3,3 3,-3 4,0 c 1.1,0 2,-0.9 2,-2 L 18,2 C 18,0.9 17.1,0 16,0 Z"
           id="Shape"
           inkscape:connector-curvature="0"
           sodipodi:nodetypes="csssscccssscc"
           style="fill:#000080;fill-opacity:1" />
      </g>
    </g>
  </g>
  <g
     transform="matrix(0.9108143,0,0,0.91204869,0.81911635,0.70838256)"
     style="fill:#0000ff;fill-rule:evenodd;stroke:none;stroke-width:1"
     id="Page-1-0">
    <g
       style="fill:#0000ff"
       id="Icons-Communication-6"
       transform="translate(-211,-82)">
      <g
         id="live-help-8"
         transform="translate(211,82.5)"
         style="fill:#0000ff">
        <path
           d="M 16,0 2,0 C 0.9,0 0,0.9 0,2 l 0,14 c 0,1.1 0.9,2 2,2 l 4,0 3,3 3,-3 4,0 c 1.1,0 2,-0.9 2,-2 L 18,2 C 18,0.9 17.1,0 16,0 Z"
           id="Shape-7"
           inkscape:connector-curvature="0"
           sodipodi:nodetypes="csssscccssscc"
           style="fill:#0000ff;fill-opacity:1" />
      </g>
    </g>
  </g>
  <path
     inkscape:connector-curvature="0"
     d="M 13.978479,9.2318831 10.187306,8.5049338 c -0.02309,-0.00406 -0.04444,-0.00581 -0.06695,-0.00929 l 1.445713,-1.4538986 c 0.05367,-0.054579 0.08426,-0.1283193 0.08426,-0.2055432 l 0,-1.6217007 1.647131,-1.6571192 c 0.112541,-0.1132229 0.112541,-0.2972828 0,-0.4105057 -0.11254,-0.1132229 -0.295491,-0.1132229 -0.408031,0 L 11.15804,4.8887677 c -0.05425,0.054579 -0.08484,0.1283193 -0.08484,0.2055431 l 0,1.6217007 -1.1542617,1.1612609 0,-1.0410704 c 0,-0.3768291 -0.242395,-0.6967565 -0.5771309,-0.816947 l 0,-1.5055746 c 0,-0.1596734 -0.1298545,-0.2903152 -0.2885655,-0.2903152 -0.158711,0 -0.2885654,0.1306418 -0.2885654,0.2903152 l 0,1.5055746 C 8.4299426,6.1394455 8.1875476,6.4593729 8.1875476,6.836202 l 0,1.0410704 -1.1542618,-1.1612609 0,-1.6217007 c 0,-0.077224 -0.030588,-0.1509639 -0.084261,-0.2055431 L 5.2176321,3.1468764 c -0.1125406,-0.1132229 -0.295491,-0.1132229 -0.4080316,0 -0.1125405,0.1132229 -0.1125405,0.2972828 0,0.4105057 l 1.6465544,1.6571192 0,1.6217007 c 0,0.077224 0.030588,0.1509639 0.084261,0.2055432 l 1.4457128,1.4544792 c -0.023085,0.00348 -0.044439,0.00465 -0.067524,0.00929 L 4.1274318,9.2318831 c -0.6233013,0.11961 -1.133485,0.4784395 -1.1340622,0.7977859 -5.771e-4,0.319347 0.5038353,0.707789 1.119634,0.862237 l 0.068678,0.01684 c 0.4397738,0.110319 1.0601895,0.09348 1.5905728,-0.02148 l -1.5403619,1.549702 c -0.1125405,0.113223 -0.1125405,0.297283 0,0.410506 0.056559,0.0569 0.1304316,0.08535 0.2043044,0.08535 0.073873,0 0.1477455,-0.02845 0.2043043,-0.08477 l 2.3927846,-2.407875 0,0.963847 -2.2704329,3.997641 c -0.079067,0.13877 -0.031165,0.316443 0.1073464,0.39657 0.045016,0.02555 0.094649,0.03774 0.1431284,0.03774 0.1004208,0 0.1973788,-0.05284 0.251052,-0.146318 l 2.3085235,-4.064413 c 0.02424,-0.04355 0.037514,-0.09348 0.037514,-0.143997 l 0,-1.362739 0.3947575,-0.1828987 c 0.06233,-0.029032 0.1229289,-0.061547 0.1823734,-0.095223 0,0 0,2.0037557 0,2.8021227 0,0.798366 0.3895633,1.451576 0.8656963,1.451576 0.476133,0 0.8656964,-0.65321 0.8656964,-1.451576 0,-0.798367 0,-2.8021227 0,-2.8021227 0.060022,0.033676 0.1200432,0.066192 0.1823732,0.095223 l 0.394758,0.1828987 0,1.362739 c 0,0.05052 0.0127,0.100449 0.03751,0.143997 l 2.308523,4.064413 c 0.05367,0.09348 0.151208,0.146318 0.251052,0.146318 0.04906,0 0.09811,-0.01219 0.143129,-0.03774 0.138511,-0.08013 0.186413,-0.257219 0.107923,-0.39657 l -2.27101,-3.99764 0,-0.963847 2.392785,2.407294 c 0.05656,0.0569 0.130431,0.08535 0.204304,0.08535 0.07387,0 0.147746,-0.02845 0.204304,-0.08477 0.112541,-0.113223 0.112541,-0.297283 0,-0.410506 l -1.540362,-1.549704 c 0.530383,0.114965 1.150799,0.132384 1.590573,0.02148 l 0.06868,-0.01684 c 0.615797,-0.155028 1.119632,-0.54347 1.119632,-0.862817 -5.77e-4,-0.3193464 -0.510761,-0.6781759 -1.134639,-0.7977859 z"
     id="path4-9"
     style="fill:#ffff00" />
  <path
     style="fill:#ffffff;fill-opacity:1;stroke:#000000;stroke-width:0.02883198;stroke-miterlimit:4;stroke-dasharray:none;stroke-opacity:1"
     d="m 4.8170482,15.721831 c -0.038058,-0.03806 -0.069197,-0.105512 -0.069197,-0.149898 0,-0.04439 0.5189758,-0.995439 1.1532795,-2.113451 l 1.1532794,-2.032751 0,-0.511409 0,-0.511409 -1.2571895,1.252458 c -0.6914542,0.688852 -1.2993973,1.252458 -1.3509845,1.252458 -0.1201183,0 -0.2750246,-0.154078 -0.2750246,-0.273554 0,-0.05078 0.3626094,-0.458051 0.8057987,-0.905051 l 0.8057986,-0.812725 -0.7913826,9.63e-4 c -0.7019211,8.51e-4 -0.8304943,-0.01467 -1.1373665,-0.137338 -0.3847636,-0.153798 -0.8361276,-0.55515 -0.8361276,-0.743482 0,-0.06517 0.063787,-0.1942975 0.1417494,-0.2869502 C 3.421905,9.4380573 3.85224,9.3083231 5.9516866,8.9079789 7.0419508,8.7000758 7.9488979,8.5150608 7.9671244,8.4968343 7.9853509,8.4786078 7.6577026,8.1204278 7.239017,7.7008787 l -0.7612464,-0.7628166 0,-0.8618596 0,-0.8618595 L 5.612811,4.3428624 C 4.764836,3.4884945 4.6586527,3.3325465 4.8170482,3.1741509 4.9806575,3.0105417 5.1342127,3.1177548 6.0590704,4.0413383 l 0.9376759,0.9363841 0,0.8666453 0,0.8666452 0.6054717,0.6034112 0.6054717,0.6034111 0,-0.6006515 c 0,-0.6898619 0.1062224,-1.0000048 0.4024229,-1.1749748 l 0.1742168,-0.1029124 0,-0.7789944 c 0,-0.8307863 0.04273,-1.0020685 0.2499837,-1.0020685 0.243105,0 0.2689921,0.091478 0.2689921,0.9505555 l 0,0.812162 0.177409,0.104798 c 0.3285964,0.1941069 0.398774,0.3904894 0.399015,1.116595 1.154e-4,0.3567958 0.020164,0.6487197 0.044545,0.6487197 0.024381,0 0.2968438,-0.2534649 0.6054718,-0.5632554 l 0.561142,-0.5632553 0,-0.8888085 0,-0.8888086 0.934761,-0.9409909 c 0.926323,-0.9324975 1.078011,-1.0387204 1.244937,-0.8717942 0.16349,0.1634896 0.0589,0.3173372 -0.795762,1.1705787 l -0.86496,0.8635175 0,0.8649075 0,0.8649075 -0.761246,0.7628166 c -0.418686,0.4195491 -0.747712,0.7763515 -0.731169,0.7928942 0.01654,0.016543 0.908142,0.1983673 1.981333,0.4040548 1.07319,0.2056868 2.073234,0.4144915 2.222318,0.4640093 0.361314,0.1200091 0.748602,0.4531662 0.748602,0.643969 0,0.224603 -0.193006,0.444257 -0.559332,0.63656 -0.498266,0.261564 -0.858091,0.326483 -1.594307,0.287644 l -0.634644,-0.03348 0.817502,0.818963 c 0.516108,0.517031 0.817501,0.862279 0.817501,0.936453 0,0.145841 -0.104844,0.255883 -0.243798,0.255883 -0.06109,0 -0.617054,-0.521214 -1.32243,-1.239775 -0.669364,-0.681877 -1.239512,-1.239775 -1.266997,-1.239775 -0.02749,0 -0.04997,0.216885 -0.04997,0.481968 l 0,0.481967 1.15328,2.027427 c 0.634302,1.115085 1.153279,2.075692 1.153279,2.134683 0,0.143806 -0.137621,0.249843 -0.294245,0.226714 -0.101312,-0.01496 -0.374801,-0.452496 -1.327378,-2.123577 l -1.199776,-2.104735 -0.0021,-0.723725 -0.0021,-0.723725 -0.261031,-0.1268185 C 10.109652,9.9087071 9.9669333,9.8516388 9.9360664,9.8516388 c -0.035016,0 -0.056121,0.5924072 -0.056121,1.5752932 0,1.809625 -0.035279,2.023242 -0.396919,2.403405 C 9.1073261,14.22528 8.6948367,14.1007 8.4017254,13.503763 L 8.2365217,13.167317 8.2181469,11.509478 c -0.010382,-0.936677 -0.041066,-1.6578392 -0.070537,-1.6578392 -0.028689,0 -0.1696262,0.057068 -0.313193,0.1268187 l -0.2610305,0.1268185 0,0.729699 0,0.7297 -1.158706,2.041096 c -0.6372883,1.122603 -1.1853901,2.073533 -1.218004,2.113177 -0.075324,0.09156 -0.2893258,0.09319 -0.3796278,0.0029 z"
     id="path4142"
     inkscape:connector-curvature="0" />
</svg>
