<?xml version="1.0" encoding="UTF-8" standalone="no"?>
<svg
   xmlns:dc="http://purl.org/dc/elements/1.1/"
   xmlns:cc="http://creativecommons.org/ns#"
   xmlns:rdf="http://www.w3.org/1999/02/22-rdf-syntax-ns#"
   xmlns:svg="http://www.w3.org/2000/svg"
   xmlns="http://www.w3.org/2000/svg"
   xmlns:sodipodi="http://sodipodi.sourceforge.net/DTD/sodipodi-0.dtd"
   xmlns:inkscape="http://www.inkscape.org/namespaces/inkscape"
   height="23px"
   version="1.1"
   viewBox="0 0 18 23"
   width="18px"
   id="svg4187"
   inkscape:version="0.92.3 (2405546, 2018-03-11)"
   sodipodi:docname="marker_albo_cret_1_selected.svg"
   inkscape:export-filename="/home/marc/sigte/projectes_marc/mosquito/test.png"
   inkscape:export-xdpi="90"
   inkscape:export-ydpi="90">
  <metadata
     id="metadata4201">
    <rdf:RDF>
      <cc:Work
         rdf:about="">
        <dc:format>image/svg+xml</dc:format>
        <dc:type
           rdf:resource="http://purl.org/dc/dcmitype/StillImage" />
        <dc:title />
      </cc:Work>
    </rdf:RDF>
  </metadata>
  <sodipodi:namedview
     pagecolor="#ffffff"
     bordercolor="#666666"
     borderopacity="1"
     objecttolerance="10"
     gridtolerance="10"
     guidetolerance="10"
     inkscape:pageopacity="0"
     inkscape:pageshadow="2"
     inkscape:window-width="1533"
     inkscape:window-height="845"
     id="namedview4199"
     showgrid="false"
     inkscape:zoom="17.341851"
     inkscape:cx="-9.2085536"
     inkscape:cy="13.481144"
     inkscape:window-x="67"
     inkscape:window-y="27"
     inkscape:window-maximized="1"
     inkscape:current-layer="svg4187"
     inkscape:measure-start="0,0"
     inkscape:measure-end="0,0" />
  <desc
     id="desc4191" />
  <defs
     id="defs4193" />
  <g
     fill="none"
     fill-rule="evenodd"
     id="Page-1"
     stroke="none"
     stroke-width="1"
     style="fill:#6c5353;fill-opacity:1">
    <g
       fill="#000000"
       id="Icons-Communication"
       transform="translate(-211.000000, -82.000000)"
       style="fill:#6c5353;fill-opacity:1">
      <g
         id="live-help"
         transform="translate(211.000000, 82.500000)"
         style="fill:#6c5353;fill-opacity:1">
        <path
           d="M 16,0 2,0 C 0.9,0 0,0.9 0,2 l 0,14 c 0,1.1 0.9,2 2,2 l 4,0 3,3 3,-3 4,0 c 1.1,0 2,-0.9 2,-2 L 18,2 C 18,0.9 17.1,0 16,0 Z"
           id="Shape"
           inkscape:connector-curvature="0"
           sodipodi:nodetypes="csssscccssscc"
           style="fill:#6c5353;fill-opacity:1" />
      </g>
    </g>
  </g>
  <g
     transform="matrix(0.9108143,0,0,0.91204869,0.81911635,0.70838256)"
     style="fill:#ffff00;fill-rule:evenodd;stroke:none;stroke-width:1;fill-opacity:1"
     id="Page-1-0">
    <g
       style="fill:#ffff00;fill-opacity:1"
       id="Icons-Communication-6"
       transform="translate(-211,-82)">
      <g
         id="live-help-8"
         transform="translate(211,82.5)"
         style="fill:#ffff00;fill-opacity:1">
        <path
           d="M 1.3035862,0.06322466 C 0.20358616,0.06322466 0,0.9 0,2 v 14 c 0,1.1 0.9,2 2,2 H 6 L 9,21 9.087724,-0.08225372 C 5.693746,0.04080661 5.008842,-0.07632626 1.3035862,0.06322466 Z"
           id="Shape-7"
           inkscape:connector-curvature="0"
           sodipodi:nodetypes="cssscccc"
           style="fill:#ffff00;fill-opacity:1" />
      </g>
    </g>
  </g>
  <path
     d="m 16.163103,1.2220709 c 1.021427,0 1.210471,0.7631798 1.210471,1.7664334 V 15.757185 c 0,1.003254 -0.835713,1.824098 -1.85714,1.824098 h -3.71428 L 9.0164451,20.317429 8.9349875,1.0893875 c 3.1515455,0.112237 3.7875265,0.00541 7.2281155,0.1326834 z"
     id="Shape-7-3"
     inkscape:connector-curvature="0"
     sodipodi:nodetypes="cssscccc"
     style="fill:#c6c6c6;fill-opacity:1;fill-rule:evenodd;stroke:none;stroke-width:0.92027223" />
  <path
     style="fill:#ffffff;fill-opacity:1;stroke:#000000;stroke-width:0.02883198;stroke-miterlimit:4;stroke-dasharray:none;stroke-opacity:1"
     d="m 4.7575326,15.357917 c -0.03934,-0.0474 -0.05867,-0.135357 -0.04296,-0.195451 0.01572,-0.06009 0.537753,-1.004966 1.160085,-2.099717 l 1.131513,-1.990454 v -0.509394 -0.509393 l -1.26247,1.261491 c -1.140856,1.139972 -1.276863,1.257879 -1.411889,1.22399 -0.09651,-0.02422 -0.162681,-0.09034 -0.186871,-0.186723 -0.03346,-0.133307 0.05055,-0.237382 0.787792,-0.975939 l 0.825243,-0.826719 -0.634644,0.03348 c -0.703491,0.03711 -1.091616,-0.02643 -1.519335,-0.24875 -0.410907,-0.213579 -0.634304,-0.4525024 -0.634304,-0.6783884 0,-0.168589 0.418367,-0.531464 0.731461,-0.634441 0.152712,-0.05023 1.157587,-0.260295 2.233055,-0.46682 1.075469,-0.206524 1.969442,-0.389542 1.986606,-0.406707 0.01716,-0.01716 -0.311352,-0.374476 -0.730037,-0.794025 l -0.761247,-0.762817 v -0.86186 -0.861859 l -0.864959,-0.871481 c -0.847975,-0.854368 -0.954159,-1.010316 -0.795763,-1.168711 0.163609,-0.16361 0.317164,-0.0564 1.242022,0.867187 l 0.937676,0.936384 v 0.866646 0.866645 l 0.605472,0.603411 0.605471,0.603411 v -0.624559 c 0,-0.72238 0.0823,-0.96718 0.385223,-1.145912 l 0.191417,-0.112939 v -0.776559 c 0,-0.828391 0.04282,-0.999633 0.249984,-0.999633 0.242939,0 0.268971,0.09168 0.269356,0.948573 l 3.46e-4,0.810179 0.171424,0.09754 c 0.326197,0.185604 0.40403,0.402739 0.404271,1.12782 1.15e-4,0.356795 0.02218,0.648719 0.04902,0.648719 0.02684,0 0.2993044,-0.270135 0.6054714,-0.600301 l 0.556686,-0.600302 v -0.851762 -0.851762 l 0.934761,-0.940991 c 0.926323,-0.932498 1.078012,-1.038721 1.244938,-0.871795 0.16349,0.16349 0.0589,0.317338 -0.795763,1.170579 l -0.86496,0.863518 v 0.856257 0.856257 l -0.747138,0.785574 c -0.410927,0.432065 -0.741509,0.791205 -0.734626,0.798087 0.0069,0.0069 0.904155,0.184385 1.993939,0.39445 1.089785,0.210064 2.112417,0.431708 2.272517,0.49254 0.381861,0.145097 0.675147,0.428387 0.675147,0.652138 0,0.3170494 -0.56936,0.7138284 -1.226585,0.8547864 -0.182139,0.03906 -0.550971,0.05151 -0.931605,0.03143 l -0.630094,-0.03324 0.817503,0.818963 c 0.535742,0.5367 0.817502,0.860999 0.817502,0.940925 0,0.167074 -0.142253,0.271629 -0.311703,0.229099 -0.07986,-0.02004 -0.643573,-0.556458 -1.309639,-1.246214 -0.643187,-0.666064 -1.190226,-1.211024 -1.215644,-1.211024 -0.02542,0 -0.04621,0.214367 -0.04621,0.476372 v 0.476372 l 1.15328,2.031436 c 0.634303,1.117291 1.153279,2.080416 1.153279,2.140278 0,0.146319 -0.137212,0.251359 -0.298227,0.228301 -0.106825,-0.0153 -0.356638,-0.414872 -1.327652,-2.123577 L 10.4696,11.205801 10.4678,10.482076 10.466,9.7583506 10.204969,9.6315316 c -0.143557,-0.06975 -0.2862757,-0.126814 -0.3171427,-0.126814 -0.03502,0 -0.05612,0.5924074 -0.05612,1.5752934 0,1.820453 -0.03862,2.05206 -0.402907,2.416348 -0.38449,0.38449 -0.807628,0.247143 -1.089341,-0.353591 -0.150511,-0.320955 -0.151256,-0.329658 -0.16955,-1.980211 -0.01038,-0.936677 -0.04107,-1.6578394 -0.07054,-1.6578394 -0.02869,0 -0.169626,0.05707 -0.313193,0.126818 l -0.26103,0.126819 v 0.7368054 0.736805 l -1.072245,1.889831 c -1.32862,2.341691 -1.316206,2.322311 -1.48756,2.322311 -0.07495,0 -0.168469,-0.03879 -0.207811,-0.08619 z"
     id="path4142"
     inkscape:connector-curvature="0" />
</svg>
