<?xml version="1.0" encoding="UTF-8" standalone="no"?>
<svg
   xmlns:dc="http://purl.org/dc/elements/1.1/"
   xmlns:cc="http://creativecommons.org/ns#"
   xmlns:rdf="http://www.w3.org/1999/02/22-rdf-syntax-ns#"
   xmlns:svg="http://www.w3.org/2000/svg"
   xmlns="http://www.w3.org/2000/svg"
   xmlns:sodipodi="http://sodipodi.sourceforge.net/DTD/sodipodi-0.dtd"
   xmlns:inkscape="http://www.inkscape.org/namespaces/inkscape"
   height="23px"
   version="1.1"
   viewBox="0 0 18 23"
   width="18px"
   id="svg4187"
   inkscape:version="0.91 r13725"
   sodipodi:docname="marker_aegypti_2_seleted.svg"
   inkscape:export-filename="/home/marc/sigte/projectes_marc/mosquito/test.png"
   inkscape:export-xdpi="90"
   inkscape:export-ydpi="90">
  <metadata
     id="metadata4201">
    <rdf:RDF>
      <cc:Work
         rdf:about="">
        <dc:format>image/svg+xml</dc:format>
        <dc:type
           rdf:resource="http://purl.org/dc/dcmitype/StillImage" />
        <dc:title></dc:title>
      </cc:Work>
    </rdf:RDF>
  </metadata>
  <sodipodi:namedview
     pagecolor="#ffffff"
     bordercolor="#666666"
     borderopacity="1"
     objecttolerance="10"
     gridtolerance="10"
     guidetolerance="10"
     inkscape:pageopacity="0"
     inkscape:pageshadow="2"
     inkscape:window-width="1366"
     inkscape:window-height="719"
     id="namedview4199"
     showgrid="false"
     inkscape:zoom="17.341851"
     inkscape:cx="-0.96088172"
     inkscape:cy="12.986902"
     inkscape:window-x="0"
     inkscape:window-y="25"
     inkscape:window-maximized="1"
     inkscape:current-layer="svg4187" />
  <desc
     id="desc4191" />
  <defs
     id="defs4193" />
  <g
     fill="none"
     fill-rule="evenodd"
     id="Page-1"
     stroke="none"
     stroke-width="1"
     style="fill:#004b00;fill-opacity:1">
    <g
       fill="#000000"
       id="Icons-Communication"
       transform="translate(-211.000000, -82.000000)"
       style="fill:#004b00;fill-opacity:1">
      <g
         id="live-help"
         transform="translate(211.000000, 82.500000)"
         style="fill:#004b00;fill-opacity:1">
        <path
           d="M 16,0 2,0 C 0.9,0 0,0.9 0,2 l 0,14 c 0,1.1 0.9,2 2,2 l 4,0 3,3 3,-3 4,0 c 1.1,0 2,-0.9 2,-2 L 18,2 C 18,0.9 17.1,0 16,0 Z"
           id="Shape"
           inkscape:connector-curvature="0"
           sodipodi:nodetypes="csssscccssscc"
           style="fill:#004b00;fill-opacity:1" />
      </g>
    </g>
  </g>
  <g
     transform="matrix(0.9108143,0,0,0.91204869,0.81911635,0.70838256)"
     style="fill:#ffff00;fill-rule:evenodd;stroke:none;stroke-width:1;fill-opacity:1"
     id="Page-1-0">
    <g
       style="fill:#ffff00;fill-opacity:1"
       id="Icons-Communication-6"
       transform="translate(-211,-82)">
      <g
         id="live-help-8"
         transform="translate(211,82.5)"
         style="fill:#ffff00;fill-opacity:1">
        <path
           d="M 16,0 2,0 C 0.9,0 0,0.9 0,2 l 0,14 c 0,1.1 0.9,2 2,2 l 4,0 3,3 3,-3 4,0 c 1.1,0 2,-0.9 2,-2 L 18,2 C 18,0.9 17.1,0 16,0 Z"
           id="Shape-7"
           inkscape:connector-curvature="0"
           sodipodi:nodetypes="csssscccssscc"
           style="fill:#ffff00;fill-opacity:1" />
      </g>
    </g>
  </g>
  <path
     inkscape:connector-curvature="0"
     d="M 13.978479,9.2318831 10.187306,8.5049338 c -0.02309,-0.00406 -0.04444,-0.00581 -0.06695,-0.00929 l 1.445713,-1.4538986 c 0.05367,-0.054579 0.08426,-0.1283193 0.08426,-0.2055432 l 0,-1.6217007 1.647131,-1.6571192 c 0.112541,-0.1132229 0.112541,-0.2972828 0,-0.4105057 -0.11254,-0.1132229 -0.295491,-0.1132229 -0.408031,0 L 11.15804,4.8887677 c -0.05425,0.054579 -0.08484,0.1283193 -0.08484,0.2055431 l 0,1.6217007 -1.1542617,1.1612609 0,-1.0410704 c 0,-0.3768291 -0.242395,-0.6967565 -0.5771309,-0.816947 l 0,-1.5055746 c 0,-0.1596734 -0.1298545,-0.2903152 -0.2885655,-0.2903152 -0.158711,0 -0.2885654,0.1306418 -0.2885654,0.2903152 l 0,1.5055746 C 8.4299426,6.1394455 8.1875476,6.4593729 8.1875476,6.836202 l 0,1.0410704 -1.1542618,-1.1612609 0,-1.6217007 c 0,-0.077224 -0.030588,-0.1509639 -0.084261,-0.2055431 L 5.2176321,3.1468764 c -0.1125406,-0.1132229 -0.295491,-0.1132229 -0.4080316,0 -0.1125405,0.1132229 -0.1125405,0.2972828 0,0.4105057 l 1.6465544,1.6571192 0,1.6217007 c 0,0.077224 0.030588,0.1509639 0.084261,0.2055432 l 1.4457128,1.4544792 c -0.023085,0.00348 -0.044439,0.00465 -0.067524,0.00929 L 4.1274318,9.2318831 c -0.6233013,0.11961 -1.133485,0.4784395 -1.1340622,0.7977859 -5.771e-4,0.319347 0.5038353,0.707789 1.119634,0.862237 l 0.068678,0.01684 c 0.4397738,0.110319 1.0601895,0.09348 1.5905728,-0.02148 l -1.5403619,1.549702 c -0.1125405,0.113223 -0.1125405,0.297283 0,0.410506 0.056559,0.0569 0.1304316,0.08535 0.2043044,0.08535 0.073873,0 0.1477455,-0.02845 0.2043043,-0.08477 l 2.3927846,-2.407875 0,0.963847 -2.2704329,3.997641 c -0.079067,0.13877 -0.031165,0.316443 0.1073464,0.39657 0.045016,0.02555 0.094649,0.03774 0.1431284,0.03774 0.1004208,0 0.1973788,-0.05284 0.251052,-0.146318 l 2.3085235,-4.064413 c 0.02424,-0.04355 0.037514,-0.09348 0.037514,-0.143997 l 0,-1.362739 0.3947575,-0.1828987 c 0.06233,-0.029032 0.1229289,-0.061547 0.1823734,-0.095223 0,0 0,2.0037557 0,2.8021227 0,0.798366 0.3895633,1.451576 0.8656963,1.451576 0.476133,0 0.8656964,-0.65321 0.8656964,-1.451576 0,-0.798367 0,-2.8021227 0,-2.8021227 0.060022,0.033676 0.1200432,0.066192 0.1823732,0.095223 l 0.394758,0.1828987 0,1.362739 c 0,0.05052 0.0127,0.100449 0.03751,0.143997 l 2.308523,4.064413 c 0.05367,0.09348 0.151208,0.146318 0.251052,0.146318 0.04906,0 0.09811,-0.01219 0.143129,-0.03774 0.138511,-0.08013 0.186413,-0.257219 0.107923,-0.39657 l -2.27101,-3.99764 0,-0.963847 2.392785,2.407294 c 0.05656,0.0569 0.130431,0.08535 0.204304,0.08535 0.07387,0 0.147746,-0.02845 0.204304,-0.08477 0.112541,-0.113223 0.112541,-0.297283 0,-0.410506 l -1.540362,-1.549704 c 0.530383,0.114965 1.150799,0.132384 1.590573,0.02148 l 0.06868,-0.01684 c 0.615797,-0.155028 1.119632,-0.54347 1.119632,-0.862817 -5.77e-4,-0.3193464 -0.510761,-0.6781759 -1.134639,-0.7977859 z"
     id="path4-9"
     style="fill:#008000;fill-opacity:1" />
</svg>
