<?xml version="1.0" encoding="UTF-8" standalone="no"?>
<svg
   xmlns:dc="http://purl.org/dc/elements/1.1/"
   xmlns:cc="http://creativecommons.org/ns#"
   xmlns:rdf="http://www.w3.org/1999/02/22-rdf-syntax-ns#"
   xmlns:svg="http://www.w3.org/2000/svg"
   xmlns="http://www.w3.org/2000/svg"
   xmlns:sodipodi="http://sodipodi.sourceforge.net/DTD/sodipodi-0.dtd"
   xmlns:inkscape="http://www.inkscape.org/namespaces/inkscape"
   height="23px"
   version="1.1"
   viewBox="0 0 18 23"
   width="18px"
   id="svg4187"
   inkscape:version="0.91 r13725"
   sodipodi:docname="nou_site_others.svg"
   inkscape:export-filename="/home/marc/sigte/projectes_marc/mosquito/test.png"
   inkscape:export-xdpi="90"
   inkscape:export-ydpi="90">
  <metadata
     id="metadata4201">
    <rdf:RDF>
      <cc:Work
         rdf:about="">
        <dc:format>image/svg+xml</dc:format>
        <dc:type
           rdf:resource="http://purl.org/dc/dcmitype/StillImage" />
        <dc:title></dc:title>
      </cc:Work>
    </rdf:RDF>
  </metadata>
  <sodipodi:namedview
     pagecolor="#ffffff"
     bordercolor="#666666"
     borderopacity="1"
     objecttolerance="10"
     gridtolerance="10"
     guidetolerance="10"
     inkscape:pageopacity="0"
     inkscape:pageshadow="2"
     inkscape:window-width="1243"
     inkscape:window-height="859"
     id="namedview4199"
     showgrid="false"
     inkscape:zoom="17.341851"
     inkscape:cx="-1.1883493"
     inkscape:cy="10.161842"
     inkscape:window-x="125"
     inkscape:window-y="125"
     inkscape:window-maximized="0"
     inkscape:current-layer="svg4187" />
  <desc
     id="desc4191" />
  <defs
     id="defs4193" />
  <path
     style="fill:#0000ff;stroke:#000000;stroke-width:0.97030336;stroke-opacity:1"
     d="M 8.6269309,22.005895 C 8.3459461,21.707781 7.2026898,20.339528 6.5666817,19.540181 4.5487593,17.004018 2.6937658,14.18768 1.7351519,12.204727 1.2812699,11.265842 1.0796992,10.649505 0.94669353,9.7938745 0.85813945,9.2242041 0.85587422,8.0981987 0.94214471,7.5327539 1.4688473,4.0805777 4.2517904,1.3876754 7.8050629,0.8918825 8.3745217,0.8124251 9.4589444,0.8117384 10.036522,0.8904655 c 3.045627,0.4151545 5.591468,2.4759263 6.57076,5.3188071 0.646834,1.8777558 0.537855,3.8755584 -0.312231,5.7238394 -1.199034,2.606983 -3.957429,6.617867 -6.7528602,9.819105 -0.3874306,0.443675 -0.4126014,0.463846 -0.5808354,0.465471 -0.1083024,0.0011 -0.1715904,-0.03903 -0.3344245,-0.211796 z M 9.6242693,12.864568 C 10.24356,12.767825 10.921179,12.509893 11.417629,12.18191 11.694554,11.998956 12.207534,11.518888 12.43711,11.22784 13.575585,9.7845048 13.60558,7.729675 12.5103,6.2144026 12.252749,5.8581054 11.742439,5.3751788 11.368032,5.1334365 10.116395,4.3252963 8.4870376,4.1904967 7.1485217,4.784349 4.677135,5.8808161 3.8074678,8.8080697 5.2983898,11.011795 c 0.3997471,0.590865 1.0588618,1.148463 1.7441734,1.475533 0.4457509,0.212738 0.8235273,0.318972 1.4605822,0.410729 0.2550309,0.03672 0.7700466,0.02135 1.1211239,-0.03348 z"
     id="path3410"
     inkscape:connector-curvature="0" />
  <path
     style="fill:#0000ff;fill-opacity:1;stroke:#000000;stroke-width:0.09703033;stroke-miterlimit:4;stroke-dasharray:none;stroke-opacity:1"
     d="M 8.6015077,21.926631 C 8.4442169,21.766588 8.0028501,21.259553 7.6206926,20.799886 5.2147409,17.905953 3.3377459,15.197108 2.0635418,12.779909 1.1553105,11.05697 0.92038705,10.217605 0.91710576,8.6837769 0.91416054,7.3070255 1.1101736,6.4447207 1.6972202,5.251883 2.1891216,4.2523729 2.8229404,3.4551016 3.7061757,2.7248475 4.8776235,1.7563008 6.2264207,1.1563413 7.7499604,0.92612874 8.575653,0.80136348 9.9208345,0.85253122 10.7395,1.0398443 c 3.063655,0.700972 5.406353,3.0319612 6.09684,6.0663684 0.172175,0.7566346 0.187051,2.2407101 0.03011,3.0040083 -0.282688,1.374903 -1.03547,2.924277 -2.588012,5.326638 -1.723823,2.667401 -4.9399271,6.780758 -5.3016602,6.780758 -0.049108,0 -0.2179803,-0.130945 -0.3752712,-0.290986 z M 10.354534,4.6411601 c -6.7130397,11.9694999 -3.3565199,5.9847489 0,0 z"
     id="path4149"
     inkscape:connector-curvature="0"
     sodipodi:nodetypes="ssssssssssssscc" />
  <path
     style="fill:#0000ff;fill-opacity:1;stroke:#000000;stroke-width:0.09703033;stroke-miterlimit:4;stroke-dasharray:none;stroke-opacity:1"
     d="M 8.7677604,22.03597 C 8.4096445,21.725426 7.0099692,20.049082 5.9615088,18.675016 3.4870308,15.432075 1.6355761,12.305005 1.1438623,10.538106 1.0064068,10.044181 0.99733735,9.9332689 0.99449416,8.7114532 0.99197491,7.628828 1.0091864,7.3363829 1.0971134,6.9678297 1.2428149,6.3571099 1.4360675,5.8459929 1.7639293,5.204227 2.1899415,4.3703388 2.5599635,3.8706972 3.2476699,3.2007289 4.4417112,2.0374853 5.7521959,1.3496286 7.4106216,1.0156484 7.9380545,0.90943187 8.1309588,0.89899982 9.1355926,0.92236367 c 1.0273264,0.0238916 1.1908164,0.0416317 1.7815274,0.19331123 1.121925,0.288081 1.940267,0.6778861 2.88432,1.3739006 1.53553,1.1320881 2.666083,2.9103042 3.033355,4.7710827 0.13186,0.6680664 0.132209,2.1881641 6.51e-4,2.8479648 -0.336315,1.686747 -1.702778,4.191455 -4.099699,7.514685 -1.628533,2.257892 -3.5071711,4.54142 -3.732722,4.537207 -0.051512,-9.6e-4 -0.1573807,-0.05701 -0.2352646,-0.124545 z"
     id="path4714"
     inkscape:connector-curvature="0" />
  <path
     style="fill:#ffffff;fill-opacity:1;stroke:#000000;stroke-width:0.0057664;stroke-miterlimit:4;stroke-dasharray:none;stroke-opacity:1"
     d="M 8.5626283,22.550886 C 8.2685547,22.361735 6.5630897,20.307884 5.2330264,18.541125 3.2690127,15.932272 1.4909354,13.007387 0.90225028,11.417126 0.365552,9.9673001 0.27312748,8.1844322 0.65659565,6.6784505 1.4635845,3.5091899 4.1234982,1.0809503 7.4381808,0.48752981 8.1969949,0.35168099 9.786282,0.36828087 10.567344,0.52021348 c 1.677442,0.32629707 3.139703,1.09242452 4.372525,2.29091142 1.211218,1.1774852 1.961321,2.4969851 2.345117,4.1252784 0.135734,0.5758607 0.153152,0.7681562 0.155382,1.7153504 0.0028,1.2105259 -0.0984,1.8200693 -0.469342,2.8255343 -0.830877,2.252147 -3.684302,6.564891 -6.67339,10.086342 -0.4150033,0.488916 -0.8324357,0.936436 -0.9276279,0.994488 -0.2245954,0.136968 -0.588255,0.133711 -0.8073798,-0.0072 z M 9.463185,21.6978 c 1.051257,-1.104616 3.241559,-3.981628 4.585483,-6.023137 1.414377,-2.148532 2.326145,-3.925382 2.67669,-5.216323 C 16.8761,9.9032112 16.944395,8.2982245 16.847657,7.5842361 16.527726,5.2229337 14.811273,2.8858748 12.570274,1.760307 11.970473,1.45905 11.494526,1.2872245 10.788721,1.1171347 10.24976,0.98725229 10.05248,0.97051584 8.9697636,0.96282209 7.9785072,0.9557782 7.6714426,0.97347689 7.298833,1.0591316 5.7046073,1.4256094 4.4474376,2.100283 3.2794386,3.2161825 2.6616118,3.8064507 2.1931507,4.4397859 1.811525,5.2007259 1.1224999,6.5746029 1.03748,6.9581196 1.03748,8.6923739 c 0,1.2041062 0.011475,1.3566941 0.1357462,1.8050321 0.617112,2.226387 3.1449266,6.232027 6.4043221,10.148454 0.7736101,0.929555 1.3049616,1.499263 1.3983219,1.499263 0.03388,0 0.2531714,-0.201295 0.4873148,-0.447323 z"
     id="path4720"
     inkscape:connector-curvature="0" />
  <path
     style="fill:#ffffff;fill-opacity:1;stroke:#000000;stroke-width:0.0057664;stroke-miterlimit:4;stroke-dasharray:none;stroke-opacity:1"
     d="M 8.6084475,21.765519 C 8.4410063,21.588452 7.996164,21.075964 7.6199094,20.626656 4.6448323,17.073937 2.1207647,13.157355 1.3147568,10.842985 L 1.123976,10.295177 1.1240012,8.6517537 1.1240264,7.0083305 1.3117487,6.4534987 C 1.6873259,5.3434428 2.3065998,4.2916877 3.0463394,3.5075247 4.2591449,2.2218869 5.8463256,1.363638 7.5694494,1.0617069 c 0.6628485,-0.11614632 2.5043056,-0.0778774 3.0979136,0.06438 2.516706,0.6031274 4.399743,2.1176648 5.511071,4.4325872 0.492543,1.0259786 0.610474,1.5361762 0.643607,2.7844039 0.01669,0.6287611 0.0014,1.2448129 -0.03837,1.5434645 -0.220825,1.6593955 -1.794283,4.5468655 -4.442251,8.1520225 -1.429929,1.946822 -3.1757182,4.048894 -3.3626412,4.048894 -0.036243,0 -0.2028935,-0.144873 -0.3703353,-0.32194 z"
     id="path4722"
     inkscape:connector-curvature="0" />
  <path
     style="fill:#0000ff;fill-opacity:1;stroke:#000000;stroke-width:0.0057664;stroke-miterlimit:4;stroke-dasharray:none;stroke-opacity:1"
     d="M 8.6048008,22.517026 C 8.0995203,22.163114 5.7703847,19.283799 4.3157663,17.214853 2.7714963,15.018393 1.3432315,12.551908 0.90129022,11.318359 0.64876696,10.613515 0.51500766,9.8474184 0.48101104,8.9112415 0.42933869,7.4883208 0.65468386,6.4099809 1.264279,5.1630834 2.3606645,2.9204798 4.3330488,1.3166467 6.7876897,0.6717533 8.2554829,0.28612863 10.17483,0.35177662 11.627138,0.83727835 12.920208,1.2695473 13.9889,1.9378009 14.99314,2.9420415 c 1.159083,1.1590825 1.807912,2.2848208 2.227321,3.8644651 0.281678,1.0609035 0.247759,2.9177802 -0.07362,4.0302354 -0.371371,1.285505 -1.244663,2.928813 -2.822564,5.311328 -1.55735,2.351481 -4.3900342,5.971314 -4.9744683,6.356774 -0.189583,0.125039 -0.5748896,0.131339 -0.7450099,0.01218 z m 0.870557,-0.789967 C 10.068493,21.097565 11.04258,19.8927 12.051064,18.541125 14.955983,14.647937 16.622968,11.66098 16.835141,9.9688645 16.92741,9.2330048 16.910852,7.6853349 16.805239,7.1740325 16.523585,5.8104555 15.796216,4.4671411 14.742996,3.3654534 13.619128,2.1898671 12.291199,1.4338868 10.696195,1.0616405 10.314324,0.97251834 10.001526,0.9541124 8.8797801,0.95475738 7.4009576,0.95560769 7.1940004,0.98775685 6.1021142,1.386246 4.2476817,2.0630301 2.6229594,3.5140655 1.7407966,5.2813281 1.1025428,6.5599602 1.030513,6.9110923 1.0318092,8.7375087 c 9.197e-4,1.2962983 0.00987,1.4141203 0.1401484,1.8459883 0.4684956,1.552987 1.7073026,3.796327 3.4868002,6.314205 1.6758142,2.371171 4.0490914,5.247421 4.3297996,5.247421 0.051086,0 0.2701459,-0.188129 0.4868004,-0.418064 z"
     id="path4724"
     inkscape:connector-curvature="0" />
</svg>
