<?xml version="1.0" encoding="UTF-8" standalone="no"?>
<svg
   xmlns:dc="http://purl.org/dc/elements/1.1/"
   xmlns:cc="http://creativecommons.org/ns#"
   xmlns:rdf="http://www.w3.org/1999/02/22-rdf-syntax-ns#"
   xmlns:svg="http://www.w3.org/2000/svg"
   xmlns="http://www.w3.org/2000/svg"
   xmlns:sodipodi="http://sodipodi.sourceforge.net/DTD/sodipodi-0.dtd"
   xmlns:inkscape="http://www.inkscape.org/namespaces/inkscape"
   height="23px"
   version="1.1"
   viewBox="0 0 18 23"
   width="18px"
   id="svg2"
   inkscape:version="0.91 r13725"
   sodipodi:docname="marker_unclassified_selected.svg">
  <metadata
     id="metadata16">
    <rdf:RDF>
      <cc:Work
         rdf:about="">
        <dc:format>image/svg+xml</dc:format>
        <dc:type
           rdf:resource="http://purl.org/dc/dcmitype/StillImage" />
        <dc:title></dc:title>
      </cc:Work>
    </rdf:RDF>
  </metadata>
  <sodipodi:namedview
     pagecolor="#ffffff"
     bordercolor="#666666"
     borderopacity="1"
     objecttolerance="10"
     gridtolerance="10"
     guidetolerance="10"
     inkscape:pageopacity="0"
     inkscape:pageshadow="2"
     inkscape:window-width="1366"
     inkscape:window-height="719"
     id="namedview14"
     showgrid="false"
     inkscape:zoom="13.964793"
     inkscape:cx="4.3117519"
     inkscape:cy="15.3095"
     inkscape:window-x="0"
     inkscape:window-y="25"
     inkscape:window-maximized="1"
     inkscape:current-layer="svg2" />
  <desc
     id="desc6" />
  <defs
     id="defs8" />
  <g
     fill="none"
     fill-rule="evenodd"
     id="Page-1"
     stroke="none"
     stroke-width="1"
     style="fill:#808080">
    <g
       fill="#000000"
       id="Icons-Communication"
       transform="translate(-211.000000, -82.000000)"
       style="fill:#808080">
      <g
         id="live-help"
         transform="translate(211.000000, 82.500000)"
         style="fill:#808080">
        <path
           d="M 16,0 2,0 C 0.9,0 0,0.9 0,2 l 0,14 c 0,1.1 0.9,2 2,2 l 4,0 3,3 3,-3 4,0 c 1.1,0 2,-0.9 2,-2 L 18,2 C 18,0.9 17.1,0 16,0 Z m -0.606002,13.09778 -0.39874,2.546999 c -0.8,0.7 -5.210084,-1.421129 -5.210084,0.07887 l -2.0716086,0 -0.6444779,0.430912 C 6.5767193,15.170909 5.9538204,16.024533 4.903481,15.860865 l -1.4495201,-0.22587 c 0.4,-0.3 -0.9037817,0.130912 -0.9037817,-0.469088 0,-1.1 0.746999,-1.713565 -0.353001,-1.713565 -1.1,0 -0.2097837,-4.255823 -0.2097837,-3.155823 L 1.920828,3.3504799 c 0,-2.2 4.9507807,-1.4220885 7.1507807,-1.4220885 2.1999993,0 6.9359553,-0.061825 6.9359553,2.138175 0,0.9 -0.170753,1.9462047 -0.39874,5.593998 z"
           id="Shape"
           inkscape:connector-curvature="0"
           sodipodi:nodetypes="csssscccsssccccccsccssccssc"
           style="fill:#808080" />
      </g>
    </g>
  </g>
  <rect
     style="fill:#000000;fill-opacity:1"
     id="rect4251"
     width="14.8946"
     height="14.464948"
     x="1.5753902"
     y="2.2334912" />
  <g
     transform="matrix(0.89712806,0,0,0.8932607,19.845362,2.1147875)"
     style="fill:#ffff00;fill-rule:evenodd;stroke:none;stroke-width:1"
     id="Page-1-6">
    <g
       style="fill:#ffff00"
       id="Icons-Communication-4"
       transform="translate(-211,-82)">
      <g
         id="live-help-3"
         transform="translate(211,82.5)"
         style="fill:#ffff00">
        <path
           inkscape:connector-curvature="0"
           d="m -5.0724473,-1.3628127 -13.9999997,0 c -1.1,0 -2,0.89999996 -2,1.99999996 l 0,13.99999974 c 0,1.1 0.9,2 2,2 l 4,0 3,3 2.9999997,-3 4,0 c 1.1,0 2,-0.9 2,-2 l 0,-13.99999974 c 0,-1.1 -0.9,-1.99999996 -2,-1.99999996 l 0,0 z m -5.9999997,15.9999997 -2,0 0,-2 2,0 0,2 0,0 z m 2.0999997,-7.6999997 -0.9,0.9 c -0.7999997,0.7 -1.1999997,1.3 -1.1999997,2.7999997 l -2,0 0,-0.5 c 0,-1.0999997 0.4,-2.0999997 1.2,-2.7999997 l 1.2,-1.3 c 0.4,-0.3 0.6,-0.8 0.6,-1.4 0,-1.1 -0.9,-2 -2,-2 -1.1,0 -2,0.9 -2,2 l -2,0 c 0,-2.2 1.8,-4.00000004 4,-4.00000004 2.1999997,0 3.9999997,1.80000004 3.9999997,4.00000004 0,0.9 -0.4,1.7 -0.9,2.3 l 0,0 z"
           id="Shape-0"
           style="fill:#ffff00" />
      </g>
    </g>
  </g>
</svg>
