<?xml version="1.0" encoding="UTF-8" standalone="no"?>
<svg
   xmlns:dc="http://purl.org/dc/elements/1.1/"
   xmlns:cc="http://creativecommons.org/ns#"
   xmlns:rdf="http://www.w3.org/1999/02/22-rdf-syntax-ns#"
   xmlns:svg="http://www.w3.org/2000/svg"
   xmlns="http://www.w3.org/2000/svg"
   xmlns:sodipodi="http://sodipodi.sourceforge.net/DTD/sodipodi-0.dtd"
   xmlns:inkscape="http://www.inkscape.org/namespaces/inkscape"
   height="23"
   version="1.1"
   viewBox="0 0 40 23"
   width="40"
   id="svg4187"
   inkscape:version="0.92.3 (2405546, 2018-03-11)"
   sodipodi:docname="marker_japonicus_all.svg"
   inkscape:export-filename="/home/marc/sigte/projectes_marc/mosquito/test.png"
   inkscape:export-xdpi="90"
   inkscape:export-ydpi="90">
  <metadata
     id="metadata4201">
    <rdf:RDF>
      <cc:Work
         rdf:about="">
        <dc:format>image/svg+xml</dc:format>
        <dc:type
           rdf:resource="http://purl.org/dc/dcmitype/StillImage" />
        <dc:title />
      </cc:Work>
    </rdf:RDF>
  </metadata>
  <sodipodi:namedview
     pagecolor="#ffffff"
     bordercolor="#666666"
     borderopacity="1"
     objecttolerance="10"
     gridtolerance="10"
     guidetolerance="10"
     inkscape:pageopacity="0"
     inkscape:pageshadow="2"
     inkscape:window-width="1533"
     inkscape:window-height="845"
     id="namedview4199"
     showgrid="false"
     inkscape:zoom="17.341851"
     inkscape:cx="18.962403"
     inkscape:cy="13.10223"
     inkscape:window-x="67"
     inkscape:window-y="27"
     inkscape:window-maximized="1"
     inkscape:current-layer="svg4187" />
  <desc
     id="desc4191" />
  <defs
     id="defs4193">
    <filter
       inkscape:collect="always"
       style="color-interpolation-filters:sRGB"
       id="filter833"
       x="-0.014300748"
       width="1.0286015"
       y="-0.012257784"
       height="1.0245156">
      <feGaussianBlur
         inkscape:collect="always"
         stdDeviation="0.10725561"
         id="feGaussianBlur835" />
    </filter>
    <filter
       inkscape:collect="always"
       style="color-interpolation-filters:sRGB"
       id="filter833-3"
       x="-0.014300748"
       width="1.0286015"
       y="-0.012257784"
       height="1.0245156">
      <feGaussianBlur
         inkscape:collect="always"
         stdDeviation="0.10725561"
         id="feGaussianBlur835-6" />
    </filter>
  </defs>
  <g
     transform="translate(0.11090752,0.23654972)"
     id="Page-1"
     style="fill:#6c5353;fill-opacity:1;fill-rule:evenodd;stroke:none;stroke-width:1">
    <g
       id="Icons-Communication"
       transform="translate(-211,-82)"
       style="fill:#6c5353;fill-opacity:1">
      <g
         id="live-help"
         transform="translate(211,82.5)"
         style="fill:#6c5353;fill-opacity:1">
        <path
           d="M 16,0 H 2 C 0.9,0 0,0.9 0,2 v 14 c 0,1.1 0.9,2 2,2 h 4 l 3,3 3,-3 h 4 c 1.1,0 2,-0.9 2,-2 V 2 C 18,0.9 17.1,0 16,0 Z"
           id="Shape"
           inkscape:connector-curvature="0"
           sodipodi:nodetypes="csssscccssscc"
           style="fill:#6c5353;fill-opacity:1" />
      </g>
    </g>
  </g>
  <g
     transform="matrix(0.9108143,0,0,0.91204869,0.93002352,0.94493272)"
     style="fill:#f9b23f;fill-opacity:0.94117647;fill-rule:evenodd;stroke:none;stroke-width:1;filter:url(#filter833)"
     id="Page-1-0">
    <g
       style="fill:#f9b23f;fill-opacity:0.94117647"
       id="Icons-Communication-6"
       transform="translate(-211,-82)">
      <g
         id="live-help-8"
         transform="translate(211,82.5)"
         style="fill:#f9b23f;fill-opacity:0.94117647">
        <path
           d="M 16,0 H 2 C 0.9,0 0,0.9 0,2 v 14 c 0,1.1 0.9,2 2,2 h 4 l 3,3 3,-3 h 4 c 1.1,0 2,-0.9 2,-2 V 2 C 18,0.9 17.1,0 16,0 Z"
           id="Shape-7"
           inkscape:connector-curvature="0"
           sodipodi:nodetypes="csssscccssscc"
           style="fill:#f9b23f;fill-opacity:0.94117647" />
      </g>
    </g>
  </g>
  <path
     inkscape:connector-curvature="0"
     d="m 14.089387,9.4684327 -3.791173,-0.726949 c -0.02309,-0.0041 -0.04444,-0.0058 -0.06695,-0.0093 l 1.445713,-1.453899 c 0.05367,-0.05458 0.08426,-0.128319 0.08426,-0.205543 v -1.621701 l 1.647131,-1.657119 c 0.112541,-0.113223 0.112541,-0.297283 0,-0.410505 -0.11254,-0.113223 -0.295491,-0.113223 -0.408031,0 l -1.731389,1.741891 c -0.05425,0.05458 -0.08484,0.128319 -0.08484,0.205543 v 1.621701 l -1.154262,1.161261 v -1.041071 c 0,-0.376829 -0.2423955,-0.696756 -0.5771315,-0.816947 v -1.505574 c 0,-0.159674 -0.129854,-0.290316 -0.288565,-0.290316 -0.158711,0 -0.288566,0.130642 -0.288566,0.290316 v 1.505574 c -0.334733,0.120191 -0.577128,0.440118 -0.577128,0.816947 v 1.041071 l -1.154262,-1.161261 v -1.621701 c 0,-0.07722 -0.03059,-0.150964 -0.08426,-0.205543 l -1.731393,-1.741891 c -0.112541,-0.113223 -0.295491,-0.113223 -0.408032,0 -0.11254,0.113222 -0.11254,0.297282 0,0.410505 l 1.646555,1.657119 v 1.621701 c 0,0.07722 0.03059,0.150964 0.08426,0.205543 l 1.445713,1.45448 c -0.02309,0.0035 -0.04444,0.0047 -0.06752,0.0093 l -3.791173,0.726368 c -0.623302,0.11961 -1.133485,0.47844 -1.134062,0.7977863 -5.78e-4,0.319347 0.503835,0.707789 1.119634,0.862237 l 0.06868,0.01684 c 0.439773,0.110319 1.060189,0.09348 1.590572,-0.02148 l -1.540362,1.549702 c -0.11254,0.113223 -0.11254,0.297283 0,0.410506 0.05656,0.0569 0.130432,0.08535 0.204305,0.08535 0.07387,0 0.147745,-0.02845 0.204304,-0.08477 l 2.392785,-2.407875 v 0.963847 l -2.270433,3.997641 c -0.07907,0.13877 -0.03116,0.316443 0.107346,0.39657 0.04502,0.02555 0.09465,0.03774 0.143129,0.03774 0.10042,0 0.197378,-0.05284 0.251052,-0.146318 l 2.308523,-4.064413 c 0.02424,-0.04355 0.03751,-0.09348 0.03751,-0.143997 V 10.35506 l 0.394758,-0.182899 c 0.06233,-0.02903 0.122929,-0.06155 0.182373,-0.09522 0,0 0,2.003756 0,2.802123 0,0.798366 0.389563,1.451576 0.865696,1.451576 0.476133,0 0.8656975,-0.65321 0.8656975,-1.451576 0,-0.798367 0,-2.802123 0,-2.802123 0.06002,0.03368 0.120043,0.06619 0.182373,0.09522 l 0.394758,0.182899 v 1.362739 c 0,0.05052 0.0127,0.100449 0.03751,0.143997 l 2.308523,4.064413 c 0.05367,0.09348 0.151208,0.146318 0.251052,0.146318 0.04906,0 0.09811,-0.01219 0.143129,-0.03774 0.138511,-0.08013 0.186413,-0.257219 0.107923,-0.39657 l -2.27101,-3.99764 V 10.67673 l 2.392785,2.407294 c 0.05656,0.0569 0.130431,0.08535 0.204304,0.08535 0.07387,0 0.147746,-0.02845 0.204304,-0.08477 0.112541,-0.113223 0.112541,-0.297283 0,-0.410506 L 12.44514,11.124394 c 0.530383,0.114965 1.150799,0.132384 1.590573,0.02148 l 0.06868,-0.01684 c 0.615797,-0.155028 1.119632,-0.54347 1.119632,-0.862817 -5.77e-4,-0.3193463 -0.510761,-0.6781763 -1.134639,-0.7977863 z"
     id="path4-9"
     style="fill:#ffff00" />
  <path
     style="fill:#ffffff;fill-opacity:1;stroke:#000000;stroke-width:0.02883198;stroke-miterlimit:4;stroke-dasharray:none;stroke-opacity:1"
     d="m 4.9166775,15.941389 c -0.03934,-0.0474 -0.05867,-0.135357 -0.04296,-0.195451 0.01572,-0.06009 0.537753,-1.004966 1.160085,-2.099717 l 1.131513,-1.990454 V 11.146373 10.63698 l -1.26247,1.261491 c -1.140856,1.139972 -1.276863,1.257879 -1.411889,1.22399 -0.09651,-0.02422 -0.162681,-0.09034 -0.186871,-0.186723 -0.03346,-0.133307 0.05055,-0.237382 0.787792,-0.975939 l 0.825244,-0.826719 -0.634644,0.03348 c -0.703492,0.03711 -1.091616,-0.02643 -1.519336,-0.24875 -0.410907,-0.213579 -0.634304,-0.452502 -0.634304,-0.678388 0,-0.168589 0.418367,-0.5314633 0.731461,-0.6344403 0.152713,-0.05023 1.157587,-0.260296 2.233056,-0.466821 1.075468,-0.206524 1.969441,-0.389542 1.986606,-0.406707 0.01716,-0.01716 -0.311352,-0.374476 -0.730038,-0.794025 l -0.761246,-0.762817 v -0.861859 -0.86186 l -0.86496,-0.87148 c -0.847975,-0.854368 -0.954158,-1.010316 -0.795763,-1.168712 0.163609,-0.163609 0.317165,-0.0564 1.242022,0.867187 l 0.937676,0.936385 v 0.866645 0.866645 l 0.605472,0.603411 0.605472,0.603411 v -0.624558 c 0,-0.722381 0.0823,-0.967181 0.385222,-1.145913 l 0.191417,-0.112939 v -0.776558 c 0,-0.828391 0.04282,-0.999633 0.249984,-0.999633 0.242939,0 0.268971,0.09168 0.269357,0.948572 l 3.46e-4,0.810179 0.171423,0.09754 c 0.326198,0.185605 0.40403,0.402739 0.404271,1.12782 1.15e-4,0.356796 0.02218,0.64872 0.04902,0.64872 0.02684,0 0.299304,-0.270136 0.605471,-0.600302 l 0.556687,-0.600302 v -0.851762 -0.851762 l 0.934761,-0.940991 c 0.926323,-0.932498 1.078011,-1.03872 1.244937,-0.871794 0.16349,0.163489 0.0589,0.317337 -0.795762,1.170578 l -0.86496,0.863518 v 0.856257 0.856258 l -0.747139,0.785573 c -0.410927,0.432066 -0.741509,0.791205 -0.734626,0.798088 0.0069,0.0069 0.904155,0.184385 1.99394,0.394449 1.089784,0.210065 2.112416,0.431708 2.272516,0.492541 0.381861,0.145096 0.675147,0.4283863 0.675147,0.6521373 0,0.317049 -0.56936,0.713828 -1.226585,0.854786 -0.182139,0.03906 -0.550971,0.05151 -0.931604,0.03143 l -0.630094,-0.03324 0.817502,0.818963 c 0.535742,0.5367 0.817502,0.860999 0.817502,0.940925 0,0.167074 -0.142253,0.271629 -0.311703,0.229099 -0.07986,-0.02004 -0.643572,-0.556458 -1.309638,-1.246214 -0.643187,-0.666064 -1.190226,-1.211024 -1.215644,-1.211024 -0.02542,0 -0.04621,0.214367 -0.04621,0.476372 v 0.476372 l 1.15328,2.031436 c 0.634303,1.117291 1.153279,2.080416 1.153279,2.140278 0,0.146319 -0.137212,0.251359 -0.298227,0.228301 -0.106825,-0.0153 -0.356638,-0.414872 -1.327652,-2.123577 l -1.196068,-2.104735 -0.0018,-0.723725 -0.0018,-0.723725 -0.261031,-0.126819 c -0.143555,-0.06975 -0.286274,-0.126815 -0.317141,-0.126815 -0.03502,0 -0.056121,0.592407 -0.056121,1.575293 0,1.820453 -0.03862,2.05206 -0.402906,2.416348 -0.384491,0.38449 -0.807629,0.247143 -1.089342,-0.353591 -0.150511,-0.320955 -0.151256,-0.329658 -0.16955,-1.980211 -0.01038,-0.936677 -0.04107,-1.657839 -0.07054,-1.657839 -0.02869,0 -0.169626,0.05707 -0.313193,0.126819 l -0.26103,0.126818 v 0.736805 0.736805 l -1.072245,1.889831 c -1.32862,2.341691 -1.316206,2.322311 -1.487559,2.322311 -0.07496,0 -0.16847,-0.03879 -0.207812,-0.08619 z"
     id="path4142"
     inkscape:connector-curvature="0" />
  <g
     transform="translate(21.273585,0.29421429)"
     id="Page-1-7"
     style="fill:#6c5353;fill-opacity:1;fill-rule:evenodd;stroke:none;stroke-width:1">
    <g
       id="Icons-Communication-5"
       transform="translate(-211,-82)"
       style="fill:#6c5353;fill-opacity:1">
      <g
         id="live-help-3"
         transform="translate(211,82.5)"
         style="fill:#6c5353;fill-opacity:1">
        <path
           d="M 16,0 H 2 C 0.9,0 0,0.9 0,2 v 14 c 0,1.1 0.9,2 2,2 h 4 l 3,3 3,-3 h 4 c 1.1,0 2,-0.9 2,-2 V 2 C 18,0.9 17.1,0 16,0 Z"
           id="Shape-5"
           inkscape:connector-curvature="0"
           sodipodi:nodetypes="csssscccssscc"
           style="fill:#6c5353;fill-opacity:1" />
      </g>
    </g>
  </g>
  <g
     transform="matrix(0.9108143,0,0,0.91204869,22.092701,1.0025973)"
     style="fill:#f9b23f;fill-opacity:0.94117647;fill-rule:evenodd;stroke:none;stroke-width:1;filter:url(#filter833-3)"
     id="Page-1-0-6">
    <g
       style="fill:#f9b23f;fill-opacity:0.94117647"
       id="Icons-Communication-6-2"
       transform="translate(-211,-82)">
      <g
         id="live-help-8-9"
         transform="translate(211,82.5)"
         style="fill:#f9b23f;fill-opacity:0.94117647">
        <path
           d="M 16,0 H 2 C 0.9,0 0,0.9 0,2 v 14 c 0,1.1 0.9,2 2,2 h 4 l 3,3 3,-3 h 4 c 1.1,0 2,-0.9 2,-2 V 2 C 18,0.9 17.1,0 16,0 Z"
           id="Shape-7-1"
           inkscape:connector-curvature="0"
           sodipodi:nodetypes="csssscccssscc"
           style="fill:#f9b23f;fill-opacity:0.94117647" />
      </g>
    </g>
  </g>
</svg>
