<?xml version="1.0" encoding="UTF-8" standalone="no"?>
<svg
   xmlns:dc="http://purl.org/dc/elements/1.1/"
   xmlns:cc="http://creativecommons.org/ns#"
   xmlns:rdf="http://www.w3.org/1999/02/22-rdf-syntax-ns#"
   xmlns:svg="http://www.w3.org/2000/svg"
   xmlns="http://www.w3.org/2000/svg"
   xmlns:sodipodi="http://sodipodi.sourceforge.net/DTD/sodipodi-0.dtd"
   xmlns:inkscape="http://www.inkscape.org/namespaces/inkscape"
   height="23px"
   version="1.1"
   viewBox="0 0 18 23"
   width="18px"
   id="svg2"
   inkscape:version="0.91 r13725"
   sodipodi:docname="marker_trash.svg">
  <metadata
     id="metadata16">
    <rdf:RDF>
      <cc:Work
         rdf:about="">
        <dc:format>image/svg+xml</dc:format>
        <dc:type
           rdf:resource="http://purl.org/dc/dcmitype/StillImage" />
        <dc:title></dc:title>
      </cc:Work>
    </rdf:RDF>
  </metadata>
  <sodipodi:namedview
     pagecolor="#ffffff"
     bordercolor="#666666"
     borderopacity="1"
     objecttolerance="10"
     gridtolerance="10"
     guidetolerance="10"
     inkscape:pageopacity="0"
     inkscape:pageshadow="2"
     inkscape:window-width="1366"
     inkscape:window-height="719"
     id="namedview14"
     showgrid="false"
     inkscape:zoom="13.964793"
     inkscape:cx="5.1940123"
     inkscape:cy="15.220411"
     inkscape:window-x="0"
     inkscape:window-y="25"
     inkscape:window-maximized="1"
     inkscape:current-layer="svg2" />
  <desc
     id="desc6" />
  <defs
     id="defs8" />
  <g
     fill="none"
     fill-rule="evenodd"
     id="Page-1"
     stroke="none"
     stroke-width="1"
     style="fill:#808080">
    <g
       fill="#000000"
       id="Icons-Communication"
       transform="translate(-211.000000, -82.000000)"
       style="fill:#808080">
      <g
         id="live-help"
         transform="translate(211.000000, 82.500000)"
         style="fill:#808080">
        <path
           d="M 16,0 2,0 C 0.9,0 0,0.9 0,2 l 0,14 c 0,1.1 0.9,2 2,2 l 4,0 3,3 3,-3 4,0 c 1.1,0 2,-0.9 2,-2 L 18,2 C 18,0.9 17.1,0 16,0 Z m -0.606002,13.09778 -0.39874,2.546999 c -0.8,0.7 -5.210084,-1.421129 -5.210084,0.07887 l -2.0716086,0 -0.6444779,0.430912 C 6.5767193,15.170909 5.9538204,16.024533 4.903481,15.860865 l -1.4495201,-0.22587 c 0.4,-0.3 -0.9037817,0.130912 -0.9037817,-0.469088 0,-1.1 0.746999,-1.713565 -0.353001,-1.713565 -1.1,0 -0.2097837,-4.255823 -0.2097837,-3.155823 L 1.920828,3.3504799 c 0,-2.2 4.9507807,-1.4220885 7.1507807,-1.4220885 2.1999993,0 6.9359553,-0.061825 6.9359553,2.138175 0,0.9 -0.170753,1.9462047 -0.39874,5.593998 z"
           id="Shape"
           inkscape:connector-curvature="0"
           sodipodi:nodetypes="csssscccsssccccccsccssccssc"
           style="fill:#808080" />
      </g>
    </g>
  </g>
  <g
     transform="matrix(0.89712806,0,0,0.8932607,19.845362,2.1147875)"
     style="fill:#b3b3b3;fill-rule:evenodd;stroke:none;stroke-width:1"
     id="Page-1-6">
    <g
       style="fill:#b3b3b3"
       id="Icons-Communication-4"
       transform="translate(-211,-82)">
      <g
         id="live-help-3"
         transform="translate(211,82.5)"
         style="fill:#b3b3b3">
        <path
           inkscape:connector-curvature="0"
           d="m -5.0724473,-1.3628127 -13.9999997,0 c -1.1,0 -2,0.89999996 -2,1.99999996 l 0,13.99999974 c 0,1.1 0.9,2 2,2 l 4,0 3,3 2.9999997,-3 4,0 c 1.1,0 2,-0.9 2,-2 l 0,-13.99999974 c 0,-1.1 -0.9,-1.99999996 -2,-1.99999996 z"
           id="Shape-0"
           style="fill:#b3b3b3"
           sodipodi:nodetypes="csssscccssscc" />
      </g>
    </g>
  </g>
  <path
     inkscape:connector-curvature="0"
     style="fill:none;stroke:#000000;stroke-width:1.03267097;stroke-miterlimit:10"
     stroke-miterlimit="10"
     d="m 11.19016,5.1960599 c 0,0.6794245 -0.576302,1.2301415 -1.2875362,1.2301415 l -1.5450433,0 c -0.7112342,0 -1.2875343,-0.550717 -1.2875343,-1.2301415 l 0,-0.4105249 c 0,-0.6799033 0.5763001,-1.2301412 1.2875343,-1.2301412 l 1.5450433,0 c 0.7112342,0 1.2875362,0.5502379 1.2875362,1.2301412 l 0,0.4105249 z"
     id="path3" />
  <path
     inkscape:connector-curvature="0"
     style="fill:none;stroke:#000000;stroke-width:0.99280965;stroke-miterlimit:10"
     stroke-miterlimit="10"
     d="m 13.250216,14.081687 c 0,0.528228 -0.461452,0.956936 -1.030028,0.956936 l -6.1801705,0 c -0.5685749,0 -1.0300277,-0.428708 -1.0300277,-0.956936 l 0,-8.1339536 8.2402262,0 0,8.1339536 z"
     id="path5" />
  <line
     style="fill:none;stroke:#000000;stroke-width:0.99280965;stroke-miterlimit:10"
     stroke-miterlimit="10"
     x1="11.190162"
     y1="7.8616047"
     x2="11.190162"
     y2="13.60322"
     id="line7" />
  <line
     style="fill:none;stroke:#000000;stroke-width:0.99280965;stroke-miterlimit:10"
     stroke-miterlimit="10"
     x1="9.1301031"
     y1="7.8616047"
     x2="9.1301031"
     y2="13.60322"
     id="line9" />
  <line
     style="fill:none;stroke:#000000;stroke-width:0.99280965;stroke-miterlimit:10"
     stroke-miterlimit="10"
     x1="7.0700479"
     y1="7.8616047"
     x2="7.0700479"
     y2="13.60322"
     id="line11" />
  <path
     inkscape:connector-curvature="0"
     style="fill:#000000"
     d="m 14.280245,5.9477334 0,-0.478468 c 0,-0.2636363 -0.231242,-0.478468 -0.515014,-0.478468 l -9.2702555,0 c -0.2837731,0 -0.5150143,0.2148317 -0.5150143,0.478468 l 0,0.478468 -0.5150144,0 0,0.9569359 1.0300287,0 9.2702555,0 1.030027,0 0,-0.9569359 -0.515013,0 z"
     id="path13" />
</svg>
