<?xml version="1.0" encoding="UTF-8" standalone="no"?>
<svg
   xmlns:dc="http://purl.org/dc/elements/1.1/"
   xmlns:cc="http://creativecommons.org/ns#"
   xmlns:rdf="http://www.w3.org/1999/02/22-rdf-syntax-ns#"
   xmlns:svg="http://www.w3.org/2000/svg"
   xmlns="http://www.w3.org/2000/svg"
   xmlns:sodipodi="http://sodipodi.sourceforge.net/DTD/sodipodi-0.dtd"
   xmlns:inkscape="http://www.inkscape.org/namespaces/inkscape"
   height="23px"
   version="1.1"
   viewBox="0 0 18 23"
   width="18px"
   id="svg4187"
   inkscape:version="0.91 r13725"
   sodipodi:docname="marker_site_pending_selected.svg"
   inkscape:export-filename="/home/marc/sigte/projectes_marc/mosquito/test.png"
   inkscape:export-xdpi="90"
   inkscape:export-ydpi="90">
  <metadata
     id="metadata4201">
    <rdf:RDF>
      <cc:Work
         rdf:about="">
        <dc:format>image/svg+xml</dc:format>
        <dc:type
           rdf:resource="http://purl.org/dc/dcmitype/StillImage" />
        <dc:title></dc:title>
      </cc:Work>
    </rdf:RDF>
  </metadata>
  <sodipodi:namedview
     pagecolor="#ffffff"
     bordercolor="#666666"
     borderopacity="1"
     objecttolerance="10"
     gridtolerance="10"
     guidetolerance="10"
     inkscape:pageopacity="0"
     inkscape:pageshadow="2"
     inkscape:window-width="1680"
     inkscape:window-height="988"
     id="namedview4199"
     showgrid="false"
     inkscape:zoom="17.341851"
     inkscape:cx="-6.5198467"
     inkscape:cy="21.694636"
     inkscape:window-x="-8"
     inkscape:window-y="-8"
     inkscape:window-maximized="1"
     inkscape:current-layer="svg4187" />
  <desc
     id="desc4191" />
  <defs
     id="defs4193" />
  <path
     style="fill:#ffff00;fill-opacity:1;stroke:#000000;stroke-width:0.4;stroke-miterlimit:4;stroke-dasharray:none;stroke-opacity:1"
     d="M 8.6736437,21.801374 C 8.5069361,21.644026 8.0391451,21.14553 7.6341085,20.693605 5.0841141,17.848411 3.0947453,15.185188 1.7442557,12.808699 0.78164961,11.114778 0.53266149,10.289549 0.52918432,8.781554 0.52606578,7.4279897 0.73381024,6.5802077 1.3560031,5.4074594 1.8773538,4.424783 2.5491189,3.6409393 3.4852329,2.9229839 4.726814,1.9707493 6.1563627,1.3808943 7.7711152,1.1545589 c 0.875126,-0.122664 2.3008418,-0.072358 3.1685208,0.1118003 3.247072,0.6891664 5.730026,2.9808975 6.461853,5.9641998 0.182482,0.7438915 0.198248,2.2029724 0.03191,2.953415 -0.299613,1.351747 -1.097464,2.875027 -2.742953,5.236927 -1.827028,2.622478 -5.2356775,6.666558 -5.6190669,6.666558 -0.052048,0 -0.2310307,-0.128738 -0.3977354,-0.286085 z"
     id="path4149"
     inkscape:connector-curvature="0"
     sodipodi:nodetypes="sssssssssssss" />
  <path
     inkscape:connector-curvature="0"
     d="m 8.9667479,3.4795506 c -3.1344372,0 -5.6522648,2.5692005 -5.6522648,5.7675928 0,3.1983906 2.5178276,5.7675916 5.6522648,5.7675916 3.1344381,0 5.6522641,-2.569201 5.6522641,-5.7675916 0,-3.1983923 -2.517826,-5.7675928 -5.6522641,-5.7675928 z m 0.5138417,8.9135514 c 0,0.157298 -0.1027704,0.262163 -0.2569214,0.262163 l -0.5138417,0 c -0.1541532,0 -0.2569213,-0.104862 -0.2569213,-0.262163 l 0,-0.524326 c 0,-0.157298 0.1027703,-0.262164 0.2569213,-0.262164 l 0.5138417,0 c 0.1541533,0 0.2569214,0.104863 0.2569214,0.262164 l 0,0.524326 z m 0.6936874,-2.333253 c -0.35969,0.314596 -0.6166114,0.524326 -0.6936874,0.812707 -0.02569,0.131081 -0.1284602,0.20973 -0.2569214,0.20973 l -0.5138417,0 c -0.1541532,0 -0.2826134,-0.131082 -0.2569213,-0.28838 C 8.5556755,10.033632 9.095208,9.6141711 9.5319736,9.2471434 9.9944325,8.8801146 10.251353,8.6441678 10.251353,8.1984893 c 0,-0.7340564 -0.5652261,-1.3108158 -1.2846051,-1.3108158 -0.719379,0 -1.2846058,0.5767594 -1.2846058,1.3108158 0,0.052437 0,0.1048625 0,0.1572983 0.02569,0.131082 -0.05138,0.2621629 -0.1798453,0.2883802 L 7.0141472,8.8014649 C 6.8599951,8.8539018 6.7058418,8.7490281 6.6801498,8.5917343 c -0.02569,-0.1310809 -0.02569,-0.2621629 -0.02569,-0.393245 0,-1.3108158 1.0276844,-2.3594687 2.3122902,-2.3594687 1.284605,0 2.31229,1.0486529 2.31229,2.3594687 0,0.9700044 -0.61661,1.4681153 -1.104761,1.8613597 z"
     id="path4" />
</svg>
