<?xml version="1.0" encoding="UTF-8" standalone="no"?>
<svg
   xmlns:dc="http://purl.org/dc/elements/1.1/"
   xmlns:cc="http://creativecommons.org/ns#"
   xmlns:rdf="http://www.w3.org/1999/02/22-rdf-syntax-ns#"
   xmlns:svg="http://www.w3.org/2000/svg"
   xmlns="http://www.w3.org/2000/svg"
   xmlns:sodipodi="http://sodipodi.sourceforge.net/DTD/sodipodi-0.dtd"
   xmlns:inkscape="http://www.inkscape.org/namespaces/inkscape"
   height="23"
   version="1.1"
   viewBox="0 0 40 23"
   width="40"
   id="svg4187"
   inkscape:version="0.92.3 (2405546, 2018-03-11)"
   sodipodi:docname="marker_culex_all.svg"
   inkscape:export-filename="/home/marc/sigte/projectes_marc/mosquito/test.png"
   inkscape:export-xdpi="90"
   inkscape:export-ydpi="90">
  <metadata
     id="metadata4201">
    <rdf:RDF>
      <cc:Work
         rdf:about="">
        <dc:format>image/svg+xml</dc:format>
        <dc:type
           rdf:resource="http://purl.org/dc/dcmitype/StillImage" />
        <dc:title />
      </cc:Work>
    </rdf:RDF>
  </metadata>
  <sodipodi:namedview
     pagecolor="#ffffff"
     bordercolor="#666666"
     borderopacity="1"
     objecttolerance="10"
     gridtolerance="10"
     guidetolerance="10"
     inkscape:pageopacity="0"
     inkscape:pageshadow="2"
     inkscape:window-width="1533"
     inkscape:window-height="845"
     id="namedview4199"
     showgrid="false"
     inkscape:zoom="17.341851"
     inkscape:cx="20.033352"
     inkscape:cy="10.795671"
     inkscape:window-x="67"
     inkscape:window-y="27"
     inkscape:window-maximized="1"
     inkscape:current-layer="svg4187" />
  <desc
     id="desc4191" />
  <defs
     id="defs4193" />
  <path
     inkscape:connector-curvature="0"
     d="M 21.333578,9.3129226 17.758293,8.582821 c -0.02178,-0.00405 -0.04191,-0.00583 -0.06313,-0.00932 l 1.363386,-1.4602024 c 0.05061,-0.054816 0.07946,-0.1288757 0.07946,-0.2064344 V 5.2781221 l 1.553335,-1.6643042 c 0.106132,-0.1137137 0.106132,-0.2985712 0,-0.4122849 -0.106132,-0.1137146 -0.278665,-0.1137146 -0.384796,0 l -1.6328,1.7494433 c -0.05117,0.054816 -0.08001,0.1288755 -0.08001,0.2064342 V 6.7861424 L 17.50521,7.9524382 V 6.906854 c 0,-0.3784629 -0.228591,-0.6997775 -0.544266,-0.8204891 V 4.5742628 c 0,-0.1603654 -0.122459,-0.2915743 -0.272133,-0.2915743 -0.149673,0 -0.272132,0.1312089 -0.272132,0.2915743 V 6.0863649 C 16.101004,6.2070765 15.872412,6.5283911 15.872412,6.906854 V 7.9524382 L 14.78388,6.7861424 V 5.1574105 c 0,-0.077558 -0.02885,-0.1516184 -0.07946,-0.2064342 L 13.071617,3.201533 c -0.106132,-0.1137146 -0.278665,-0.1137146 -0.384797,0 -0.106131,0.1137137 -0.106131,0.2985712 0,0.4122849 l 1.552792,1.6643042 V 6.906854 c 0,0.077558 0.02885,0.1516184 0.07946,0.2064344 l 1.363386,1.4607855 c -0.02177,0.00349 -0.04191,0.0047 -0.06368,0.00932 l -3.575286,0.72952 c -0.587807,0.1201285 -1.068938,0.4805138 -1.069483,0.8012461 -5.44e-4,0.32073 0.475144,0.710857 1.055877,0.865975 l 0.06477,0.01691 c 0.41473,0.110797 0.999817,0.09388 1.499998,-0.02157 l -1.452647,1.556419 c -0.106131,0.113714 -0.106131,0.298572 0,0.412286 0.05334,0.05714 0.123005,0.08572 0.192671,0.08572 0.06967,0 0.139332,-0.02858 0.19267,-0.08514 l 2.256532,-2.41832 v 0.968026 l -2.141144,4.014974 c -0.07457,0.139371 -0.02939,0.317815 0.101234,0.39829 0.04245,0.02566 0.08926,0.0379 0.134978,0.0379 0.0947,0 0.186138,-0.05307 0.236755,-0.146952 l 2.177066,-4.082026 c 0.02286,-0.04374 0.03538,-0.09388 0.03538,-0.14462 v -1.368648 l 0.372277,-0.183692 c 0.05878,-0.029156 0.115928,-0.061818 0.171988,-0.095639 0,0 0,2.012444 0,2.814272 0,0.801828 0.36738,1.45787 0.816399,1.45787 0.44902,0 0.816399,-0.656042 0.816399,-1.45787 0,-0.801828 0,-2.814272 0,-2.814272 0.0566,0.03382 0.113208,0.066482 0.171988,0.095639 l 0.372278,0.183692 v 1.368648 c 0,0.05074 0.01198,0.100883 0.03538,0.14462 l 2.177064,4.082035 c 0.05061,0.09388 0.142597,0.146953 0.236756,0.146953 0.04627,0 0.09252,-0.01224 0.134979,-0.03791 0.130623,-0.08048 0.175797,-0.258335 0.101776,-0.39829 L 18.59374,11.494484 v -0.968025 l 2.256528,2.41773 c 0.05334,0.05714 0.123003,0.08572 0.192669,0.08572 0.06967,0 0.139334,-0.02858 0.19267,-0.08514 0.106132,-0.113714 0.106132,-0.298572 0,-0.412286 L 19.782961,10.97606 c 0.500181,0.115464 1.085267,0.132957 1.499998,0.02158 l 0.06477,-0.01691 c 0.58073,-0.155701 1.055876,-0.545827 1.055876,-0.866559 C 22.40306,9.7934345 21.921929,9.4330482 21.333578,9.3129196 Z"
     id="path4-9"
     style="fill:#ffff00;stroke-width:0.97321308" />
  <path
     style="fill:#ffffff;fill-opacity:1;stroke-width:24.33032799;stroke-miterlimit:4;stroke-dasharray:none"
     d="m 12.68321,15.813944 c -0.0371,-0.04761 -0.05515,-0.136707 -0.04009,-0.197996 0.01505,-0.06129 0.50736,-1.012477 1.094025,-2.113753 l 1.066661,-2.002319 v -0.50667 -0.50667 l -1.183224,1.259135 c -1.1691,1.244103 -1.311342,1.359176 -1.470534,1.18964 -0.15139,-0.161228 -0.05429,-0.317187 0.695394,-1.117017 l 0.76065,-0.81152 h -0.774249 c -0.753053,0 -0.783921,-0.0049 -1.127717,-0.179163 -0.412561,-0.209114 -0.706944,-0.504563 -0.706944,-0.709507 0,-0.1992169 0.366721,-0.5547182 0.689808,-0.6687021 0.144015,-0.050807 1.092337,-0.2625021 2.10738,-0.4704288 1.015044,-0.2079267 1.85811,-0.3914405 1.873479,-0.4078096 0.01537,-0.016368 -0.295109,-0.3745156 -0.689953,-0.7958838 L 14.259998,7.0091558 V 6.1435594 5.2779631 L 13.444294,4.402704 C 12.644607,3.5446317 12.54447,3.388008 12.693845,3.228925 12.848138,3.0646069 12.992949,3.172289 13.865141,4.0998723 l 0.88428,0.9404443 v 0.8704028 0.8704027 l 0.570992,0.6060275 0.570994,0.6060272 V 7.3659102 c 0,-0.722192 0.0739,-0.958772 0.361448,-1.1570248 l 0.181008,-0.1248005 6.74e-4,-0.8136916 c 7.07e-4,-0.8536759 0.02621,-0.9526852 0.245384,-0.9526852 0.219251,0 0.244694,0.098913 0.245055,0.9526852 l 3.26e-4,0.8136916 0.161661,0.097962 c 0.309194,0.187362 0.381023,0.403302 0.38125,1.146154 l 2.22e-4,0.6649761 0.570993,-0.6060274 0.570993,-0.6060274 V 5.9153459 5.0495698 l 0.881531,-0.9450706 c 0.873573,-0.9365405 1.016623,-1.0432244 1.174044,-0.8755742 0.15418,0.1641985 0.05555,0.3187131 -0.750448,1.1756537 l -0.815704,0.8672618 v 0.889765 0.889765 l -0.709981,0.7690965 -0.70998,0.7690965 0.642004,0.128341 c 2.214161,0.4426249 3.342066,0.6983548 3.529669,0.8002824 0.3177,0.1726105 0.511105,0.4026004 0.511105,0.6077851 0,0.236559 -0.332276,0.568349 -0.744734,0.743648 -0.275032,0.116892 -0.411056,0.13436 -1.056362,0.135662 l -0.74068,0.0015 0.727086,0.817701 c 0.436963,0.491419 0.727084,0.864109 0.727084,0.934009 0,0.158531 -0.135734,0.26627 -0.284789,0.226051 -0.06769,-0.01827 -0.636956,-0.582982 -1.265049,-1.254931 l -1.141986,-1.221723 -0.0159,0.474231 -0.01591,0.474234 1.089921,2.043526 c 0.599456,1.123939 1.08992,2.094623 1.08992,2.157074 0,0.150911 -0.127847,0.256904 -0.281682,0.233525 -0.101318,-0.0154 -0.334868,-0.412888 -1.253136,-2.132783 l -1.128609,-2.113861 -6.03e-4,-0.726863 -6.04e-4,-0.726862 -0.246166,-0.127368 C 17.685068,9.992648 17.550477,9.9353318 17.521366,9.9353318 c -0.03302,0 -0.05292,0.5949772 -0.05292,1.5821232 0,1.828347 -0.03642,2.060958 -0.379965,2.426824 -0.372022,0.396223 -0.775075,0.251509 -1.04029,-0.373475 -0.125409,-0.295525 -0.130131,-0.359292 -0.146279,-1.975345 -0.01263,-1.264465 -0.03244,-1.6632735 -0.08157,-1.6424244 -0.03568,0.015152 -0.168886,0.072325 -0.296001,0.1270494 l -0.231117,0.09952 v 0.745862 0.745862 l -1.069232,2.013243 c -0.588078,1.107282 -1.105764,2.058849 -1.150414,2.11459 -0.09943,0.124136 -0.299255,0.131704 -0.390367,0.01478 z"
     id="path4142"
     inkscape:connector-curvature="0" />
  <g
     transform="translate(0.0350045,-0.00645134)"
     id="Page-1-3"
     style="fill:#800080;fill-opacity:1;fill-rule:evenodd;stroke:none;stroke-width:1">
    <g
       id="Icons-Communication-67"
       transform="translate(-211,-82)"
       style="fill:#800080;fill-opacity:1">
      <g
         id="live-help-53"
         transform="translate(211,82.5)"
         style="fill:#800080;fill-opacity:1">
        <path
           d="M 16,0 H 2 C 0.9,0 0,0.9 0,2 v 14 c 0,1.1 0.9,2 2,2 h 4 l 3,3 3,-3 h 4 c 1.1,0 2,-0.9 2,-2 V 2 C 18,0.9 17.1,0 16,0 Z"
           id="Shape-5"
           inkscape:connector-curvature="0"
           sodipodi:nodetypes="csssscccssscc"
           style="fill:#800080;fill-opacity:1" />
      </g>
    </g>
  </g>
  <g
     transform="matrix(0.9108143,0,0,0.91204869,0.8541209,0.70193166)"
     style="fill:#a24f96;fill-opacity:1;fill-rule:evenodd;stroke:none;stroke-width:1"
     id="Page-1-0-6">
    <g
       style="fill:#a24f96;fill-opacity:1"
       id="Icons-Communication-6-2"
       transform="translate(-211,-82)">
      <g
         id="live-help-8-9"
         transform="translate(211,82.5)"
         style="fill:#a24f96;fill-opacity:1">
        <path
           d="M 16,0 H 2 C 0.9,0 0,0.9 0,2 v 14 c 0,1.1 0.9,2 2,2 h 4 l 3,3 3,-3 h 4 c 1.1,0 2,-0.9 2,-2 V 2 C 18,0.9 17.1,0 16,0 Z"
           id="Shape-7-1"
           inkscape:connector-curvature="0"
           sodipodi:nodetypes="csssscccssscc"
           style="fill:#a24f96;fill-opacity:1" />
      </g>
    </g>
  </g>
  <path
     inkscape:connector-curvature="0"
     d="m 14.013484,9.2254317 -3.791173,-0.726949 c -0.02309,-0.00406 -0.04444,-0.00581 -0.06695,-0.00929 l 1.445713,-1.4538986 c 0.05367,-0.054579 0.08426,-0.1283193 0.08426,-0.2055432 V 5.2080502 l 1.647131,-1.6571195 c 0.112541,-0.113223 0.112541,-0.297282 0,-0.410505 -0.11254,-0.113223 -0.295491,-0.113223 -0.408031,0 l -1.731389,1.7418909 c -0.05425,0.054579 -0.08484,0.1283193 -0.08484,0.2055431 V 6.7095604 L 9.9539428,7.8708213 V 6.8297509 c 0,-0.3768291 -0.242395,-0.6967565 -0.577131,-0.816947 V 4.5072297 c 0,-0.159674 -0.129854,-0.290316 -0.288565,-0.290316 -0.158711,0 -0.288566,0.130642 -0.288566,0.290316 V 6.0128039 C 8.4649468,6.1329944 8.2225521,6.4529218 8.2225521,6.8297509 V 7.8708213 L 7.0682903,6.7095604 V 5.0878597 c 0,-0.077224 -0.030588,-0.1509639 -0.084261,-0.2055431 L 5.2526366,3.1404257 c -0.1125406,-0.113223 -0.295491,-0.113223 -0.4080316,0 -0.1125405,0.113223 -0.1125405,0.297282 0,0.410505 l 1.6465544,1.6571195 v 1.6217007 c 0,0.077224 0.030588,0.1509639 0.084261,0.2055432 l 1.4457128,1.4544792 c -0.023085,0.00348 -0.044439,0.00465 -0.067524,0.00929 L 4.1624363,9.2254317 c -0.6233013,0.11961 -1.133485,0.47844 -1.1340622,0.7977863 -5.771e-4,0.319347 0.5038353,0.707789 1.119634,0.862237 l 0.068678,0.01684 c 0.4397738,0.110319 1.0601895,0.09348 1.5905728,-0.02148 L 4.266897,12.430517 c -0.1125405,0.113223 -0.1125405,0.297283 0,0.410506 0.056559,0.0569 0.1304316,0.08535 0.2043044,0.08535 0.073873,0 0.1477455,-0.02845 0.2043043,-0.08477 l 2.3927846,-2.407875 v 0.963847 l -2.2704329,3.997641 c -0.079067,0.13877 -0.031165,0.316443 0.1073464,0.39657 0.045016,0.02555 0.094649,0.03774 0.1431284,0.03774 0.1004208,0 0.1973788,-0.05284 0.251052,-0.146318 l 2.3085235,-4.064413 c 0.02424,-0.04355 0.037514,-0.09348 0.037514,-0.143997 V 10.112059 L 8.0401792,9.9291597 c 0.06233,-0.02903 0.1229289,-0.06155 0.1823734,-0.09522 0,0 0,2.0037563 0,2.8021233 0,0.798366 0.3895632,1.451576 0.8656962,1.451576 0.476133,0 0.865696,-0.65321 0.865696,-1.451576 0,-0.798367 0,-2.8021233 0,-2.8021233 0.06002,0.03368 0.1200442,0.06619 0.1823742,0.09522 l 0.394758,0.1828993 v 1.362739 c 0,0.05052 0.0127,0.100449 0.03751,0.143997 l 2.308523,4.064413 c 0.05367,0.09348 0.151208,0.146318 0.251052,0.146318 0.04906,0 0.09811,-0.01219 0.143129,-0.03774 0.138511,-0.08013 0.186413,-0.257219 0.107923,-0.39657 l -2.27101,-3.99764 v -0.963847 l 2.392785,2.407294 c 0.05656,0.0569 0.130431,0.08535 0.204304,0.08535 0.07387,0 0.147746,-0.02845 0.204304,-0.08477 0.112541,-0.113223 0.112541,-0.297283 0,-0.410506 l -1.540362,-1.549704 c 0.530383,0.114965 1.150799,0.132384 1.590573,0.02148 l 0.06868,-0.01684 c 0.615797,-0.155028 1.119632,-0.54347 1.119632,-0.862817 -5.77e-4,-0.3193463 -0.510761,-0.6781763 -1.134639,-0.7977863 z"
     id="path4-9-2"
     style="fill:#ffff00" />
  <path
     style="fill:#ffffff;fill-opacity:1;stroke:#000000;stroke-width:0.02883198;stroke-miterlimit:4;stroke-dasharray:none;stroke-opacity:1"
     d="M 4.8407748,15.698388 C 4.8014328,15.650988 4.7821018,15.563031 4.7978168,15.502937 4.8135318,15.442847 5.33557,14.497971 5.957902,13.40322 L 7.0894146,11.412766 V 10.903372 10.393979 L 5.8269448,11.65547 C 4.686089,12.795442 4.5500816,12.913349 4.4150559,12.87946 4.3185469,12.85524 4.2523746,12.78912 4.2281846,12.692737 4.1947266,12.55943 4.2787376,12.455355 5.0159764,11.716798 l 0.8252438,-0.826719 -0.6346441,0.03348 C 4.503085,10.960669 4.1149603,10.897129 3.6872405,10.674809 3.2763336,10.46123 3.0529368,10.222307 3.0529368,9.9964207 c 0,-0.168589 0.4183666,-0.531463 0.7314611,-0.63444 C 3.9371101,9.3117507 4.941985,9.1016847 6.0174533,8.8951597 7.0929218,8.688636 7.9868944,8.5056177 8.0040592,8.4884529 8.0212242,8.4712879 7.6927071,8.1139767 7.2740215,7.6944276 L 6.5127751,6.931611 V 6.0697514 5.2078919 L 5.6478155,4.3364117 C 4.7998405,3.4820437 4.6936572,3.3260957 4.8520527,3.1676997 5.015662,3.0040907 5.1692172,3.1112997 6.0940749,4.0348877 L 7.0317508,4.9712713 V 5.8379166 6.7045618 L 7.6372225,7.307973 8.2426942,7.9113841 V 7.2868254 c 0,-0.7223803 0.082295,-0.9671808 0.3852226,-1.1459126 L 8.8193338,6.027974 V 5.2514153 c 0,-0.8283906 0.04282,-0.9996326 0.249984,-0.9996326 0.242939,0 0.268971,0.09168 0.269356,0.9485721 l 3.46e-4,0.8101788 0.171424,0.097539 c 0.326197,0.1856048 0.40403,0.4027391 0.404271,1.1278201 1.15e-4,0.3567958 0.02218,0.6487197 0.04902,0.6487197 0.02684,0 0.2993042,-0.2701357 0.6054712,-0.6003016 L 11.125893,6.6840092 V 5.8322469 4.9804846 l 0.934761,-0.9409909 c 0.926323,-0.932497 1.078011,-1.03872 1.244937,-0.871794 0.16349,0.163489 0.0589,0.317337 -0.795762,1.170579 l -0.86496,0.863517 V 6.058053 6.9143103 L 10.89773,7.6998839 c -0.410927,0.4320655 -0.741509,0.791205 -0.734626,0.7980876 0.0069,0.00688 0.904155,0.184385 1.99394,0.3944502 1.089784,0.210064 2.112416,0.431707 2.272516,0.49254 0.381861,0.145096 0.675147,0.428386 0.675147,0.6521373 0,0.317049 -0.56936,0.713828 -1.226585,0.854786 -0.182139,0.03906 -0.550971,0.05151 -0.931604,0.03143 l -0.630094,-0.03324 0.817502,0.818963 c 0.535742,0.5367 0.817502,0.860999 0.817502,0.940925 0,0.167074 -0.142253,0.271629 -0.311703,0.229099 -0.07986,-0.02004 -0.643572,-0.556458 -1.309638,-1.246214 -0.643187,-0.666064 -1.190226,-1.211024 -1.215644,-1.211024 -0.02542,0 -0.04621,0.214367 -0.04621,0.476372 v 0.476372 l 1.15328,2.031436 c 0.634303,1.117291 1.153279,2.080416 1.153279,2.140278 0,0.146319 -0.137212,0.251359 -0.298227,0.228301 -0.106825,-0.0153 -0.356638,-0.414872 -1.327652,-2.123577 l -1.196068,-2.104735 -0.0018,-0.723725 -0.0018,-0.723725 -0.261031,-0.1268193 c -0.143557,-0.069746 -0.286276,-0.126814 -0.3171432,-0.126814 -0.03502,0 -0.05612,0.5924073 -0.05612,1.5752933 0,1.820453 -0.03862,2.05206 -0.402907,2.416348 -0.38449,0.38449 -0.807628,0.247143 -1.089341,-0.353591 C 8.2721906,13.162283 8.2714455,13.15358 8.2531514,11.503027 8.2427694,10.56635 8.2120854,9.8451877 8.1826144,9.8451877 c -0.028689,0 -0.1696262,0.05707 -0.313193,0.126819 L 7.6083909,10.098825 v 0.736805 0.736805 l -1.0722451,1.889831 c -1.3286198,2.341691 -1.3162057,2.322311 -1.4875591,2.322311 -0.074955,0 -0.1684698,-0.03879 -0.2078119,-0.08619 z"
     id="path4142-7"
     inkscape:connector-curvature="0" />
  <g
     transform="translate(21.474765,0.0673934)"
     id="Page-1-3-0"
     style="fill:#800080;fill-opacity:1;fill-rule:evenodd;stroke:none;stroke-width:1">
    <g
       id="Icons-Communication-67-9"
       transform="translate(-211,-82)"
       style="fill:#800080;fill-opacity:1">
      <g
         id="live-help-53-3"
         transform="translate(211,82.5)"
         style="fill:#800080;fill-opacity:1">
        <path
           d="M 16,0 H 2 C 0.9,0 0,0.9 0,2 v 14 c 0,1.1 0.9,2 2,2 h 4 l 3,3 3,-3 h 4 c 1.1,0 2,-0.9 2,-2 V 2 C 18,0.9 17.1,0 16,0 Z"
           id="Shape-5-6"
           inkscape:connector-curvature="0"
           sodipodi:nodetypes="csssscccssscc"
           style="fill:#800080;fill-opacity:1" />
      </g>
    </g>
  </g>
  <g
     transform="matrix(0.9108143,0,0,0.91204869,22.293882,0.7757764)"
     style="fill:#a24f96;fill-opacity:1;fill-rule:evenodd;stroke:none;stroke-width:1"
     id="Page-1-0-6-0">
    <g
       style="fill:#a24f96;fill-opacity:1"
       id="Icons-Communication-6-2-6"
       transform="translate(-211,-82)">
      <g
         id="live-help-8-9-2"
         transform="translate(211,82.5)"
         style="fill:#a24f96;fill-opacity:1">
        <path
           d="M 16,0 H 2 C 0.9,0 0,0.9 0,2 v 14 c 0,1.1 0.9,2 2,2 h 4 l 3,3 3,-3 h 4 c 1.1,0 2,-0.9 2,-2 V 2 C 18,0.9 17.1,0 16,0 Z"
           id="Shape-7-1-6"
           inkscape:connector-curvature="0"
           sodipodi:nodetypes="csssscccssscc"
           style="fill:#a24f96;fill-opacity:1" />
      </g>
    </g>
  </g>
</svg>
