<?xml version="1.0" encoding="UTF-8" standalone="no"?>
<svg
   xmlns:dc="http://purl.org/dc/elements/1.1/"
   xmlns:cc="http://creativecommons.org/ns#"
   xmlns:rdf="http://www.w3.org/1999/02/22-rdf-syntax-ns#"
   xmlns:svg="http://www.w3.org/2000/svg"
   xmlns="http://www.w3.org/2000/svg"
   xmlns:sodipodi="http://sodipodi.sourceforge.net/DTD/sodipodi-0.dtd"
   xmlns:inkscape="http://www.inkscape.org/namespaces/inkscape"
   height="23px"
   version="1.1"
   viewBox="0 0 18 23"
   width="18px"
   id="svg4187"
   inkscape:version="0.91 r13725"
   sodipodi:docname="marker_site_water.svg"
   inkscape:export-filename="/home/marc/sigte/projectes_marc/mosquito/test.png"
   inkscape:export-xdpi="90"
   inkscape:export-ydpi="90">
  <metadata
     id="metadata4201">
    <rdf:RDF>
      <cc:Work
         rdf:about="">
        <dc:format>image/svg+xml</dc:format>
        <dc:type
           rdf:resource="http://purl.org/dc/dcmitype/StillImage" />
        <dc:title />
      </cc:Work>
    </rdf:RDF>
  </metadata>
  <sodipodi:namedview
     pagecolor="#ffffff"
     bordercolor="#666666"
     borderopacity="1"
     objecttolerance="10"
     gridtolerance="10"
     guidetolerance="10"
     inkscape:pageopacity="0"
     inkscape:pageshadow="2"
     inkscape:window-width="1680"
     inkscape:window-height="988"
     id="namedview4199"
     showgrid="false"
     inkscape:zoom="17.341851"
     inkscape:cx="-9.6937851"
     inkscape:cy="10.161842"
     inkscape:window-x="-8"
     inkscape:window-y="-8"
     inkscape:window-maximized="1"
     inkscape:current-layer="svg4187" />
  <desc
     id="desc4191" />
  <defs
     id="defs4193" />
  <path
     style="fill:#0000ff;fill-opacity:1;stroke:#000000;stroke-width:0.60000002;stroke-miterlimit:4;stroke-dasharray:none;stroke-opacity:1"
     d="M 8.53706,22.245637 C 8.376689,22.078913 7.9266789,21.55071 7.5370379,21.071853 5.0839699,18.057106 3.1702179,15.235175 1.8710609,12.717064 0.94504393,10.922197 0.70551993,10.047791 0.70217493,8.44993 c -0.003,-1.434227 0.196848,-2.3325307 0.79539097,-3.5751663 0.501534,-1.0412368 1.147765,-1.871792 2.048297,-2.6325323 1.194388,-1.0089809 2.569599,-1.63398707 4.122974,-1.8738104 0.8418621,-0.12997387 2.2133863,-0.07667 3.0480841,0.11846283 3.12365,0.73023577 5.512225,3.15853747 6.216235,6.31962297 0.175546,0.7882221 0.190713,2.3342537 0.0307,3.1294174 -0.288225,1.4323018 -1.055749,3.0463578 -2.638692,5.5490098 -1.757582,2.778759 -5.0366669,7.063837 -5.4054839,7.063837 -0.05007,0 -0.2222491,-0.13641 -0.3826201,-0.303134 z"
     id="path4149"
     inkscape:connector-curvature="0"
     sodipodi:nodetypes="sssssssssssss" />
</svg>
