<?xml version="1.0" encoding="utf-8"?>
<!-- Generator: Adobe Illustrator 15.0.0, SVG Export Plug-In  -->
<!DOCTYPE svg PUBLIC "-//W3C//DTD SVG 1.1//EN" "http://www.w3.org/Graphics/SVG/1.1/DTD/svg11.dtd" [
	<!ENTITY ns_flows "http://ns.adobe.com/Flows/1.0/">
]>
<svg version="1.1"
	 xmlns="http://www.w3.org/2000/svg" xmlns:xlink="http://www.w3.org/1999/xlink" xmlns:a="http://ns.adobe.com/AdobeSVGViewerExtensions/3.0/"
	 x="0px" y="0px" width="42px" height="56px" viewBox="-0.853 -0.25 42 56"
	 overflow="visible" enable-background="new -0.853 -0.25 42 56" xml:space="preserve">
<defs>
</defs>
<path fill="#FFFF33" stroke="#000000" stroke-width="0.5" stroke-miterlimit="10" d="M20.249,0.25C9.221,0.25,0.25,9.333,0.25,20.5
	c0,2.912,0.589,5.692,1.748,8.264c5.001,11.079,14.588,22.774,17.408,26.095c0.212,0.249,0.519,0.392,0.844,0.392
	c0.323,0,0.632-0.143,0.843-0.392c2.818-3.32,12.405-15.015,17.408-26.095c1.161-2.572,1.749-5.352,1.749-8.264
	C40.249,9.333,31.276,0.25,20.249,0.25z M20.249,31.017c-5.729,0-10.389-4.719-10.389-10.518c0-5.8,4.66-10.519,10.389-10.519
	c5.728,0,10.389,4.719,10.389,10.519C30.638,26.298,25.979,31.017,20.249,31.017z"/>
</svg>
