<?xml version="1.0" encoding="UTF-8" standalone="no"?>
<svg
   xmlns:dc="http://purl.org/dc/elements/1.1/"
   xmlns:cc="http://creativecommons.org/ns#"
   xmlns:rdf="http://www.w3.org/1999/02/22-rdf-syntax-ns#"
   xmlns:svg="http://www.w3.org/2000/svg"
   xmlns="http://www.w3.org/2000/svg"
   xmlns:sodipodi="http://sodipodi.sourceforge.net/DTD/sodipodi-0.dtd"
   xmlns:inkscape="http://www.inkscape.org/namespaces/inkscape"
   height="23px"
   version="1.1"
   viewBox="0 0 18 23"
   width="18px"
   id="svg4187"
   inkscape:version="0.92.3 (2405546, 2018-03-11)"
   sodipodi:docname="marker_albopictus_2.svg"
   inkscape:export-filename="/home/marc/sigte/projectes_marc/mosquito/test.png"
   inkscape:export-xdpi="90"
   inkscape:export-ydpi="90">
  <metadata
     id="metadata4201">
    <rdf:RDF>
      <cc:Work
         rdf:about="">
        <dc:format>image/svg+xml</dc:format>
        <dc:type
           rdf:resource="http://purl.org/dc/dcmitype/StillImage" />
        <dc:title />
      </cc:Work>
    </rdf:RDF>
  </metadata>
  <sodipodi:namedview
     pagecolor="#ffffff"
     bordercolor="#666666"
     borderopacity="1"
     objecttolerance="10"
     gridtolerance="10"
     guidetolerance="10"
     inkscape:pageopacity="0"
     inkscape:pageshadow="2"
     inkscape:window-width="1533"
     inkscape:window-height="845"
     id="namedview4199"
     showgrid="false"
     inkscape:zoom="17.341851"
     inkscape:cx="-4.1324002"
     inkscape:cy="13.10223"
     inkscape:window-x="67"
     inkscape:window-y="27"
     inkscape:window-maximized="1"
     inkscape:current-layer="svg4187" />
  <desc
     id="desc4191" />
  <defs
     id="defs4193" />
  <g
     fill="none"
     fill-rule="evenodd"
     id="Page-1"
     stroke="none"
     stroke-width="1"
     style="fill:#800000">
    <g
       fill="#000000"
       id="Icons-Communication"
       transform="translate(-211.000000, -82.000000)"
       style="fill:#800000">
      <g
         id="live-help"
         transform="translate(211.000000, 82.500000)"
         style="fill:#800000">
        <path
           d="M 16,0 2,0 C 0.9,0 0,0.9 0,2 l 0,14 c 0,1.1 0.9,2 2,2 l 4,0 3,3 3,-3 4,0 c 1.1,0 2,-0.9 2,-2 L 18,2 C 18,0.9 17.1,0 16,0 Z"
           id="Shape"
           inkscape:connector-curvature="0"
           sodipodi:nodetypes="csssscccssscc"
           style="fill:#800000;fill-opacity:1" />
      </g>
    </g>
  </g>
  <g
     transform="matrix(0.9108143,0,0,0.91204869,0.81911635,0.70838256)"
     style="fill:#e10f21;fill-rule:evenodd;stroke:none;stroke-width:1;fill-opacity:1"
     id="Page-1-0">
    <g
       style="fill:#e10f21;fill-opacity:1"
       id="Icons-Communication-6"
       transform="translate(-211,-82)">
      <g
         id="live-help-8"
         transform="translate(211,82.5)"
         style="fill:#e10f21;fill-opacity:1">
        <path
           d="M 16,0 2,0 C 0.9,0 0,0.9 0,2 l 0,14 c 0,1.1 0.9,2 2,2 l 4,0 3,3 3,-3 4,0 c 1.1,0 2,-0.9 2,-2 L 18,2 C 18,0.9 17.1,0 16,0 Z"
           id="Shape-7"
           inkscape:connector-curvature="0"
           sodipodi:nodetypes="csssscccssscc"
           style="fill:#e10f21;fill-opacity:1" />
      </g>
    </g>
  </g>
  <path
     inkscape:connector-curvature="0"
     d="M 13.978479,9.2318831 10.187306,8.5049338 c -0.02309,-0.00406 -0.04444,-0.00581 -0.06695,-0.00929 l 1.445713,-1.4538986 c 0.05367,-0.054579 0.08426,-0.1283193 0.08426,-0.2055432 l 0,-1.6217007 1.647131,-1.6571192 c 0.112541,-0.1132229 0.112541,-0.2972828 0,-0.4105057 -0.11254,-0.1132229 -0.295491,-0.1132229 -0.408031,0 L 11.15804,4.8887677 c -0.05425,0.054579 -0.08484,0.1283193 -0.08484,0.2055431 l 0,1.6217007 -1.1542617,1.1612609 0,-1.0410704 c 0,-0.3768291 -0.242395,-0.6967565 -0.5771309,-0.816947 l 0,-1.5055746 c 0,-0.1596734 -0.1298545,-0.2903152 -0.2885655,-0.2903152 -0.158711,0 -0.2885654,0.1306418 -0.2885654,0.2903152 l 0,1.5055746 C 8.4299426,6.1394455 8.1875476,6.4593729 8.1875476,6.836202 l 0,1.0410704 -1.1542618,-1.1612609 0,-1.6217007 c 0,-0.077224 -0.030588,-0.1509639 -0.084261,-0.2055431 L 5.2176321,3.1468764 c -0.1125406,-0.1132229 -0.295491,-0.1132229 -0.4080316,0 -0.1125405,0.1132229 -0.1125405,0.2972828 0,0.4105057 l 1.6465544,1.6571192 0,1.6217007 c 0,0.077224 0.030588,0.1509639 0.084261,0.2055432 l 1.4457128,1.4544792 c -0.023085,0.00348 -0.044439,0.00465 -0.067524,0.00929 L 4.1274318,9.2318831 c -0.6233013,0.11961 -1.133485,0.4784395 -1.1340622,0.7977859 -5.771e-4,0.319347 0.5038353,0.707789 1.119634,0.862237 l 0.068678,0.01684 c 0.4397738,0.110319 1.0601895,0.09348 1.5905728,-0.02148 l -1.5403619,1.549702 c -0.1125405,0.113223 -0.1125405,0.297283 0,0.410506 0.056559,0.0569 0.1304316,0.08535 0.2043044,0.08535 0.073873,0 0.1477455,-0.02845 0.2043043,-0.08477 l 2.3927846,-2.407875 0,0.963847 -2.2704329,3.997641 c -0.079067,0.13877 -0.031165,0.316443 0.1073464,0.39657 0.045016,0.02555 0.094649,0.03774 0.1431284,0.03774 0.1004208,0 0.1973788,-0.05284 0.251052,-0.146318 l 2.3085235,-4.064413 c 0.02424,-0.04355 0.037514,-0.09348 0.037514,-0.143997 l 0,-1.362739 0.3947575,-0.1828987 c 0.06233,-0.029032 0.1229289,-0.061547 0.1823734,-0.095223 0,0 0,2.0037557 0,2.8021227 0,0.798366 0.3895633,1.451576 0.8656963,1.451576 0.476133,0 0.8656964,-0.65321 0.8656964,-1.451576 0,-0.798367 0,-2.8021227 0,-2.8021227 0.060022,0.033676 0.1200432,0.066192 0.1823732,0.095223 l 0.394758,0.1828987 0,1.362739 c 0,0.05052 0.0127,0.100449 0.03751,0.143997 l 2.308523,4.064413 c 0.05367,0.09348 0.151208,0.146318 0.251052,0.146318 0.04906,0 0.09811,-0.01219 0.143129,-0.03774 0.138511,-0.08013 0.186413,-0.257219 0.107923,-0.39657 l -2.27101,-3.99764 0,-0.963847 2.392785,2.407294 c 0.05656,0.0569 0.130431,0.08535 0.204304,0.08535 0.07387,0 0.147746,-0.02845 0.204304,-0.08477 0.112541,-0.113223 0.112541,-0.297283 0,-0.410506 l -1.540362,-1.549704 c 0.530383,0.114965 1.150799,0.132384 1.590573,0.02148 l 0.06868,-0.01684 c 0.615797,-0.155028 1.119632,-0.54347 1.119632,-0.862817 -5.77e-4,-0.3193464 -0.510761,-0.6781759 -1.134639,-0.7977859 z"
     id="path4-9"
     style="fill:#ffff00" />
  <path
     style="fill:#ffffff;fill-opacity:1;stroke-width:25;stroke-miterlimit:4;stroke-dasharray:none"
     d="m 4.8057703,15.704839 c -0.039342,-0.0474 -0.058474,-0.136117 -0.042516,-0.197141 0.015958,-0.06102 0.5379964,-1.008107 1.1600852,-2.104628 l 1.1310704,-1.993675 0,-0.504483 0,-0.504482 -1.2546721,1.253699 C 4.560045,12.892862 4.4092133,13.007437 4.2404085,12.838633 4.0798773,12.678101 4.1828315,12.522816 4.9777928,11.726439 l 0.8065809,-0.808017 -0.8209969,0 c -0.7985247,0 -0.8312565,-0.0049 -1.1958129,-0.17839 -0.437473,-0.20821 -0.7496316,-0.502385 -0.7496316,-0.706444 0,-0.1983569 0.3888651,-0.5523226 0.7314611,-0.6658145 C 3.9021056,9.3171843 4.90769,9.1064052 5.9840257,8.899376 7.0603613,8.6923467 7.954334,8.5096247 7.9706315,8.4933271 7.9869291,8.4770296 7.6577026,8.1204278 7.239017,7.7008787 l -0.7612464,-0.7628166 0,-0.8618596 0,-0.8618595 L 5.612811,4.3428624 C 4.764836,3.4884945 4.6586527,3.3325465 4.8170482,3.1741509 4.9806575,3.0105417 5.1342127,3.1177548 6.0590704,4.0413383 l 0.9376759,0.9363841 0,0.8666453 0,0.8666452 0.6054717,0.6034112 0.6054717,0.6034111 0,-0.6245587 c 0,-0.7190743 0.078369,-0.9546331 0.3832738,-1.15203 L 8.7829017,6.0169847 8.7836156,5.2068059 c 7.49e-4,-0.8499907 0.027791,-0.9485723 0.2602017,-0.9485723 0.2324908,0 0.25947,0.098486 0.2598523,0.9485723 l 3.46e-4,0.8101788 0.1714235,0.097539 c 0.327864,0.1865529 0.4040307,0.4015607 0.4042711,1.1412058 l 2.347e-4,0.6621054 0.6054721,-0.6034111 0.605471,-0.6034112 0,-0.8620384 0,-0.8620385 0.934761,-0.9409909 c 0.926323,-0.9324975 1.078011,-1.0387204 1.244937,-0.8717942 0.16349,0.1634896 0.0589,0.3173372 -0.795762,1.1705787 l -0.86496,0.8635175 0,0.885924 0,0.8859238 -0.752852,0.7657763 -0.752851,0.7657762 0.680771,0.127787 c 2.347859,0.4407141 3.543872,0.6953403 3.742803,0.7968272 0.336883,0.1718652 0.541967,0.400862 0.541967,0.6051604 0,0.235537 -0.35234,0.565896 -0.789703,0.740438 -0.29164,0.116387 -0.435878,0.13378 -1.120149,0.135076 l -0.785405,0.0015 0.770989,0.814171 c 0.463348,0.489298 0.770989,0.860379 0.770989,0.929978 0,0.157846 -0.143931,0.265119 -0.301987,0.225074 -0.07177,-0.01819 -0.675417,-0.580465 -1.341436,-1.249513 l -1.210944,-1.21645 -0.01687,0.472185 -0.01687,0.472186 1.155734,2.034704 c 0.635654,1.119087 1.155734,2.08558 1.155734,2.147762 0,0.150261 -0.135568,0.255795 -0.298691,0.232518 -0.107436,-0.01533 -0.355089,-0.411106 -1.328805,-2.123577 l -1.196759,-2.104735 -6.39e-4,-0.723725 -6.4e-4,-0.723725 -0.261031,-0.1268185 C 10.109652,9.9087071 9.9669333,9.8516388 9.9360664,9.8516388 c -0.035016,0 -0.056121,0.5924072 -0.056121,1.5752932 0,1.820453 -0.038619,2.05206 -0.4029068,2.416348 C 9.08256,14.237758 8.6551692,14.093668 8.3739392,13.471384 8.2409577,13.177133 8.2359506,13.113642 8.218828,11.504566 8.2054307,10.24556 8.184428,9.8484725 8.1323321,9.8692321 8.0944909,9.8843112 7.9532475,9.9412365 7.8184579,9.995733 l -0.2450719,0.099084 0,0.742643 0,0.742642 -1.1337969,2.004551 c -0.6235884,1.102503 -1.1725346,2.049961 -1.2198806,2.105463 -0.1054365,0.123599 -0.3173249,0.131135 -0.4139382,0.01472 z"
     id="path4142"
     inkscape:connector-curvature="0" />
</svg>
