<?xml version="1.0" encoding="UTF-8" standalone="no"?>
<svg
   xmlns:dc="http://purl.org/dc/elements/1.1/"
   xmlns:cc="http://creativecommons.org/ns#"
   xmlns:rdf="http://www.w3.org/1999/02/22-rdf-syntax-ns#"
   xmlns:svg="http://www.w3.org/2000/svg"
   xmlns="http://www.w3.org/2000/svg"
   xmlns:sodipodi="http://sodipodi.sourceforge.net/DTD/sodipodi-0.dtd"
   xmlns:inkscape="http://www.inkscape.org/namespaces/inkscape"
   width="700pt"
   height="700pt"
   version="1.1"
   viewBox="0 0 700 700"
   id="svg104"
   sodipodi:docname="noun-full-moon-4906880.svg"
   inkscape:version="0.92.3 (2405546, 2018-03-11)">
  <metadata
     id="metadata108">
    <rdf:RDF>
      <cc:Work
         rdf:about="">
        <dc:format>image/svg+xml</dc:format>
        <dc:type
           rdf:resource="http://purl.org/dc/dcmitype/StillImage" />
      </cc:Work>
    </rdf:RDF>
  </metadata>
  <sodipodi:namedview
     pagecolor="#ffffff"
     bordercolor="#666666"
     borderopacity="1"
     objecttolerance="10"
     gridtolerance="10"
     guidetolerance="10"
     inkscape:pageopacity="0"
     inkscape:pageshadow="2"
     inkscape:window-width="1920"
     inkscape:window-height="971"
     id="namedview106"
     showgrid="false"
     inkscape:zoom="0.25285714"
     inkscape:cx="-243.22035"
     inkscape:cy="450.84746"
     inkscape:window-x="1920"
     inkscape:window-y="31"
     inkscape:window-maximized="1"
     inkscape:current-layer="svg104" />
  <defs
     id="defs44">
    <symbol
       id="n"
       overflow="visible">
      <path
         d="m29.312-1.75c-1.5117 0.78125-3.0898 1.3711-4.7344 1.7656-1.6367 0.40625-3.3398 0.60938-5.1094 0.60938-5.3125 0-9.5273-1.4844-12.641-4.4531-3.1055-2.9688-4.6562-7-4.6562-12.094s1.5508-9.125 4.6562-12.094c3.1133-2.9688 7.3281-4.4531 12.641-4.4531 1.7695 0 3.4727 0.19922 5.1094 0.59375 1.6445 0.39844 3.2227 0.99219 4.7344 1.7812v6.5938c-1.5312-1.0391-3.0391-1.8008-4.5156-2.2812-1.4805-0.48828-3.0391-0.73438-4.6719-0.73438-2.9375 0-5.2461 0.94531-6.9219 2.8281-1.6797 1.875-2.5156 4.4648-2.5156 7.7656 0 3.293 0.83594 5.8828 2.5156 7.7656 1.6758 1.875 3.9844 2.8125 6.9219 2.8125 1.6328 0 3.1914-0.23828 4.6719-0.71875 1.4766-0.48828 2.9844-1.2539 4.5156-2.2969z"
         id="path2" />
    </symbol>
    <symbol
       id="i"
       overflow="visible">
      <path
         d="m21.453-17.406c-0.67969-0.3125-1.3516-0.53906-2.0156-0.6875-0.65625-0.15625-1.3203-0.23438-1.9844-0.23438-1.9688 0-3.4844 0.63281-4.5469 1.8906-1.0547 1.2617-1.5781 3.0703-1.5781 5.4219v11.016h-7.6562v-23.922h7.6562v3.9219c0.97656-1.5625 2.1016-2.7031 3.375-3.4219 1.2812-0.71875 2.8125-1.0781 4.5938-1.0781 0.25 0 0.52344 0.011719 0.82812 0.03125 0.30078 0.023438 0.73438 0.070312 1.2969 0.14062z"
         id="path5" />
    </symbol>
    <symbol
       id="b"
       overflow="visible">
      <path
         d="m27.562-12.031v2.1875h-17.891c0.1875 1.793 0.83203 3.1367 1.9375 4.0312 1.1133 0.89844 2.6719 1.3438 4.6719 1.3438 1.6016 0 3.25-0.23438 4.9375-0.70312 1.6875-0.47656 3.4219-1.2031 5.2031-2.1719v5.8906c-1.8047 0.6875-3.6094 1.2031-5.4219 1.5469-1.8125 0.35156-3.6211 0.53125-5.4219 0.53125-4.3359 0-7.7031-1.0977-10.109-3.2969-2.3984-2.207-3.5938-5.2969-3.5938-9.2656 0-3.9062 1.1758-6.9727 3.5312-9.2031 2.3633-2.2383 5.6094-3.3594 9.7344-3.3594 3.7578 0 6.7695 1.1367 9.0312 3.4062 2.2578 2.2617 3.3906 5.2812 3.3906 9.0625zm-7.8594-2.5312c0-1.457-0.42969-2.6289-1.2812-3.5156-0.84375-0.89453-1.9492-1.3438-3.3125-1.3438-1.4922 0-2.6992 0.41797-3.625 1.25-0.91797 0.83594-1.4922 2.0391-1.7188 3.6094z"
         id="path8" />
    </symbol>
    <symbol
       id="a"
       overflow="visible">
      <path
         d="m14.391-10.766c-1.5938 0-2.793 0.27344-3.5938 0.8125-0.80469 0.54297-1.2031 1.3398-1.2031 2.3906 0 0.96875 0.32031 1.7305 0.96875 2.2812 0.64453 0.54297 1.5469 0.8125 2.7031 0.8125 1.4375 0 2.6445-0.51562 3.625-1.5469 0.98828-1.0312 1.4844-2.3203 1.4844-3.875v-0.875zm11.688-2.8906v13.656h-7.7031v-3.5469c-1.0312 1.4492-2.1875 2.5078-3.4688 3.1719s-2.8398 1-4.6719 1c-2.4805 0-4.4961-0.72266-6.0469-2.1719-1.543-1.4453-2.3125-3.3203-2.3125-5.625 0-2.8125 0.96094-4.8672 2.8906-6.1719 1.9375-1.3125 4.9688-1.9688 9.0938-1.9688h4.5156v-0.60938c0-1.207-0.48047-2.0938-1.4375-2.6562-0.94922-0.5625-2.4375-0.84375-4.4688-0.84375-1.6367 0-3.1562 0.16797-4.5625 0.5-1.4062 0.32422-2.7188 0.8125-3.9375 1.4688v-5.8281c1.6445-0.40625 3.2891-0.70703 4.9375-0.90625 1.6562-0.20703 3.3047-0.3125 4.9531-0.3125 4.3203 0 7.4375 0.85547 9.3438 2.5625 1.9141 1.6992 2.875 4.4609 2.875 8.2812z"
         id="path11" />
    </symbol>
    <symbol
       id="h"
       overflow="visible">
      <path
         d="m12.031-30.719v6.7969h7.875v5.4688h-7.875v10.141c0 1.1172 0.21875 1.8711 0.65625 2.2656 0.4375 0.38672 1.3125 0.57812 2.625 0.57812h3.9375v5.4688h-6.5625c-3.0234 0-5.1641-0.62891-6.4219-1.8906-1.2617-1.2578-1.8906-3.3984-1.8906-6.4219v-10.141h-3.7969v-5.4688h3.7969v-6.7969z"
         id="path14" />
    </symbol>
    <symbol
       id="g"
       overflow="visible">
      <path
         d="m19.953-20.422v-12.812h7.6875v33.234h-7.6875v-3.4531c-1.0547 1.4062-2.2148 2.4375-3.4844 3.0938-1.2734 0.65625-2.7422 0.98438-4.4062 0.98438-2.9492 0-5.3711-1.1719-7.2656-3.5156-1.8867-2.3438-2.8281-5.3594-2.8281-9.0469s0.94141-6.7031 2.8281-9.0469c1.8945-2.3438 4.3164-3.5156 7.2656-3.5156 1.6562 0 3.1172 0.33594 4.3906 1 1.2812 0.65625 2.4453 1.6836 3.5 3.0781zm-5.0469 15.484c1.6445 0 2.8945-0.59766 3.75-1.7969 0.86328-1.1953 1.2969-2.9297 1.2969-5.2031 0-2.2812-0.43359-4.0195-1.2969-5.2188-0.85547-1.1953-2.1055-1.7969-3.75-1.7969-1.625 0-2.8711 0.60156-3.7344 1.7969-0.85547 1.1992-1.2812 2.9375-1.2812 5.2188 0 2.2734 0.42578 4.0078 1.2812 5.2031 0.86328 1.1992 2.1094 1.7969 3.7344 1.7969z"
         id="path17" />
    </symbol>
    <symbol
       id="f"
       overflow="visible">
      <path
         d="m16.406-4.9375c1.6328 0 2.8828-0.59766 3.75-1.7969 0.86328-1.1953 1.2969-2.9297 1.2969-5.2031 0-2.2812-0.43359-4.0195-1.2969-5.2188-0.86719-1.1953-2.1172-1.7969-3.75-1.7969-1.6367 0-2.8906 0.60547-3.7656 1.8125-0.875 1.1992-1.3125 2.9336-1.3125 5.2031 0 2.2617 0.4375 3.9961 1.3125 5.2031 0.875 1.1992 2.1289 1.7969 3.7656 1.7969zm-5.0781-15.484c1.0508-1.3945 2.2188-2.4219 3.5-3.0781 1.2812-0.66406 2.7539-1 4.4219-1 2.9453 0 5.3672 1.1719 7.2656 3.5156 1.8945 2.3438 2.8438 5.3594 2.8438 9.0469s-0.94922 6.7031-2.8438 9.0469c-1.8984 2.3438-4.3203 3.5156-7.2656 3.5156-1.668 0-3.1406-0.33594-4.4219-1s-2.4492-1.6914-3.5-3.0781v3.4531h-7.6562v-33.234h7.6562z"
         id="path20" />
    </symbol>
    <symbol
       id="e"
       overflow="visible">
      <path
         d="m0.53125-23.922h7.6562l6.4219 16.234 5.4688-16.234h7.6562l-10.062 26.188c-1.0117 2.6641-2.1953 4.5234-3.5469 5.5781-1.3438 1.0625-3.1211 1.5938-5.3281 1.5938h-4.4219v-5.0156h2.3906c1.3008 0 2.2422-0.21094 2.8281-0.625 0.59375-0.40625 1.0547-1.1484 1.3906-2.2188l0.20312-0.65625z"
         id="path23" />
    </symbol>
    <symbol
       id="d"
       overflow="visible">
      <path
         d="m32.688-2.375c-2.0547 1-4.1836 1.75-6.3906 2.25-2.2109 0.5-4.4844 0.75-6.8281 0.75-5.3125 0-9.5273-1.4844-12.641-4.4531-3.1055-2.9688-4.6562-7-4.6562-12.094 0-5.1328 1.5781-9.1758 4.7344-12.125 3.1641-2.9453 7.5-4.4219 13-4.4219 2.125 0 4.1562 0.19922 6.0938 0.59375 1.9453 0.39844 3.7852 0.99219 5.5156 1.7812v6.5938c-1.7812-1.0078-3.5547-1.7656-5.3125-2.2656-1.7617-0.5-3.5273-0.75-5.2969-0.75-3.2734 0-5.793 0.91797-7.5625 2.75-1.7734 1.8359-2.6562 4.4492-2.6562 7.8438 0 3.375 0.85156 5.9844 2.5625 7.8281 1.707 1.8359 4.1328 2.75 7.2812 2.75 0.85156 0 1.6445-0.050781 2.375-0.15625 0.73828-0.10156 1.3984-0.26953 1.9844-0.5v-6.2031h-5.0312v-5.5h12.828z"
         id="path26" />
    </symbol>
    <symbol
       id="m"
       overflow="visible">
      <path
         d="m3.4219-9.3125v-14.609h7.6875v2.3906c0 1.293-0.011719 2.918-0.03125 4.875-0.011719 1.9609-0.015625 3.2656-0.015625 3.9219 0 1.9297 0.046875 3.3125 0.14062 4.1562 0.10156 0.84375 0.28125 1.4609 0.53125 1.8438 0.3125 0.5 0.71875 0.88672 1.2188 1.1562 0.50781 0.27344 1.0938 0.40625 1.75 0.40625 1.5938 0 2.8438-0.60938 3.75-1.8281 0.91406-1.2266 1.375-2.9297 1.375-5.1094v-11.812h7.6406v23.922h-7.6406v-3.4531c-1.1562 1.3867-2.3828 2.4141-3.6719 3.0781-1.2812 0.66406-2.6992 1-4.25 1-2.7734 0-4.8828-0.84766-6.3281-2.5469-1.4375-1.6953-2.1562-4.1602-2.1562-7.3906z"
         id="path29" />
    </symbol>
    <symbol
       id="l"
       overflow="visible">
      <path
         d="m27.734-14.562v14.562h-7.7031v-11.156c0-2.0625-0.046875-3.4844-0.14062-4.2656-0.085937-0.78125-0.24219-1.3594-0.46875-1.7344-0.30469-0.5-0.71094-0.88281-1.2188-1.1562-0.51172-0.28125-1.0938-0.42188-1.75-0.42188-1.5938 0-2.8516 0.61719-3.7656 1.8438-0.90625 1.2305-1.3594 2.9375-1.3594 5.125v11.766h-7.6562v-23.922h7.6562v3.5c1.1445-1.3945 2.3633-2.4219 3.6562-3.0781 1.3008-0.66406 2.7383-1 4.3125-1 2.7578 0 4.8516 0.85156 6.2812 2.5469 1.4375 1.6875 2.1562 4.1523 2.1562 7.3906z"
         id="path32" />
    </symbol>
    <symbol
       id="c"
       overflow="visible">
      <path
         d="m19.953-4.0625c-1.0547 1.3984-2.2148 2.4219-3.4844 3.0781-1.2734 0.65625-2.7422 0.98438-4.4062 0.98438-2.918 0-5.3281-1.1484-7.2344-3.4531-1.9062-2.3008-2.8594-5.2266-2.8594-8.7812 0-3.582 0.95312-6.5156 2.8594-8.7969s4.3164-3.4219 7.2344-3.4219c1.6641 0 3.1328 0.32812 4.4062 0.98438 1.2695 0.64844 2.4297 1.6797 3.4844 3.0938v-3.5469h7.6875v21.516c0 3.8438-1.2148 6.7734-3.6406 8.7969-2.4297 2.0312-5.9492 3.0469-10.562 3.0469-1.5 0-2.9492-0.11719-4.3438-0.34375-1.3984-0.21875-2.7969-0.57031-4.2031-1.0469v-5.9531c1.3438 0.76953 2.6562 1.3438 3.9375 1.7188s2.5664 0.5625 3.8594 0.5625c2.5078 0 4.3477-0.54688 5.5156-1.6406 1.1641-1.0938 1.75-2.8047 1.75-5.1406zm-5.0469-14.891c-1.5742 0-2.8047 0.58984-3.6875 1.7656-0.88672 1.168-1.3281 2.8203-1.3281 4.9531 0 2.1875 0.42578 3.8516 1.2812 4.9844 0.85156 1.1367 2.0977 1.7031 3.7344 1.7031 1.5938 0 2.832-0.58203 3.7188-1.75 0.88281-1.1758 1.3281-2.8203 1.3281-4.9375 0-2.1328-0.44531-3.7852-1.3281-4.9531-0.88672-1.1758-2.125-1.7656-3.7188-1.7656z"
         id="path35" />
    </symbol>
    <symbol
       id="k"
       overflow="visible">
      <path
         d="m-0.42188-31.891h8.9844l7.2656 11.359 7.2656-11.359h9.0156l-12.156 18.453v13.438h-8.2188v-13.438z"
         id="path38" />
    </symbol>
    <symbol
       id="j"
       overflow="visible">
      <path
         d="m15.062-19.031c-1.6992 0-2.9961 0.60938-3.8906 1.8281-0.88672 1.2188-1.3281 2.9766-1.3281 5.2656 0 2.293 0.44141 4.0469 1.3281 5.2656 0.89453 1.2188 2.1914 1.8281 3.8906 1.8281 1.6641 0 2.9375-0.60938 3.8125-1.8281 0.88281-1.2188 1.3281-2.9727 1.3281-5.2656 0-2.2891-0.44531-4.0469-1.3281-5.2656-0.875-1.2188-2.1484-1.8281-3.8125-1.8281zm0-5.4688c4.1133 0 7.3281 1.1094 9.6406 3.3281s3.4688 5.2969 3.4688 9.2344c0 3.9297-1.1562 7.0078-3.4688 9.2344-2.3125 2.2188-5.5273 3.3281-9.6406 3.3281-4.1367 0-7.3711-1.1094-9.7031-3.3281-2.3242-2.2266-3.4844-5.3047-3.4844-9.2344 0-3.9375 1.1602-7.0156 3.4844-9.2344 2.332-2.2188 5.5664-3.3281 9.7031-3.3281z"
         id="path41" />
    </symbol>
  </defs>
  <g
     id="g954"
     transform="matrix(1.3190443,0,0,1.3076815,-105.73303,-9.030904)">
    <path
       d="m 566.56,262.69 c 0,20.5 16.676,37.188 37.188,37.188 1.9766,0 3.875,-0.28906 5.7656,-0.58594 0.47266,-6.3867 0.79688,-12.82 0.79688,-19.32 0,-18.656 -2.0117,-36.836 -5.7578,-54.391 -0.26953,0 -0.52344,-0.0781 -0.80469,-0.0781 -20.512,0 -37.188,16.688 -37.188,37.18801 z"
       id="path46"
       inkscape:connector-curvature="0" />
    <path
       d="m 323.79,426.29 c 0,20.535 -16.648,37.188 -37.188,37.188 -20.539,0 -37.188,-16.652 -37.188,-37.188 0,-20.539 16.648,-37.188 37.188,-37.188 20.539,0 37.188,16.648 37.188,37.188"
       id="path48"
       inkscape:connector-curvature="0" />
    <path
       d="m 470.64,459.71 c -20.512,0 -37.188,16.688 -37.188,37.188 0,10.012 4.0234,19.074 10.484,25.77 22.559,-8.7578 43.609,-20.527 62.625,-34.887 -4.0938,-16.082 -18.578,-28.07 -35.918,-28.07 z"
       id="path50"
       inkscape:connector-curvature="0" />
    <path
       d="m 387.19,249.52 c 0,20.539 -16.648,37.188 -37.188,37.188 -20.54,0 -37.188,-16.648 -37.188,-37.188 0,-20.539 16.648,-37.188 37.188,-37.188 20.54,0 37.188,16.648 37.188,37.188"
       id="path52"
       inkscape:connector-curvature="0" />
    <path
       d="m 350.05,30.266 c 0,15.68 12.758,28.438 28.438,28.438 15.68,0 28.438,-12.758 28.438,-28.438 0,-1.4961 -0.21875,-2.9297 -0.4375,-4.3672 -17.527,-3.8945 -35.699,-6.0391 -54.355,-6.1875 -1.3125,3.2734 -2.082,6.8164 -2.082,10.551 z"
       id="path54"
       inkscape:connector-curvature="0" />
    <path
       d="m 290.94,115.59 c 0,15.707 -12.73,28.438 -28.438,28.438 -15.708,0 -28.438,-12.73 -28.438,-28.438 0,-15.703 12.73,-28.438 28.438,-28.438 15.708,0 28.438,12.734 28.438,28.438"
       id="path56"
       inkscape:connector-curvature="0" />
    <path
       d="m 206.32,303.14 c 0,15.703 -12.73,28.438 -28.438,28.438 -15.703,0 -28.438,-12.734 -28.438,-28.438 0,-15.707 12.734,-28.438 28.438,-28.438 15.707,0 28.438,12.73 28.438,28.438"
       id="path58"
       inkscape:connector-curvature="0" />
    <path
       d="m 517.41,358.9 c 0,15.707 -12.73,28.438 -28.438,28.438 -15.707,0 -28.438,-12.73 -28.438,-28.438 0,-15.707 12.73,-28.438 28.438,-28.438 15.707,0 28.438,12.73 28.438,28.438"
       id="path60"
       inkscape:connector-curvature="0" />
    <path
       d="m 140,196.52 c 20.5,0 37.188,-16.688 37.188,-37.188 0,-19.496 -15.137,-35.359 -34.246,-36.891 -13.512,17.711 -24.797,37.195 -33.461,58.047 6.7188,9.668 17.875,16.031 30.512,16.031 z"
       id="path62"
       inkscape:connector-curvature="0" />
    <path
       d="m 512.72,150.59 c 0,20.539 -16.648,37.188 -37.188,37.188 -20.535,0 -37.188,-16.648 -37.188,-37.188 0,-20.535 16.652,-37.188 37.188,-37.188 20.539,0 37.188,16.652 37.188,37.188"
       id="path64"
       inkscape:connector-curvature="0" />
    <path
       d="m 603.75,313 c -27.746,0 -50.312,-22.574 -50.312,-50.312 0,-26.941 21.305,-48.949 47.957,-50.191 -23.793,-88.559 -93.23,-158.57 -181.44,-183.21 0,0.33203 0.0977,0.64844 0.0977,0.98047 0,22.918 -18.645,41.562 -41.562,41.562 -22.917,0 -41.562,-18.645 -41.562,-41.562 0,-3.5781 0.59375,-7 1.4531,-10.316 -74.234,3.2812 -140.45,37.809 -185.87,90.711 21.699,5.582 37.801,25.262 37.801,48.676 0,27.738 -22.574,50.312 -50.312,50.312 -14.027,0 -26.723,-5.7852 -35.848,-15.078 -9.328104,26.773 -14.465004,55.484 -14.465004,85.398 0,143.54 116.780004,260.31 260.310004,260.31 28.176,0 55.293,-4.5586 80.719,-12.871 -6.4922,-8.4688 -10.395,-19.031 -10.395,-30.504 0,-27.738 22.566,-50.312 50.312,-50.312 21.41,0 39.691,13.465 46.945,32.359 48.754,-41.125 82.199,-99.785 90.59,-166.17 -1.4609,0.13281 -2.9297,0.22656 -4.418,0.22656 z m -425.86,31.691 c -22.918,0 -41.562,-18.645 -41.562,-41.562 0,-22.918 18.645,-41.562 41.562,-41.562 22.917,0 41.562,18.645 41.562,41.562 0,22.918 -18.645,41.562 -41.562,41.562 z m 43.051,-229.11 c 0,-22.918 18.645,-41.562 41.562,-41.562 22.917,0 41.562,18.645 41.562,41.562 0,22.918 -18.645,41.562 -41.562,41.562 -22.917,0 -41.562,-18.645 -41.562,-41.562 z m 65.668,361.01 c -27.738,0 -50.312,-22.574 -50.312,-50.312 0,-27.738 22.574,-50.312 50.312,-50.312 27.738,0 50.312,22.574 50.312,50.312 0,27.738 -22.574,50.312 -50.312,50.312 z m 63.395,-176.76 c -27.738,0 -50.312,-22.574 -50.312,-50.312 0,-27.738 22.574,-50.312 50.312,-50.312 27.738,0 50.312,22.574 50.312,50.312 0,27.738 -22.566,50.312 -50.312,50.312 z m 75.223,-149.25 c 0,-27.738 22.566,-50.312 50.312,-50.312 27.746,0 50.312,22.574 50.312,50.312 0,27.738 -22.566,50.312 -50.312,50.312 -27.746,0 -50.312,-22.574 -50.312,-50.312 z m 63.754,249.88 c -22.918,0 -41.562,-18.645 -41.562,-41.562 0,-22.918 18.645,-41.562 41.562,-41.562 22.918,0 41.562,18.645 41.562,41.562 0,22.918 -18.645,41.562 -41.562,41.562 z"
       id="path66"
       inkscape:connector-curvature="0" />
  </g>
</svg>
